<svg xmlns="http://www.w3.org/2000/svg" viewBox="0 0 1021.25 1021.01"><defs><style>.cls-1,.cls-2,.cls-3,.cls-4,.cls-5{fill:#fff;}.cls-1{opacity:0.6;}.cls-2{opacity:0.9;}.cls-3{opacity:0.8;}.cls-4{opacity:0.75;}.cls-6{fill:none;}</style></defs><title>アセット 5</title><g id="レイヤー_2" data-name="レイヤー 2"><g id="レイヤー_1-2" data-name="レイヤー 1"><path class="cls-1" d="M367.26,978.43l8,2.39c2.67.79,5.37,1.47,8.05,2.21l.36.75-5.16,19.32-.71.46c-2.8-.77-5.62-1.48-8.41-2.31L361,998.76l-.35-.76,5.87-19.12Z"/><path class="cls-2" d="M978.43,653.75l2.39-8c.79-2.67,1.47-5.37,2.21-8l.75-.36,19.32,5.16.46.71c-.77,2.8-1.48,5.62-2.31,8.41L998.76,660l-.76.35-19.12-5.86C978.71,654.18,978.61,654,978.43,653.75Z"/><path class="cls-1" d="M964.16,694l1.58-3.86,1.49-3.91,3-7.81.78-.29,18.79,6.84.4.75-3.09,8.15-1.55,4.08-1.65,4-.8.29-18.53-7.53Z"/><path class="cls-3" d="M946.45,732.81c2.46-5,5-9.95,7.32-15l.8-.22L972.69,726l.33.77c-2.4,5.3-5.07,10.47-7.64,15.68l-.81.22-17.8-9.12C946.65,733.28,946.58,733.11,946.45,732.81Z"/><path class="cls-4" d="M925.36,769.92c1.46-2.37,3-4.71,4.39-7.11l4.26-7.2.82-.14,17.31,10,.26.8L948,773.79c-1.47,2.51-3.06,4.94-4.58,7.42l-.84.14-16.93-10.64Z"/><path class="cls-5" d="M901.15,805.08c1.72-2.2,3.31-4.48,5-6.72s3.31-4.48,4.87-6.79l.83-.08L928.19,803c.08.32.12.5.19.83-1.63,2.4-3.38,4.72-5.08,7.08s-3.39,4.72-5.19,7l-.84.06-15.95-12.06C901.26,805.57,901.22,805.39,901.15,805.08Z"/><path class="cls-2" d="M874,838l5.55-6.25c1.85-2.08,3.61-4.24,5.42-6.36h.83l15.31,12.86.12.83c-1.89,2.21-3.73,4.47-5.66,6.64l-5.78,6.52h-.85l-14.83-13.41C874,838.5,874,838.32,874,838Z"/><path class="cls-3" d="M844,868.42c4.12-3.75,8.05-7.7,12.05-11.58l.84.07,14.14,14.14,0,.84c-4.17,4.05-8.27,8.16-12.57,12.08l-.84-.08-13.62-14.64C844,868.93,844,868.74,844,868.42Z"/><path class="cls-1" d="M811.58,896.17c2.2-1.7,4.35-3.49,6.52-5.22l3.26-2.62,3.2-2.69.82.13,12.86,15.31,0,.85-3.33,2.81-3.4,2.73c-2.27,1.81-4.51,3.67-6.81,5.45l-.83-.16L811.54,897Z"/><path class="cls-4" d="M776.83,921l7-4.6,6.87-4.75.81.21L803,928.19l-.1.84-7.17,5-7.29,4.79-.81-.22-10.88-16.77C776.76,921.46,776.78,921.28,776.83,921Z"/><path class="cls-2" d="M740.06,942.64l3.69-1.95,3.65-2c2.43-1.37,4.87-2.7,7.29-4.09l.78.27,10,17.31c-.07.32-.1.5-.17.83-2.52,1.45-5.07,2.85-7.6,4.27l-3.81,2.13-3.85,2-.8-.3-9.37-17.66Z"/><path class="cls-1" d="M701.55,961.05c5.1-2.25,10.23-4.41,15.26-6.82l.75.34L726,972.69l-.25.81c-5.24,2.52-10.6,4.77-15.92,7.12l-.76-.36-7.8-18.41Z"/><path class="cls-3" d="M661.56,976c5.32-1.67,10.56-3.56,15.81-5.41l.73.42,6.84,18.79-.32.78c-5.48,1.93-11,3.9-16.5,5.64l-.73-.42-6.15-19C661.37,976.43,661.44,976.26,661.56,976Z"/><path class="cls-4" d="M620.43,987.36l8.12-2,4.06-1,4-1.09.68.47,5.16,19.32-.38.76L637.9,1005l-4.24,1-8.47,2.05-.69-.5L620,988.09Z"/><path class="cls-1" d="M578.45,995c2.75-.4,5.52-.73,8.27-1.2l8.24-1.36.64.53,3.45,19.7-.44.71-8.61,1.43c-2.86.49-5.75.83-8.63,1.25l-.64-.55L578,995.74C578.17,995.47,578.27,995.31,578.45,995Z"/><path class="cls-3" d="M536,999.11l8.34-.53,4.17-.27,4.17-.37.59.58,1.72,19.92-.51.68-4.34.38-4.35.29-8.7.55-.6-.6-1-20Z"/><path class="cls-5" d="M493.25,999.42l4.18.16,4.18.07,8.36.1.54.64v20l-.57.62-8.71-.11-4.36-.07-4.36-.16L492,1020l.72-20Z"/><path class="cls-3" d="M450.69,996.11l8.3.95c2.77.33,5.55.52,8.32.78.19.26.3.41.48.68l-1.72,19.92-.61.58c-2.9-.28-5.8-.48-8.68-.81l-8.67-1-.48-.69,2.44-19.85Z"/><path class="cls-4" d="M408.58,989.1c2.72.62,5.46,1.14,8.19,1.65s5.47,1.08,8.22,1.55l.42.71-3.45,19.7-.67.53c-2.86-.49-5.71-1.08-8.57-1.62s-5.71-1.08-8.54-1.72l-.42-.74,4.16-19.56Z"/><path class="cls-3" d="M327,964.16l3.87,1.58,3.9,1.49,7.81,3,.3.78-6.85,18.79-.74.4-8.16-3.09-4.07-1.55-4-1.65-.28-.8,7.52-18.53Z"/><path class="cls-1" d="M288.2,946.45c5,2.46,9.95,5,15,7.32.08.31.13.49.22.8L295,972.69l-.78.33c-5.3-2.4-10.46-5.07-15.68-7.64-.08-.31-.13-.49-.22-.81l9.12-17.8Z"/><path class="cls-1" d="M989.1,612.43c.62-2.72,1.14-5.45,1.65-8.19s1.08-5.47,1.55-8.21l.71-.43,19.7,3.45.53.67c-.49,2.86-1.08,5.71-1.62,8.57s-1.08,5.71-1.72,8.55l-.74.41-19.56-4.16Z"/><path class="cls-4" d="M996.11,570.33l.95-8.31c.32-2.76.52-5.54.78-8.32l.68-.48,19.92,1.72.58.61c-.28,2.9-.48,5.8-.81,8.69l-1,8.66-.69.48-19.85-2.44Z"/><path class="cls-1" d="M999.42,527.76l.16-4.17.07-4.18.1-8.36.64-.54h20l.62.56-.11,8.72-.07,4.35-.16,4.36-.65.54-20-.71Z"/><path class="cls-6" d="M265.74,934.48c3.6,2.09,7.25,4.07,10.86,6.11l11,5.83-9.69,18.92-11.49-6.08c-3.78-2.13-7.58-4.2-11.33-6.37Z"/><path class="cls-1" d="M177,152.59c-4.12,3.75-8.05,7.7-12.05,11.58l-.83-.06L150,150l-.05-.84c4.17-4,8.28-8.17,12.57-12.09l.85.08L177,151.76C177,152.09,177,152.27,177,152.59Z"/><path class="cls-2" d="M152.59,844c3.75,4.12,7.7,8.05,11.58,12.05l-.06.84L150,871.05l-.85,0c-4.05-4.17-8.16-8.27-12.08-12.57,0-.33.05-.51.08-.84l14.64-13.62Z"/><path class="cls-1" d="M124.85,811.58c1.7,2.2,3.48,4.35,5.22,6.52l2.62,3.26,2.69,3.2c-.06.32-.09.5-.14.82l-15.31,12.86-.85,0-2.8-3.33-2.74-3.4c-1.81-2.27-3.67-4.51-5.44-6.81l.15-.83L124,811.54Z"/><path class="cls-3" d="M100.05,776.83l4.6,7,4.75,6.87-.21.81L92.82,803l-.84-.1-5-7.17-4.79-7.29.22-.81,16.78-10.88Z"/><path class="cls-4" d="M78.37,740.06l1.95,3.69,2,3.65c1.37,2.43,2.7,4.87,4.1,7.28l-.28.79-17.3,10-.84-.17c-1.45-2.52-2.84-5.07-4.27-7.6l-2.13-3.81-2-3.85.29-.8,17.66-9.37Z"/><path class="cls-5" d="M60,701.55c2.25,5.1,4.41,10.23,6.82,15.26l-.34.75L48.32,726l-.81-.25c-2.52-5.24-4.77-10.6-7.12-15.92l.36-.76,18.41-7.8Z"/><path class="cls-2" d="M45.05,661.56c1.67,5.32,3.56,10.56,5.41,15.81l-.41.73-18.79,6.84-.79-.32c-1.93-5.48-3.9-11-5.64-16.5l.43-.73,19-6.15Z"/><path class="cls-3" d="M33.66,620.43l2,8.12,1,4.06,1.09,4-.47.68-19.32,5.16-.75-.38L16,637.9l-1-4.24-2.06-8.47.5-.69L32.93,620C33.21,620.2,33.37,620.28,33.66,620.43Z"/><path class="cls-1" d="M26,578.45c.41,2.75.73,5.52,1.2,8.27L28.54,595l-.54.64L8.31,599.05l-.72-.44L6.17,590c-.49-2.86-.83-5.75-1.26-8.63l.55-.64L25.27,578Z"/><path class="cls-4" d="M21.91,536l.53,8.34.27,4.17.37,4.17-.58.59L2.57,554.94l-.68-.51-.38-4.34-.28-4.35L.67,537l.61-.6,20-1Z"/><path class="cls-2" d="M21.59,493.25l-.16,4.18-.06,4.18L21.26,510l-.64.54H.62L0,509.94l.11-8.71.07-4.36.16-4.36L1,492l20,.72Z"/><path class="cls-1" d="M24.9,450.69,24,459c-.32,2.77-.51,5.55-.78,8.32l-.67.48L2.57,466.07,2,465.46c.28-2.9.48-5.8.81-8.68l1-8.67.7-.48,19.84,2.44Z"/><path class="cls-3" d="M31.91,408.58c-.62,2.72-1.13,5.46-1.65,8.19s-1.08,5.47-1.55,8.22l-.71.42L8.31,422l-.53-.67c.49-2.86,1.07-5.71,1.61-8.57s1.08-5.71,1.73-8.54l.73-.42,19.56,4.16Z"/><path class="cls-4" d="M42.58,367.26l-2.38,8c-.8,2.67-1.48,5.37-2.22,8.05l-.75.36-19.32-5.16-.46-.71c.77-2.8,1.49-5.62,2.31-8.41L22.25,361l.76-.35,19.12,5.87Z"/><path class="cls-1" d="M56.85,327l-1.58,3.87-1.49,3.9-3,7.81-.77.3-18.79-6.85-.41-.74,3.09-8.16,1.56-4.07,1.64-4,.8-.28,18.53,7.52Z"/><path class="cls-3" d="M74.56,288.2c-2.46,5-5,9.95-7.32,15l-.8.22L48.32,295l-.33-.78c2.4-5.3,5.07-10.46,7.64-15.68l.81-.22,17.8,9.12C74.36,287.73,74.43,287.9,74.56,288.2Z"/><path class="cls-5" d="M95.65,251.09c-1.46,2.38-3,4.71-4.39,7.11L87,265.4l-.83.15-17.3-10-.26-.8,4.43-7.51c1.47-2.5,3.06-4.94,4.59-7.41l.83-.15L95.4,250.3Z"/><path class="cls-3" d="M119.86,215.94c-1.72,2.19-3.31,4.48-5,6.72s-3.31,4.48-4.87,6.79l-.83.08L92.82,218l-.19-.82c1.63-2.41,3.38-4.73,5.08-7.09s3.39-4.72,5.19-7l.84-.06,16,12.07C119.76,215.44,119.79,215.62,119.86,215.94Z"/><path class="cls-4" d="M147,183l-5.54,6.25c-1.85,2.08-3.62,4.24-5.43,6.36h-.83l-15.31-12.87c-.05-.32-.07-.5-.12-.83,1.89-2.21,3.73-4.46,5.66-6.64l5.78-6.52h.85l14.83,13.41C147,182.51,147,182.69,147,183Z"/><path class="cls-3" d="M209.44,124.85c-2.21,1.7-4.35,3.48-6.53,5.22l-3.26,2.62-3.2,2.69-.81-.14-12.87-15.31c0-.33,0-.52,0-.85l3.34-2.8,3.39-2.74c2.27-1.81,4.51-3.67,6.81-5.44l.84.15L209.48,124Z"/><path class="cls-1" d="M244.19,100.05l-7,4.6-6.87,4.75-.8-.21L218,92.82l.1-.83,7.17-5,7.29-4.79.81.22,10.88,16.78Z"/><path class="cls-1" d="M183,874l6.25,5.55c2.08,1.85,4.24,3.61,6.36,5.42,0,.32,0,.5,0,.83l-12.87,15.31-.83.12c-2.21-1.89-4.46-3.73-6.64-5.66l-6.52-5.78v-.84l13.41-14.84Z"/><path class="cls-4" d="M215.94,901.15c2.19,1.72,4.48,3.31,6.72,5s4.48,3.31,6.78,4.87c0,.33.05.51.09.83L218,928.19l-.82.19c-2.41-1.63-4.73-3.38-7.09-5.08s-4.72-3.39-7-5.19c0-.33,0-.51-.06-.84l12.07-15.95Z"/><path class="cls-1" d="M251.09,925.36c2.38,1.46,4.71,3,7.11,4.39l7.2,4.26.15.82-10,17.31-.8.26L247.22,948c-2.5-1.47-4.94-3.06-7.41-4.58l-.15-.84,10.64-16.93Z"/><path class="cls-6" d="M265.74,86.53c-3.56,2.13-7.17,4.18-10.7,6.38l-5.28,3.3c-1.76,1.09-3.53,2.19-5.25,3.35L232.94,81.72c1.8-1.2,3.64-2.35,5.48-3.49l5.51-3.45c3.68-2.28,7.45-4.43,11.17-6.65Z"/><path class="cls-1" d="M987.36,400.58l-2-8.12-1-4.06-1.09-4,.47-.69,19.32-5.16.76.38,1.13,4.21,1,4.24,2.05,8.47-.5.69L988.09,401Z"/><path class="cls-2" d="M400.58,33.66l-8.12,2-4.06,1-4,1.09-.69-.47-5.16-19.32.38-.75L383.11,16l4.24-1,8.47-2.06.69.5L401,32.93Z"/><path class="cls-1" d="M442.57,26c-2.76.41-5.53.73-8.27,1.2l-8.25,1.37-.64-.54L422,8.31l.45-.72L431,6.17c2.87-.49,5.75-.83,8.63-1.26l.64.55L443,25.27Z"/><path class="cls-3" d="M485.06,21.91l-8.34.53-4.17.27-4.16.37c-.23-.23-.36-.36-.6-.58L466.07,2.57l.51-.68,4.34-.38,4.35-.29L484,.67l.6.61,1,20Z"/><path class="cls-4" d="M527.76,21.59l-4.17-.16-4.18-.06-8.36-.11-.54-.64V.62l.56-.62,8.72.11,4.35.07,4.36.16L529,1l-.71,20Z"/><path class="cls-5" d="M570.33,24.9,562,24c-2.76-.32-5.55-.51-8.32-.78l-.48-.67,1.72-19.93.61-.58c2.9.28,5.8.48,8.69.81l8.66,1,.48.7-2.44,19.84Z"/><path class="cls-2" d="M612.43,31.91c-2.72-.62-5.45-1.13-8.19-1.65s-5.47-1.08-8.21-1.55c-.17-.27-.26-.43-.43-.71l3.45-19.69.67-.53c2.86.49,5.71,1.07,8.57,1.61s5.71,1.08,8.55,1.73c.16.28.25.45.42.73l-4.17,19.56Z"/><path class="cls-3" d="M653.75,42.58l-8-2.38c-2.67-.8-5.37-1.48-8-2.22l-.36-.75,5.16-19.32.71-.46c2.8.77,5.62,1.49,8.41,2.31L660,22.25l.35.76-5.86,19.12Z"/><path class="cls-1" d="M694,56.85l-3.86-1.58-3.91-1.49-7.81-3-.29-.77,6.84-18.79.75-.41,8.15,3.09,4.07,1.56,4,1.64c.11.32.18.49.29.8l-7.53,18.53Z"/><path class="cls-4" d="M732.81,74.56c-5-2.46-9.95-5-15-7.32l-.22-.8L726,48.32l.77-.33c5.3,2.4,10.47,5.07,15.68,7.64.09.32.13.5.22.81l-9.12,17.8Z"/><path class="cls-2" d="M769.92,95.65c-2.37-1.46-4.71-3-7.11-4.39L755.61,87l-.14-.83,10-17.3.8-.26,7.51,4.43c2.51,1.47,4.94,3.06,7.42,4.59,0,.32.08.5.14.83L770.71,95.4Z"/><path class="cls-1" d="M805.08,119.86c-2.2-1.72-4.48-3.31-6.72-5s-4.49-3.31-6.79-4.87c0-.32-.05-.5-.08-.83L803,92.82l.83-.19c2.4,1.63,4.72,3.38,7.08,5.08s4.72,3.39,7,5.19c0,.33,0,.51.06.84l-12.07,16Z"/><path class="cls-3" d="M838,147l-6.25-5.54c-2.08-1.85-4.24-3.61-6.36-5.43v-.83l12.86-15.31.83-.12c2.21,1.89,4.46,3.73,6.64,5.66l6.52,5.78v.85l-13.41,14.83Z"/><path class="cls-4" d="M868.42,177c-3.75-4.12-7.7-8.05-11.58-12.05,0-.33,0-.51.07-.83L871.05,150l.84-.05c4.05,4.17,8.16,8.28,12.08,12.57l-.08.85L869.25,177Z"/><path class="cls-1" d="M896.17,209.44c-1.7-2.21-3.49-4.35-5.22-6.53l-2.62-3.26-2.69-3.19.13-.82,15.31-12.86.85,0,2.8,3.34,2.74,3.39c1.81,2.27,3.67,4.51,5.44,6.81l-.15.84L897,209.48Z"/><path class="cls-3" d="M921,244.19l-4.59-7-4.76-6.87.21-.8L928.19,218l.84.1,5,7.17,4.79,7.29-.22.81-16.77,10.88Z"/><path class="cls-5" d="M942.64,281l-1.95-3.69-2-3.65c-1.37-2.42-2.7-4.87-4.09-7.28l.27-.78,17.31-10,.83.17c1.45,2.52,2.85,5.07,4.27,7.6l2.13,3.81,2,3.85-.3.8-17.66,9.38Z"/><path class="cls-3" d="M961.05,319.46c-2.25-5.09-4.41-10.23-6.82-15.25l.34-.76L972.69,295l.81.24c2.52,5.24,4.77,10.6,7.12,15.92l-.36.77-18.41,7.79Z"/><path class="cls-4" d="M976,359.45c-1.67-5.32-3.56-10.55-5.41-15.81.16-.28.25-.44.42-.72l18.79-6.85.78.32c1.93,5.48,3.9,10.95,5.64,16.5-.16.29-.26.45-.42.73l-19,6.15Z"/><path class="cls-3" d="M995,442.57c-.4-2.76-.73-5.53-1.2-8.27l-1.36-8.25.53-.64,19.7-3.45.71.45,1.43,8.6c.49,2.87.83,5.75,1.25,8.63l-.55.64L995.74,443Z"/><path class="cls-1" d="M999.11,485.06l-.53-8.34-.27-4.17-.38-4.16.59-.6,19.92-1.72.68.51.38,4.34.29,4.35.55,8.7-.6.6-20,1Z"/><path class="cls-1" d="M359.45,45.05c-5.32,1.67-10.55,3.56-15.81,5.41l-.72-.41-6.85-18.79.32-.79c5.48-1.93,10.95-3.9,16.5-5.64l.73.43,6.15,19Z"/><path class="cls-4" d="M319.46,60c-5.09,2.25-10.23,4.41-15.25,6.82l-.76-.34L295,48.32l.24-.81c5.24-2.52,10.6-4.77,15.92-7.12l.77.36,7.79,18.41C319.61,59.48,319.56,59.65,319.46,60Z"/><path class="cls-1" d="M281,78.37l-3.7,1.95-3.65,2c-2.42,1.37-4.87,2.7-7.28,4.1l-.78-.28-10-17.3c.07-.33.1-.51.17-.84,2.52-1.45,5.07-2.84,7.6-4.27l3.81-2.13,3.85-2,.8.29,9.38,17.66Z"/><polygon class="cls-6" points="999.99 510.51 999.84 498.04 999.37 485.59 1020.6 484.52 1021.09 497.51 1021.25 510.51 999.99 510.51"/></g></g></svg>
