<svg xmlns="http://www.w3.org/2000/svg" viewBox="0 0 435.94 154.21"><defs><style>.cls-1{fill:#231815;}.cls-2{opacity:0.75;}</style></defs><title>アセット 7</title><g id="レイヤー_2" data-name="レイヤー 2"><g id="レイヤー_1-2" data-name="レイヤー 1"><path class="cls-1" d="M16,152.14H8.48V82.21H0v-7H8.48V38.68c0-8.67,1.32-14.52,3.77-18.1a19.53,19.53,0,0,1,16.4-8.1,18.28,18.28,0,0,1,6.78,1.13v7a22.44,22.44,0,0,0-6-.94C19.79,19.64,16,25.48,16,40.18V75.24H35.43v7H16Z"/><path class="cls-1" d="M70.3,152.14H62.76V14.74H70.3Z"/><path class="cls-1" d="M106.68,121c0,8.86.75,13.38,2.45,17,2.83,5.47,10,9.24,17.72,9.24,7.53,0,14.7-3.77,17.52-9.24,1.7-3.58,2.45-8.1,2.45-17V75.24h7.54v48.44c0,10.74-1.32,16-5.65,21.11-4.9,5.84-13,9.42-21.86,9.42-9,0-17.16-3.58-22.06-9.42-4.33-5.09-5.65-10.37-5.65-21.11V75.24h7.54Z"/><path class="cls-1" d="M244.83,93.33c-9.05-9.23-16.77-12.81-27-12.81C200,80.52,186,95.22,186,114.07c0,18.47,14.13,33.17,31.85,33.17,10.55,0,19.6-4.53,27.89-14v10.18c-8.86,7.35-17.53,10.74-27.89,10.74-22.43,0-39.58-17.34-39.58-39.77,0-23.37,17.15-40.9,39.77-40.9,10.17,0,17.9,2.83,26.76,9.81Z"/><path class="cls-1" d="M276.5,152.14H269V82.21h-8.48v-7H269V47.72h7.54V75.24h13.57v7H276.5Z"/><path class="cls-1" d="M314.19,121c0,8.86.75,13.38,2.45,17,2.83,5.47,10,9.24,17.72,9.24,7.53,0,14.7-3.77,17.52-9.24,1.7-3.58,2.45-8.1,2.45-17V75.24h7.54v48.44c0,10.74-1.32,16-5.65,21.11-4.9,5.84-13,9.42-21.86,9.42-9.05,0-17.16-3.58-22.06-9.42-4.33-5.09-5.65-10.37-5.65-21.11V75.24h7.54Z"/><path class="cls-1" d="M425,89.38c-3.2-5.85-7.54-8.86-13.19-8.86-7.35,0-13.38,5.65-13.38,12.44,0,6,3.58,9.23,15.08,13.57,9.8,3.58,11.3,4.33,14.88,7,4.91,3.77,7.54,9.42,7.54,16.4,0,14.13-10.36,24.31-25.06,24.31-12.82,0-22.43-7.35-26.39-20.35l7.35-2.27c3.58,10.56,10,15.65,19,15.65a16.9,16.9,0,0,0,17.34-17.15c0-7.73-3.59-11.5-14.89-15.65-16.78-6-22.62-11.49-22.62-21.11,0-10.93,9.24-19.79,20.73-19.79,8.67,0,15.64,4.34,20,12.44Z"/><g class="cls-2"><path class="cls-1" d="M120.67,3.33l-6.2,8.85a9.16,9.16,0,0,1,3.75-.76,9.84,9.84,0,1,1-10.11,9.78,10.27,10.27,0,0,1,1.81-5.74l9.31-13.18ZM110,21.24a8.14,8.14,0,1,0,8.14-8.09A8.15,8.15,0,0,0,110,21.24Z"/><path class="cls-1" d="M132.22,4.3V2.61h20.35L132.51,31,131.12,30,149.28,4.3Z"/><path class="cls-1" d="M157.55,30.72h-1.69V15.08H154V13.53h1.89V7.37h1.69v6.16h3v1.55h-3Z"/><path class="cls-1" d="M165.55,0V16.22a5.69,5.69,0,0,1,5.27-3.07,5.55,5.55,0,0,1,4.76,2.4,8.18,8.18,0,0,1,.85,4.34V30.72h-1.69V19.89a6.46,6.46,0,0,0-.63-3.5,4,4,0,0,0-3.5-1.68,4.53,4.53,0,0,0-4.13,2.35c-.71,1.19-.93,2.37-.93,4.73v8.93h-1.68V0Z"/><path class="cls-1" d="M199.57,30.72h-1.82V4.3h-7.2V2.61H206.9V4.3h-7.33Z"/><path class="cls-1" d="M218.15,16.69a3.26,3.26,0,0,0-3-2,2.91,2.91,0,0,0-3,2.78c0,1.34.8,2.06,3.37,3a10.52,10.52,0,0,1,3.33,1.56,4.42,4.42,0,0,1,1.69,3.67A5.31,5.31,0,0,1,215,31.18a5.93,5.93,0,0,1-5.9-4.55l1.65-.5c.8,2.35,2.23,3.49,4.25,3.49a3.78,3.78,0,0,0,3.88-3.83c0-1.73-.8-2.57-3.33-3.5-3.75-1.35-5.06-2.57-5.06-4.72a4.53,4.53,0,0,1,4.64-4.42,4.89,4.89,0,0,1,4.47,2.78Z"/><path class="cls-1" d="M226.58,23.77a8.65,8.65,0,0,0,.55,3.79,4.8,4.8,0,0,0,7.88,0,8.65,8.65,0,0,0,.55-3.79V13.53h1.68V24.36c0,2.4-.29,3.58-1.26,4.72a6.79,6.79,0,0,1-9.82,0c-1-1.14-1.26-2.32-1.26-4.72V13.53h1.68Z"/><path class="cls-1" d="M245,20.82l7-7.29h2.19L247,21l9.65,9.74h-2.32l-8.47-8.51-.88.88v7.63h-1.69V0H245Z"/><path class="cls-1" d="M261.65,23.77a8.65,8.65,0,0,0,.55,3.79,4.8,4.8,0,0,0,7.88,0,8.65,8.65,0,0,0,.55-3.79V13.53h1.68V24.36c0,2.4-.29,3.58-1.26,4.72a6.79,6.79,0,0,1-9.82,0c-1-1.14-1.27-2.32-1.27-4.72V13.53h1.69Z"/><path class="cls-1" d="M280,20.82l7-7.29h2.19L282.05,21l9.65,9.74h-2.32l-8.47-8.51-.88.88v7.63h-1.69V0H280Z"/><path class="cls-1" d="M311.93,22.16a9,9,0,1,1-9-9A8.89,8.89,0,0,1,311.93,22.16ZM295.66,22a7.27,7.27,0,1,0,14.54.12A7.27,7.27,0,1,0,295.66,22Z"/><path class="cls-1" d="M318.51,13.53v2.15a4.74,4.74,0,0,1,4.42-2.53,5,5,0,0,1,4.8,3.11,5.24,5.24,0,0,1,5.06-3.11A5.42,5.42,0,0,1,337.05,15c.8,1,1.05,2.11,1.05,4.43V30.72h-1.68V19.26c0-1.81-.17-2.49-.76-3.29a3.73,3.73,0,0,0-3-1.26c-2.83,0-4.34,2-4.34,5.64V30.72h-1.69v-11a5.69,5.69,0,0,0-.63-3.12,3.49,3.49,0,0,0-3.16-1.85,4.16,4.16,0,0,0-3.67,2.23,9.09,9.09,0,0,0-.71,3.83v10h-1.69V13.53Z"/><path class="cls-1" d="M359.85,13.53V30.72h-1.69V27.64a7.67,7.67,0,0,1-6.7,3.54c-4.88,0-8.42-3.83-8.42-9.14s3.45-8.89,8.38-8.89a7.85,7.85,0,0,1,6.74,3.37v-3ZM344.76,22c0,4.43,2.87,7.67,6.75,7.67s6.78-3.16,6.78-7.67a6.64,6.64,0,0,0-2.15-5.43,7.25,7.25,0,0,0-4.63-1.81C347.71,14.71,344.76,17.87,344.76,22Z"/><path class="cls-1" d="M379,4.3V14.49h9.27v1.69H379V30.72h-1.81V2.61h11.33V4.3Z"/><path class="cls-1" d="M394.25,22.33a7.34,7.34,0,0,0,.92,3.88A6.72,6.72,0,0,0,401,29.62,6.79,6.79,0,0,0,405.29,28,9,9,0,0,0,407,25.66l1.44.84a8.29,8.29,0,0,1-7.63,4.68c-4.89,0-8.43-3.79-8.43-9s3.58-9.06,8.39-9.06,8.13,3.66,8.21,9.18Zm12.81-1.6c-.64-3.62-3.17-6-6.32-6s-5.86,2.52-6.37,6Z"/><path class="cls-1" d="M421.55,16.69a3.26,3.26,0,0,0-2.94-2,2.91,2.91,0,0,0-3,2.78c0,1.34.8,2.06,3.37,3a10.4,10.4,0,0,1,3.33,1.56A4.42,4.42,0,0,1,424,25.75a5.31,5.31,0,0,1-5.61,5.43,5.91,5.91,0,0,1-5.89-4.55l1.64-.5c.8,2.35,2.23,3.49,4.25,3.49a3.77,3.77,0,0,0,3.88-3.83c0-1.73-.8-2.57-3.33-3.5-3.75-1.35-5.05-2.57-5.05-4.72a4.52,4.52,0,0,1,4.63-4.42A4.89,4.89,0,0,1,423,15.93Z"/><path class="cls-1" d="M431.12,29.45a1.54,1.54,0,1,1-3.07,0,1.54,1.54,0,0,1,1.56-1.51A1.5,1.5,0,0,1,431.12,29.45Z"/></g></g></g></svg>
