<svg id="レイヤー_1" data-name="レイヤー 1" xmlns="http://www.w3.org/2000/svg" xmlns:xlink="http://www.w3.org/1999/xlink" viewBox="0 0 323 361"><defs><style>.cls-1,.cls-4{fill:none;}.cls-10,.cls-11,.cls-12,.cls-2,.cls-9{fill:#fff;}.cls-3{clip-path:url(#clip-path);}.cls-4{stroke:#b1b1b1;stroke-linecap:round;stroke-linejoin:round;stroke-width:3px;}.cls-5{fill:#b1b1b1;}.cls-6{fill:#59b9c6;}.cls-7{fill:#a0d8ef;}.cls-8{fill:#040000;}.cls-9{opacity:0.6;}.cls-10{opacity:0.9;}.cls-11{opacity:0.8;}.cls-12{opacity:0.75;}</style><clipPath id="clip-path"><rect class="cls-1" width="323" height="361"/></clipPath></defs><title>アートボード 1</title><polygon class="cls-1" points="323 0 0 0 0 361 323 361 323 0 323 0"/><rect class="cls-2" width="323" height="361"/><g class="cls-3"><line class="cls-4" x1="168.81" y1="248.91" x2="125.91" y2="251.46"/><path class="cls-4" d="M125.88,273.74c16.48,6,38.63,14.1,40.62,14.76,3,1,4,4,8,5s32,7,32,7"/><path class="cls-5" d="M115.34,366.55a3.69,3.69,0,0,1-3.13-1.77,4.05,4.05,0,0,1,1.08-5.45c11.53-8,112.83-77.77,117.48-80.37s35.35-16.57,36.65-17.16l.17-.07C306.68,246.27,381.94,216.38,387,214a55,55,0,0,0,14.89-9.69c5.66-4.91,18.7-21.36,18.83-21.52a3.62,3.62,0,0,1,5.27-.51,4.09,4.09,0,0,1,.48,5.55c-.55.69-13.62,17.18-19.83,22.55a62.39,62.39,0,0,1-16.53,10.78C383.59,224.24,276,266.8,270.3,269.06c-11,5-32.47,14.86-36,16.85-3.4,1.91-71.77,48.89-116.89,80A3.59,3.59,0,0,1,115.34,366.55Z"/><path class="cls-5" d="M-35,161.18a1.53,1.53,0,0,1-1.49-1.41A1.56,1.56,0,0,1-35.14,158l33.73-3.6,43.58-4.55c.36,0,8.86-.91,12.13-1.09s4.28-.21,6.07-.18c1.56,0,3.67.11,6.28.41.64.07,1.95.3,3.75.62,4,.71,10.66,1.89,16.13,2.36a1.54,1.54,0,0,1,1.37,1.69,1.52,1.52,0,0,1-1.61,1.45c-5.6-.48-12.35-1.68-16.39-2.4-1.68-.29-3-.53-3.57-.59-2.49-.28-4.52-.36-6-.39s-2.52,0-5.85.17S42.55,153,42.46,153l-43.57,4.55-33.73,3.61Z"/><path class="cls-5" d="M323.62,164.73a1.33,1.33,0,0,1-.58-.13,29.35,29.35,0,0,0-4.27-1.45c-2.38-.43-12-1.67-14.35-1.91s-14.47-.46-17.33-.38S269.51,162,268.9,162c-.86.09-15.85,1.54-19,1.58s-16-.29-19-.53a38.75,38.75,0,0,1-5.08-.75c-.3-.07-7.84-1.76-10.08-2.46A91.91,91.91,0,0,1,206,155.3c-.68-.36-1.64-.94-2.66-1.55-1.55-.93-3.31-2-4.38-2.48a101.69,101.69,0,0,0-12.22-4,67.59,67.59,0,0,0-10.92-.39c-2.64.16-16.83,1.81-17,1.83a1.52,1.52,0,0,1-1.66-1.39,1.56,1.56,0,0,1,1.33-1.74c.58-.07,14.41-1.68,17.13-1.84a67.73,67.73,0,0,1,11.61.43,103.8,103.8,0,0,1,12.9,4.25c1.22.56,3,1.65,4.66,2.62,1,.6,1.92,1.16,2.54,1.49a89.56,89.56,0,0,0,9.29,4.35c2.12.67,9.79,2.38,9.86,2.4a35.2,35.2,0,0,0,4.67.69c2.57.21,15.5.57,18.7.52,3,0,18.62-1.55,18.77-1.56h0c.63,0,15.46-1.1,18.33-1.18s15.21.15,17.7.4,12.24,1.51,14.61,1.95h.07a32.08,32.08,0,0,1,4.81,1.63,1.61,1.61,0,0,1,.8,2.06A1.49,1.49,0,0,1,323.62,164.73Z"/><path class="cls-5" d="M235.05,266.07a1.49,1.49,0,0,1-1.42-1.09,52,52,0,0,1-1.75-7.32,54.74,54.74,0,0,1,.5-8.08c.16-1.59.36-3.55.34-4-.18-.93-2.21-6.12-4.09-10.65a1.6,1.6,0,0,1,.77-2.07,1.46,1.46,0,0,1,2,.81c1.57,3.77,4.21,10.3,4.33,11.6a39.7,39.7,0,0,1-.34,4.67,62.17,62.17,0,0,0-.51,7.41,49,49,0,0,0,1.62,6.69,1.58,1.58,0,0,1-1,2A1.48,1.48,0,0,1,235.05,266.07Z"/><path class="cls-5" d="M233.37,259.06h-.23a17.21,17.21,0,0,1-7.55-3.34,30.73,30.73,0,0,1-5.38-6.69,1.64,1.64,0,0,1,.49-2.17,1.47,1.47,0,0,1,2.06.51,27.86,27.86,0,0,0,4.72,5.91,14.14,14.14,0,0,0,6.11,2.66,1.57,1.57,0,0,1,1.25,1.8A1.51,1.51,0,0,1,233.37,259.06Z"/><path class="cls-5" d="M111.22,119.21a1.53,1.53,0,0,1-1.49-1.45,1.55,1.55,0,0,1,1.37-1.7l20.1-1.76,17.12-3.82a1.5,1.5,0,0,1,1.77,1.22,1.56,1.56,0,0,1-1.15,1.86l-17.21,3.84-.18,0-20.2,1.77Z"/><path class="cls-5" d="M131.42,101a1.33,1.33,0,0,1-.34-.05l-20.21-5a1.57,1.57,0,0,1-1.1-1.89,1.49,1.49,0,0,1,1.8-1.17l20.2,5.05a1.59,1.59,0,0,1,1.11,1.9A1.53,1.53,0,0,1,131.42,101Z"/><path class="cls-5" d="M158.83,43.64a1.84,1.84,0,0,1-.33,0L100,29.93a1.58,1.58,0,0,1-1.13-1.88,1.49,1.49,0,0,1,1.78-1.19l58.55,13.67a1.58,1.58,0,0,1,1.14,1.88A1.53,1.53,0,0,1,158.83,43.64Z"/><path class="cls-5" d="M155.88,59.24a1.45,1.45,0,0,1-1.09-.5c-3.85-4.31-8.24-9.07-9.21-9.88-2-.56-18.3-3.42-29.14-5.28L114.87,48a1.48,1.48,0,0,1-1.93.91,1.57,1.57,0,0,1-.87-2l2-5.61a1.48,1.48,0,0,1,1.64-1c.07,0,7.54,1.29,15,2.61,15.37,2.72,15.84,3,16.18,3.15,1,.53,6,6,10,10.56a1.61,1.61,0,0,1-.07,2.22A1.42,1.42,0,0,1,155.88,59.24Z"/><path class="cls-5" d="M128.22,45.72h-.09a1.56,1.56,0,0,1-1.41-1.67l.54-9.1a1.54,1.54,0,0,1,1.59-1.48,1.56,1.56,0,0,1,1.4,1.67l-.54,9.1A1.53,1.53,0,0,1,128.22,45.72Z"/><path class="cls-5" d="M138.16,59.45a1.43,1.43,0,0,1-.95-.35,1.63,1.63,0,0,1-.21-2.22l8.09-10.44a1.44,1.44,0,0,1,2.1-.23,1.64,1.64,0,0,1,.22,2.22l-8.09,10.44A1.48,1.48,0,0,1,138.16,59.45Z"/><path class="cls-6" d="M240.33,275.93a1.47,1.47,0,0,1-1.3-.81l-4.78-8.92-8.59,1.29-.11,0c-.43,0-10.66.79-14.78.52s-19.32-4.07-20-4.23c-.36-.08-9.32-2.19-14.08-4.86-4.15-2.33-7.22-6.38-9.7-9.64-.47-.62-.91-1.2-1.34-1.74-.26-.32-3.72-4.6-4.29-7-.38-1.57-2.85-63.19-4-91.56l-23.94,3.29c-.34.05-8.4,1.21-10.29,1.39-2.14.19-24.46,1.7-32.43,1.72-1.27,0-2.79-.07-4.48-.21a1.57,1.57,0,0,1-1.37-1.7A1.52,1.52,0,0,1,86.53,152c1.61.13,3,.21,4.24.2,7.7,0,30.12-1.52,32.17-1.71,1.82-.17,10.07-1.36,10.15-1.37l25.57-3.51a1.42,1.42,0,0,1,1.16.36,1.56,1.56,0,0,1,.53,1.14c1,24.83,3.59,89.61,4,92.69a24.08,24.08,0,0,0,3.66,5.7l0,0c.45.57.9,1.16,1.38,1.79,2.42,3.2,5.17,6.81,8.77,8.83,4.39,2.47,13.25,4.55,13.34,4.57s15.57,3.91,19.47,4.16,13.54-.46,14.34-.52l9.55-1.44a1.47,1.47,0,0,1,1.51.79l5.29,9.86a1.62,1.62,0,0,1-.57,2.14A1.46,1.46,0,0,1,240.33,275.93Z"/><path class="cls-6" d="M133.29,152.26a1.53,1.53,0,0,1-1.49-1.48c-.07-1.34-1.83-32.9-1.87-34.88,0-1.57-.18-14.87,0-16.61.15-1.48,5.67-35.16,6.65-41.15l-6.36-12.65a1.62,1.62,0,0,1,.62-2.13,1.45,1.45,0,0,1,2,.66l6.61,13.12a1.65,1.65,0,0,1,.15,1c-2.64,16.08-6.6,40.39-6.72,41.5-.15,1.35,0,14,0,16.18,0,1.93,1.85,34.45,1.87,34.78a1.54,1.54,0,0,1-1.41,1.66Z"/><path class="cls-6" d="M190.25,315.81l-4.09-6.6c42-28.8,43.9-29.86,44.61-30.25,1.73-1,8.19-4,10.89-5.3l3.06,7.19c-5.32,2.5-9.41,4.48-10.44,5.06S226.49,291,190.25,315.81Z"/><polygon class="cls-7" points="145.71 63.96 139.79 63.04 140.33 59.14 146.25 60.06 145.71 63.96"/><polygon class="cls-7" points="217.02 286.99 213.61 281.81 216.69 279.57 220.09 284.75 217.02 286.99"/><path class="cls-8" d="M114.84,155.22a3,3,0,1,1-3-3.15A3.07,3.07,0,0,1,114.84,155.22Z"/><path class="cls-8" d="M122.69,149.71a3,3,0,1,1-3-3.15A3.07,3.07,0,0,1,122.69,149.71Z"/><polygon class="cls-8" points="179.58 54.8 130.15 42.87 131.4 37.1 180.84 49.03 179.58 54.8"/><path class="cls-8" d="M305.79,103.79a86.66,86.66,0,0,1-13.57-.79,125.27,125.27,0,0,1-20.38-5.69c-7.18-2.51-20.74-10-20.88-10.09-.5-.27-50.2-27.16-52.59-28.19S182.5,53.23,182,53l-92.39-23L28.73,16.68-10,11.3l.1-.78,38.81,5.39L89.72,29.29l92.43,23h0c.57.2,14.07,5,16.48,6s50.61,27.11,52.66,28.22c.13.08,13.65,7.56,20.77,10a124.48,124.48,0,0,0,20.27,5.66c7.68,1.42,26.15.47,26.34.46l59.06-2.76,0,.79-59.06,2.75C318.62,103.47,312.47,103.79,305.79,103.79Z"/><polygon class="cls-8" points="196.04 314.08 152.87 343.27 146.38 332.64 189.56 303.46 196.04 314.08"/><path class="cls-8" d="M118.56,361.34l-.82-1.32,1.89-1.3.82,1.32Zm3.78-2.6-.82-1.32,1.88-1.3.82,1.32Zm3.76-2.6-.82-1.32,1.89-1.29.82,1.31Zm3.77-2.59-.82-1.32,1.88-1.3.82,1.32Zm3.76-2.59-.82-1.32,1.88-1.3.82,1.32Zm3.77-2.59-.82-1.32,1.88-1.3.82,1.32Zm3.76-2.59-.82-1.32,1.88-1.3.82,1.32Zm3.76-2.59-.82-1.32,1.88-1.3.82,1.32Zm3.76-2.59-.82-1.32,1.89-1.29.81,1.31Zm3.77-2.59-.82-1.32,1.88-1.29.82,1.32Zm3.76-2.59-.82-1.32,1.88-1.29.82,1.32Zm3.76-2.58-.82-1.32,1.88-1.3.82,1.32Zm3.76-2.59-.81-1.32,1.88-1.29.82,1.32Zm3.76-2.58-.82-1.32,1.88-1.29.82,1.32Zm3.76-2.58-.82-1.32,1.89-1.3.81,1.32Zm3.77-2.6-.81-1.31,1.88-1.3.82,1.32Zm3.77-2.58-.82-1.32,1.88-1.29.82,1.32Zm3.76-2.58-.82-1.32,1.89-1.29.81,1.31Zm3.77-2.59-.82-1.31,1.88-1.3.82,1.32Zm3.76-2.58-.81-1.32,1.88-1.29.82,1.32Zm3.77-2.58-.82-1.32,1.89-1.29.81,1.32Zm3.77-2.58-.82-1.32,1.88-1.29.82,1.32Zm3.76-2.58-.81-1.32,1.88-1.29.82,1.32Zm3.77-2.58-.81-1.32,1.88-1.28.82,1.32Zm3.77-2.57-.81-1.32,1.88-1.29.82,1.32Zm3.78-2.58-.82-1.32,1.89-1.28.81,1.32Zm3.77-2.57-.81-1.32,1.89-1.28.81,1.32Zm3.78-2.56-.81-1.33,1.89-1.28.81,1.32ZM224,289l-.81-1.32,1.9-1.28.81,1.32Zm3.79-2.55-.8-1.33,1.91-1.28.8,1.34Zm3.82-2.53-.79-1.34c.67-.44,1.1-.71,1.32-.83l.71-.38.66,1.41-.66.36C232.74,283.2,232.42,283.4,231.64,283.91Zm3.92-2.16-.63-1.42,2-1,.62,1.43Zm4.09-2-.62-1.44,2.06-1,.61,1.44C241,279.15,240.3,279.47,239.65,279.79Zm4.1-1.94-.61-1.44,2.06-1,.61,1.44Zm4.12-1.92-.61-1.44,2.06-.95.61,1.44ZM252,274l-.6-1.44,2.06-.95.6,1.44Zm4.12-1.9-.6-1.44,2.06-.95.6,1.45Zm4.12-1.89-.59-1.44,2.06-1,.6,1.44Zm4.13-1.89-.59-1.45,2.06-.94.6,1.45Zm4.14-1.89-.59-1.44a7.51,7.51,0,0,1,.73-.32v0l1.42-.56.53,1.48-1.41.55Zm4.21-1.7-.53-1.48,2.11-.83.53,1.47Zm4.22-1.68-.52-1.47,2.1-.83.53,1.47Zm4.22-1.67-.53-1.47,2.11-.83.52,1.47Zm4.21-1.67-.53-1.47,2.11-.83.53,1.47Zm4.21-1.66-.53-1.48,2.11-.83.53,1.47Zm4.21-1.67-.53-1.48,2.11-.83.53,1.47Zm4.21-1.67-.53-1.48,2.11-.83.52,1.47Zm4.21-1.67-.53-1.48,2.1-.83.53,1.47Zm4.2-1.67-.52-1.48,2.1-.83.53,1.47Zm4.21-1.67-.53-1.48,2.11-.83.52,1.47Zm4.21-1.67-.53-1.48,2.1-.83.53,1.47Zm4.2-1.68-.53-1.47,2.11-.83.52,1.47Zm4.2-1.67-.53-1.47,2.1-.83.53,1.47Zm4.21-1.67-.53-1.47,2.11-.84.53,1.47Zm4.21-1.68-.53-1.47,2.1-.84.53,1.48Zm4.21-1.67-.53-1.47,2.1-.84.53,1.47Zm4.2-1.68-.53-1.47,2.1-.84.53,1.47Zm4.2-1.67-.53-1.48,2.11-.83.53,1.47Zm4.21-1.68-.53-1.47,2.1-.84.53,1.47Zm4.2-1.68-.53-1.47,2.1-.84.53,1.47Zm4.2-1.68-.53-1.48,2.1-.84.54,1.47Zm4.21-1.69-.54-1.47,2.11-.84.53,1.47Zm4.2-1.69-.53-1.47,2.1-.84.53,1.47Zm4.2-1.69-.53-1.47,2.1-.84.53,1.47Zm4.2-1.69-.53-1.47,2.1-.85.54,1.47Zm4.21-1.71-.54-1.46,2.1-.86L380,222Zm4.2-1.71-.54-1.47,2.09-.86.55,1.46Zm4.21-1.74-.56-1.47c.92-.38,1.62-.68,2.09-.89l.58,1.45Zm4.18-1.91-.64-1.42c.73-.36,1.39-.69,2-1l.66,1.42C391.87,216.76,391.21,217.1,390.47,217.46Zm4-2.12-.71-1.38c.68-.38,1.31-.76,1.93-1.14l.76,1.35C395.87,214.57,395.22,215,394.52,215.34Zm3.91-2.44-.82-1.32c.6-.41,1.19-.85,1.82-1.32l.87,1.28C399.66,212,399.05,212.47,398.43,212.9Zm3.69-2.79-.91-1.25c.55-.45,1.12-.92,1.74-1.45l.94,1.22C403.26,209.17,402.68,209.65,402.12,210.11Zm3.52-3-1-1.18c.49-.45,1-1,1.62-1.59l1,1.13C406.71,206.07,406.15,206.62,405.64,207.09Zm3.27-3.32-1.06-1.1c.48-.52,1-1.09,1.55-1.69l1.08,1.08C409.93,202.67,409.41,203.25,408.91,203.77Zm3.12-3.44-1.1-1.07c.51-.57,1-1.15,1.52-1.73l1.11,1.06Q412.8,199.48,412,200.33Zm3-3.5L414,195.78c.51-.59,1-1.18,1.49-1.76l1.12,1Zm3-3.55-1.13-1,1.48-1.79,1.13,1ZM421,189.7l-1.14-1,1.46-1.8,1.14,1Z"/><path d="M154.1,64.21h1c0,.33,0,.33,0,.9,0,3,0,4.4,0,5.08v0c0,.19-.08.22-.52.22-.2,0-.23,0-.23-.17v-.57h-4.58v.55c0,.08,0,.12-.06.14a1.33,1.33,0,0,1-.41.05c-.22,0-.28,0-.28-.16l0-1v-.6l0-3.41c0-.45,0-.74,0-1l1.17,0Zm.3.65h-4.58V69h4.58Z"/><path d="M161.46,66.78c2,0,3.77,0,4.33-.08h.06c.09,0,.13.07.13.25,0,.47,0,.54-.14.54h-.05c-.2,0-1.1,0-1.79,0l-3.5,0a13.23,13.23,0,0,0-1.92.09h-.08a.12.12,0,0,1-.12-.09,4.07,4.07,0,0,1-.1-.81A26.63,26.63,0,0,0,161.46,66.78Z"/><path d="M169.7,64.46a8.19,8.19,0,0,1,1,1.77c0,.07-.06.12-.29.25a.71.71,0,0,1-.29.13.12.12,0,0,1-.11-.08,10.36,10.36,0,0,0-1.2-2,.14.14,0,0,1-.05-.1c0-.06.08-.13.28-.27a.63.63,0,0,1,.25-.12C169.36,64,169.44,64.1,169.7,64.46Zm5.84-.19s0,.07-.07.13-.12.17-.35.83a10.47,10.47,0,0,1-3.35,5.11,4,4,0,0,1-1,.69c-.05,0-.07,0-.12-.06a1.9,1.9,0,0,0-.57-.32,9.19,9.19,0,0,0,2.62-2.34,9.48,9.48,0,0,0,1.87-4.46C175.28,64,175.54,64.13,175.54,64.27Z"/><path d="M181,66.13a.16.16,0,0,1-.11-.07,7.87,7.87,0,0,0-1.62-1.31c-.22-.13-.23-.14-.23-.19a1,1,0,0,1,.25-.37c.08-.1.13-.13.2-.13a6.57,6.57,0,0,1,2,1.52C181.48,65.7,181.11,66.13,181,66.13Zm4.81-.53a.24.24,0,0,1,.05.14,8.09,8.09,0,0,1-1.81,2.1,13.11,13.11,0,0,1-3.78,2.33,2.86,2.86,0,0,0-.58.31.23.23,0,0,1-.13.07c-.12,0-.36-.38-.52-.82a9.29,9.29,0,0,0,2.53-1,12,12,0,0,0,2.25-1.64,9.36,9.36,0,0,0,1.7-2.09A2.87,2.87,0,0,0,185.81,65.6Z"/><path d="M218,63.33a6.53,6.53,0,0,1-2.83.93,1.59,1.59,0,0,0-.14-.58,4.71,4.71,0,0,0,1.4-.23,4,4,0,0,0,1.28-.61Zm-.12-.84a5.83,5.83,0,0,0-.68-.33c.13-.2.21-.33.36-.6l.47-.86a5.27,5.27,0,0,0,.31-.65,5.49,5.49,0,0,0,.66.39l3.3,1.8a4.34,4.34,0,0,0,.72.35,5,5,0,0,0-.39.62l-.46.86c-.14.26-.21.4-.31.62-.21-.14-.38-.24-.67-.4l-1.33-.72-1.15,2.1c-.23.43-.5.46-1.14.12l-.73-.43a1.6,1.6,0,0,0,.15-.58,6.58,6.58,0,0,0,.78.52c.33.18.41.18.49,0l1.11-2Zm3.25-2.66a4.33,4.33,0,0,0,.3-.67l.59.33a4,4,0,0,0-.4.61l-.15.28,2.34,1.27a5,5,0,0,0,.87.4l-.3.55a4.62,4.62,0,0,0-.79-.5l-5-2.74a4.82,4.82,0,0,0-.84-.4l.3-.54a6.22,6.22,0,0,0,.81.51L221,60.11ZM218,62l3.65,2,.65-1.2-3.65-2Zm3,2.63a4.9,4.9,0,0,0,.22,1.36,5.53,5.53,0,0,0,.62,1.37,1.8,1.8,0,0,0-.58.23,7.4,7.4,0,0,1-.52-1.31,8.68,8.68,0,0,1-.3-1.62Z"/><path d="M227,63.46a7.34,7.34,0,0,0-.89-.42l.31-.57a5.18,5.18,0,0,0,.82.52l4.37,2.38a5.75,5.75,0,0,0,.91.43l-.31.57a6.34,6.34,0,0,0-.86-.53l-2-1.08-1.1,2,1.59.86a4.7,4.7,0,0,0,.82.39l-.29.54c-.2-.14-.44-.28-.78-.47L228,67.25l-1.3,2.39L229,70.88a8.5,8.5,0,0,0,.87.41l-.32.58a5.31,5.31,0,0,0-.8-.52l-4.92-2.67a5.55,5.55,0,0,0-.92-.43l.32-.58a6.45,6.45,0,0,0,.86.53l2.1,1.15,1.3-2.4L226,66.16c-.34-.18-.6-.31-.83-.41l.29-.54a4.75,4.75,0,0,0,.78.49l1.45.79,1.11-2Z"/><path d="M234.15,68.65a6.22,6.22,0,0,0-.85-.4l.31-.56a4.8,4.8,0,0,0,.78.5l.94.51.37-.68a8.55,8.55,0,0,0,.37-.79l.58.32a4.59,4.59,0,0,0-.47.75l-.36.67,2.05,1.12.36-.66a4.44,4.44,0,0,0,.38-.82l.6.34a4.57,4.57,0,0,0-.49.76l-.35.65.88.48a6.47,6.47,0,0,0,.83.38l-.3.56a4.56,4.56,0,0,0-.78-.48l-.88-.48-1.08,2,1.06.58a7.13,7.13,0,0,0,.83.39l-.31.56a4.5,4.5,0,0,0-.77-.49l-1.06-.58-.85,1.54a5.92,5.92,0,0,0-.41.9l-.6-.34a6.13,6.13,0,0,0,.51-.83l.85-1.55-2.18-1.18a4.17,4.17,0,0,1-1.4,1.19,4.49,4.49,0,0,1-1.47.45,2,2,0,0,0-.17-.63,3.77,3.77,0,0,0,1.48-.4,3.18,3.18,0,0,0,1-.89l-1-.57a4.89,4.89,0,0,0-.81-.37l.31-.56a5.93,5.93,0,0,0,.75.47l1.12.61a15,15,0,0,0,.89-1.45l.27-.5ZM235.27,70a15.34,15.34,0,0,1-.86,1.41l2.13,1.16,1.08-2-2.05-1.12Z"/><path d="M242.84,76.34c-1,.79-1.83,1-2.43.71a1.27,1.27,0,0,1-.6-1,2.78,2.78,0,0,1,.39-1.45,3.45,3.45,0,0,1,2.63-1.81,3.86,3.86,0,0,1,2.37.5,3,3,0,0,1,1.43,4.18,3.24,3.24,0,0,1-2.82,1.7,3.74,3.74,0,0,1-1.23-.08c-.05,0-.07-.07-.08-.17a1.35,1.35,0,0,0-.19-.49,4.73,4.73,0,0,0,1.53.15,2.73,2.73,0,0,0,2.25-1.43,2.33,2.33,0,0,0-.15-2.59,2.49,2.49,0,0,0-.79-.69A11.76,11.76,0,0,1,242.84,76.34Zm.52-3.06a3,3,0,0,0-2.67,1.6c-.39.71-.37,1.38.05,1.61s.9,0,1.65-.6a10.18,10.18,0,0,0,2.2-2.32A3.29,3.29,0,0,0,243.36,73.28Z"/><path d="M246.67,80.79a10.5,10.5,0,0,0,1.83.58,8.94,8.94,0,0,0,1.55-1.45l.41.4a11.77,11.77,0,0,1-1.38,1.18c.34.07.51.11,1,.2l-.23.44c-1.07-.19-2.14-.43-3-.68l-.35-.07Zm1.22.06a7.23,7.23,0,0,0,.26-1.72l.52.08a8.71,8.71,0,0,1-.25,1.72Zm1.3-3.71a7.12,7.12,0,0,0,.34-.69c.19.13.35.23.67.41l1,.56a7,7,0,0,0,.71.34,4.82,4.82,0,0,0-.4.64l-.48.89a6.9,6.9,0,0,0-.34.69,5.45,5.45,0,0,0-.65-.4L249,79a4.89,4.89,0,0,0-.71-.34,6.66,6.66,0,0,0,.43-.71ZM251.32,83a6.6,6.6,0,0,1-2.23.25,1.77,1.77,0,0,0-.16-.57,4.65,4.65,0,0,0,2.13-.18ZM249,78.49l1.45.79.74-1.35-1.45-.79Zm.87-3.44a4.15,4.15,0,0,0,.75.47l1.35.73a4.29,4.29,0,0,0,.78.37l-.28.51a5.68,5.68,0,0,0-.72-.44l-1.38-.75a5.58,5.58,0,0,0-.78-.37Zm3.66,2.63a5.57,5.57,0,0,0-.77-.37l.28-.51a5.09,5.09,0,0,0,.75.47l2,1.07a4.49,4.49,0,0,0,.79.37l-.28.51a6,6,0,0,0-.72-.44l-.87-.47c-.23.21-.55.48-.76.65l.91.5a5.72,5.72,0,0,0,.71.34c-.13.2-.24.37-.4.67l-1.32,2.43c-.15.28-.26.49-.37.73l-.63-.38-1.78-1c-.22-.12-.37-.19-.66-.33.14-.22.28-.47.41-.7l1.31-2.41a5.79,5.79,0,0,0,.35-.72,6.73,6.73,0,0,0,.65.38l.34.19a5.92,5.92,0,0,0,.75-.66Zm-2.45,4.1,2.14,1.16.42-.76L251.52,81Zm.62-1.15,2.15,1.17.39-.72-2.14-1.17Zm.79,2.6a5.45,5.45,0,0,0,.93,1.89,2.5,2.5,0,0,0-.59.21,7.36,7.36,0,0,1-.87-2Zm-.19-3.71,2.15,1.17.39-.71-2.15-1.17Z"/><path d="M256.49,83.73a9,9,0,0,1-1.63,2l-.3-.42a7.75,7.75,0,0,0,1.55-1.87Zm-.34-1.42a1.89,1.89,0,0,0,.28.17l.33.17.41-.18.51-.25a11.11,11.11,0,0,0-.5-1.78l.47-.2.17.54a5.69,5.69,0,0,0,1.53-1l.36.45a2.27,2.27,0,0,0-.34.21,10.83,10.83,0,0,1-1.43.83c.07.27.1.43.17.78a7.82,7.82,0,0,0,1.5-.93l.31.48-.92.5c-.52.28-.84.44-1.75.85.58.26.76.34,1.23.53a7.46,7.46,0,0,0,.07-.79l.42,0a8.86,8.86,0,0,1-.2,1.64l-.47,0c.06-.2.07-.28.11-.42l-.74-.29-1.37,2.5a5.46,5.46,0,0,0-.36.79l-.54-.29a6,6,0,0,0,.46-.74l1.35-2.46L256.3,83a2.37,2.37,0,0,0-.34-.13Zm3.79,3.17-.49.39a6.43,6.43,0,0,1-1.29.76A6.7,6.7,0,0,1,257,87a1.26,1.26,0,0,0-.14-.52,4.4,4.4,0,0,0,2.5-1.05l-.5-.27a3.45,3.45,0,0,0-.53-.25l.26-.47a2.91,2.91,0,0,0,.5.32l.4.22a2,2,0,0,0,.41.18Zm-1.89-1a9.6,9.6,0,0,1-.48,1.63l-.46-.08a9,9,0,0,0,.52-1.63ZM261.8,82a4.12,4.12,0,0,0,.62-.58l.46.38a6.25,6.25,0,0,1-.6.45l1,.53a6.69,6.69,0,0,0,.74.36,6.74,6.74,0,0,0-.43.7L262.89,85a6.34,6.34,0,0,0-.35.71,5.51,5.51,0,0,0-.7-.42l-.76-.41a4.62,4.62,0,0,0-.15,1.51,7.11,7.11,0,0,0,1.48-.49l.17.51a14.2,14.2,0,0,1-1.62.45,5.45,5.45,0,0,0,.61,2.1,1.59,1.59,0,0,0-.55.26,5.86,5.86,0,0,1-.44-1.45,5.58,5.58,0,0,1,.07-2.29c-.31.7-.5,1.11-.69,1.45l-.52,1c-.22.41-.47.45-1,.14-.14-.07-.43-.25-.56-.33a2,2,0,0,0,.14-.56,5.31,5.31,0,0,0,.68.47c.2.1.27.1.34,0l1.61-3-.71-.39a6.69,6.69,0,0,0-.74-.36,6.29,6.29,0,0,0,.41-.69l.67-1.22a7.57,7.57,0,0,0,.35-.72,7.49,7.49,0,0,0,.7.42Zm-1.94,1.77,2.45,1.33.38-.7L260.25,83Zm.6-1.1L262.9,84l.38-.69-2.44-1.34Z"/><path d="M300.21,110.55a4,4,0,0,0,0-.6h.52a3.83,3.83,0,0,0-.05.6v.33h1.42a6.16,6.16,0,0,0,.7,0v.46a4.52,4.52,0,0,0-.68,0h-1.44v1.37h2.1a4.39,4.39,0,0,0,.7,0v.48a3.72,3.72,0,0,0-.7,0h-4.5a3.83,3.83,0,0,0-.7,0v-.48a4.34,4.34,0,0,0,.71,0h2v-1.37h-1.35a4.66,4.66,0,0,0-.69,0v-.46a4.49,4.49,0,0,0,.69,0h1.35Zm-1.87-2.62a5,5,0,0,0-.71,0v-.47a6.22,6.22,0,0,0,.71,0h4.31a6.37,6.37,0,0,0,.71,0V108a4.55,4.55,0,0,0-.7,0h-2.48a8.92,8.92,0,0,1-.82,1.5c.84,0,1.82-.09,2.64-.19a6.81,6.81,0,0,0-.77-.71l.32-.22a10.84,10.84,0,0,1,1.59,1.59l-.34.28c-.23-.3-.31-.4-.49-.61-1.06.13-2.58.25-3.58.28a5.11,5.11,0,0,0-.84.05l-.07-.47c.14,0,.24,0,.54,0h.52a8.14,8.14,0,0,0,.82-1.51Z"/><path d="M306.85,109a7.41,7.41,0,0,1,1.16.85l-.27.37a5.72,5.72,0,0,0-1.15-.91Zm1.19,2.22a11.76,11.76,0,0,1-.88,1.81,1.6,1.6,0,0,0-.15.25l-.39-.35a5.88,5.88,0,0,0,1.06-2Zm-.8-3.83a5.84,5.84,0,0,1,1.08.88l-.28.34a5.65,5.65,0,0,0-1.08-.93Zm4.68,2.21a4.25,4.25,0,0,0,.69,0V110a4.44,4.44,0,0,0-.68,0h-3.14a5.67,5.67,0,0,0-.65,0v-.44a5.14,5.14,0,0,0,.64,0H309v-1.2a3.33,3.33,0,0,0-.05-.59h.5a3.34,3.34,0,0,0,0,.59v1.2h.85v-1.74a3.22,3.22,0,0,0,0-.58h.5a3.27,3.27,0,0,0,0,.59v.34h1a3.52,3.52,0,0,0,.61,0v.46a2.9,2.9,0,0,0-.61,0h-1v1Zm-1.81,2.61a9.09,9.09,0,0,1-1.47.93,2.62,2.62,0,0,0-.26.14l-.23-.45a3.16,3.16,0,0,0,.72-.3,6.86,6.86,0,0,0,1.09-.72Zm-1.26-2a7.88,7.88,0,0,1,1.23.92l-.29.33a5.69,5.69,0,0,0-1.23-.93Zm1.7,1a5,5,0,0,0,.75-.56,2.37,2.37,0,0,0,.49-.52l.37.28a7.91,7.91,0,0,1-1.32,1.12Zm1.7,2.05a8,8,0,0,0-1.69-1.19l.28-.28a10.22,10.22,0,0,1,1.67,1.07Z"/><path d="M316.83,108.55a4.5,4.5,0,0,0,1.16,1.36,6.13,6.13,0,0,0,1.76,1.07,2.11,2.11,0,0,0-.26.4,7.69,7.69,0,0,1-1-.59v1.8a4.49,4.49,0,0,0,0,.69H318v-.38h-2.81v.38h-.47a4.58,4.58,0,0,0,0-.69v-1.77a7.37,7.37,0,0,1-1,.6,1.53,1.53,0,0,0-.27-.38,5.89,5.89,0,0,0,1.65-1,4.46,4.46,0,0,0,1.18-1.45Zm-.8-1a4.7,4.7,0,0,1-1.08,1.2,5.27,5.27,0,0,1-.88.58,1.57,1.57,0,0,0-.31-.35,6.54,6.54,0,0,0,1.08-.7,3.15,3.15,0,0,0,.81-1Zm1.89,3.09h.27a7.83,7.83,0,0,1-.86-.75,5.12,5.12,0,0,1-.73-.94,6,6,0,0,1-1.52,1.69h2.84Zm-2.71,1.91H318V111h-2.81Zm2.34-5.27a4.83,4.83,0,0,0,1.11,1.14,6.47,6.47,0,0,0,.85.51,1.7,1.7,0,0,0-.28.39,6.34,6.34,0,0,1-2-1.79Z"/><path d="M298,241.29a4.33,4.33,0,0,0-.64.3l-.18-.44a5.39,5.39,0,0,0,.67-.23l4-1.61c.28-.12.47-.21.64-.3l.17.44a4.2,4.2,0,0,0-.66.22l-2.3.93a8.15,8.15,0,0,1-.2,1.69,26.14,26.14,0,0,0,2.38-1.15,7.73,7.73,0,0,0-1-.38l.21-.32a10.15,10.15,0,0,1,2.07.87l-.21.39-.68-.38c-.93.52-2.29,1.2-3.22,1.6a6.9,6.9,0,0,0-.75.36l-.25-.41a4.79,4.79,0,0,0,.51-.18l.48-.2a7.53,7.53,0,0,0,.19-1.71Zm2.71,1.73a3.82,3.82,0,0,0-.26-.54l.48-.19a3.3,3.3,0,0,0,.18.56l.12.31,1.32-.53a6.77,6.77,0,0,0,.64-.3l.17.42a4,4,0,0,0-.65.23l-1.33.53.51,1.27,1.94-.78a6.52,6.52,0,0,0,.64-.31l.18.44a5.37,5.37,0,0,0-.67.23L299.81,246a3.82,3.82,0,0,0-.64.31l-.18-.44a6.07,6.07,0,0,0,.68-.23l1.82-.74-.51-1.26-1.26.5a6.25,6.25,0,0,0-.62.29l-.17-.42a4.53,4.53,0,0,0,.65-.22l1.25-.51Z"/><path d="M306,237.41a6.26,6.26,0,0,1,1.33.42l-.13.42a5.82,5.82,0,0,0-1.35-.46Zm.24,1.64a8,8,0,0,1,1.4.36l-.12.44a6,6,0,0,0-1.4-.41Zm1.94,1.62a12.35,12.35,0,0,1-.14,2,1.23,1.23,0,0,0,0,.29l-.5-.19a5.52,5.52,0,0,0,.24-2.23Zm3-3a4.7,4.7,0,0,0,.62-.29l.18.42a6.33,6.33,0,0,0-.66.22l-2.9,1.18a5,5,0,0,0-.59.27l-.17-.41a4,4,0,0,0,.6-.21l.2-.08L308,237.7a4.38,4.38,0,0,0-.26-.53l.46-.18a4.36,4.36,0,0,0,.18.56l.45,1.11.79-.32-.65-1.61a3.28,3.28,0,0,0-.26-.53l.46-.19a3.43,3.43,0,0,0,.19.57l.12.32.94-.38a3.53,3.53,0,0,0,.55-.27l.17.43a2.67,2.67,0,0,0-.59.19l-.93.37.38.94Zm-2.61,1.74a8,8,0,0,1,1.49.39l-.15.42a5.5,5.5,0,0,0-1.5-.41Zm1.9,1.36a8.82,8.82,0,0,1-1,1.41,2.49,2.49,0,0,0-.19.23l-.37-.33a2.79,2.79,0,0,0,.54-.55,6.89,6.89,0,0,0,.75-1.07Zm.05-1.05A4,4,0,0,0,311,239a2.32,2.32,0,0,0,.26-.65l.45.11a7.34,7.34,0,0,1-.81,1.53Zm2.35,1.26a8.65,8.65,0,0,0-2-.47l.15-.37a10.7,10.7,0,0,1,2,.38Z"/><path d="M314.24,234.27a5,5,0,0,1-.55,1.52,5.32,5.32,0,0,1-.6.86,1.74,1.74,0,0,0-.42-.2,6.11,6.11,0,0,0,.74-1.06,3.13,3.13,0,0,0,.38-1.21Zm1.13.67a4.71,4.71,0,0,0,1.59.83,6.49,6.49,0,0,0,2,.33,3.56,3.56,0,0,0-.1.47,7.72,7.72,0,0,1-1.18-.17c0,.08.06.14.13.34l.55,1.34a5.33,5.33,0,0,0,.29.62l-.44.18-.14-.35-2.6,1.05.14.35-.44.17a4.74,4.74,0,0,0-.21-.65l-.54-1.32c-.06-.16-.08-.2-.13-.32a5.87,5.87,0,0,1-.7.92,1.92,1.92,0,0,0-.38-.25,6.13,6.13,0,0,0,1.14-1.58,4.51,4.51,0,0,0,.55-1.78Zm1.78,1.49.25-.1a6.27,6.27,0,0,1-1.08-.38,4.67,4.67,0,0,1-1-.59,5.76,5.76,0,0,1-.78,2.13l.2-.08Zm-1.8,2.79,2.61-1.05-.57-1.42-2.61,1.05Zm.2-5.76a4.81,4.81,0,0,0,1.45.63,7.13,7.13,0,0,0,1,.16,2.71,2.71,0,0,0-.11.47,6.56,6.56,0,0,1-2.56-.9Z"/><path d="M5.31,20.68a6,6,0,0,0,0-.61l.51.07a4.72,4.72,0,0,0-.12.59l0,.32,1.41.2c.28,0,.51.05.7.06l-.06.45a4.85,4.85,0,0,0-.68-.13l-1.42-.19-.18,1.35,2.07.28a5.2,5.2,0,0,0,.71.06l-.07.47a3.63,3.63,0,0,0-.69-.14L3,22.85a3.49,3.49,0,0,0-.7-.05l.06-.47a5.58,5.58,0,0,0,.7.13l2,.27.18-1.35-1.34-.19a6,6,0,0,0-.68-.05l.06-.45a6,6,0,0,0,.67.12L5.26,21Zm-1.5-2.86a6.72,6.72,0,0,0-.71-.05l.07-.47a5.06,5.06,0,0,0,.69.13L8.14,18a5,5,0,0,0,.7.05l-.06.47a5.38,5.38,0,0,0-.69-.13l-2.46-.34a8.78,8.78,0,0,1-1,1.38c.83.09,1.81.16,2.64.17a7.53,7.53,0,0,0-.67-.81l.35-.18A11,11,0,0,1,8.3,20.42l-.38.23c-.18-.33-.25-.44-.4-.67-1.06,0-2.59-.1-3.59-.2a7.26,7.26,0,0,0-.83-.07v-.47c.14,0,.24.05.54.09l.51.06a8.79,8.79,0,0,0,1-1.38Z"/><path d="M12.81,19.17a6,6,0,0,0-.78-.06l.06-.5a6.81,6.81,0,0,0,.78.15l4.31.58a5.06,5.06,0,0,0,.78.07l-.07.5a5.54,5.54,0,0,0-.77-.15L15,19.48l-.11.75a14.81,14.81,0,0,1,2.18,1.68l-.32.39a9.1,9.1,0,0,0-1.28-1.13l-.64-.46-.43,3.14a5.24,5.24,0,0,0-.06.79l-.56-.08a4.7,4.7,0,0,0,.15-.78l.6-4.37Z"/><path d="M19.45,21.39a2.6,2.6,0,0,0-.59,0l.06-.48a3.42,3.42,0,0,0,.59.12l1.15.16.12-.91a4.83,4.83,0,0,0,0-.69l.52.07a3.41,3.41,0,0,0-.13.68l-.61,4.47a3.36,3.36,0,0,0-.06.71L20,25.41a4.08,4.08,0,0,0,.14-.7l.11-.84a15.22,15.22,0,0,1-1.56.54l-.27.09L18.33,24a2.79,2.79,0,0,0,.62-.12,12.25,12.25,0,0,0,1.4-.49l.25-1.86Zm2.67,3.4c0,.12,0,.18.08.23a2.09,2.09,0,0,0,.62.14c.58.08.79.05.91-.11A3.3,3.3,0,0,0,24,23.93a1.27,1.27,0,0,0,.39.26,2.19,2.19,0,0,1-.51,1.3c-.18.14-.48.16-1.14.07-1-.14-1.17-.27-1.11-.73l.6-4.39a3.24,3.24,0,0,0,.05-.69l.51.07a4.59,4.59,0,0,0-.13.68l-.22,1.6A10.59,10.59,0,0,0,24,21.36a2,2,0,0,0,.43-.33l.29.41-.27.16a11.56,11.56,0,0,1-2,1Z"/><path d="M27,24.19a10.44,10.44,0,0,1-1.09,1.61l-.22.29-.33-.4a5.79,5.79,0,0,0,1.33-1.8Zm-.91-2.31a6.67,6.67,0,0,1,1,1l-.31.34a5,5,0,0,0-1-1.08Zm.61-1.53a6.58,6.58,0,0,1,1,1l-.33.32a4.92,4.92,0,0,0-1-1.11Zm3.13,3.11a4.9,4.9,0,0,0,.25,1.37,3.94,3.94,0,0,0,1.1,1.65,1.5,1.5,0,0,0-.38.34,5,5,0,0,1-1.41-3.42l-1-.14a6.93,6.93,0,0,1-.55,1.79,3.85,3.85,0,0,1-.89,1.25,1.29,1.29,0,0,0-.31-.36,3.17,3.17,0,0,0,.8-1.08,10.62,10.62,0,0,0,.75-3.05c.05-.39.09-.74.11-1,.22.05.4.08.73.13l1.82.25a5.6,5.6,0,0,0,.71.06,7.13,7.13,0,0,0-.13.72l-.14,1a4.86,4.86,0,0,0-.06.72,5.22,5.22,0,0,0-.67-.12Zm.95-.25L31,21.57l-2.35-.32-.05.42c-.06.38-.11.73-.19,1.21Z"/><path d="M108.8,354.09a4.82,4.82,0,0,0-.55.43l-.27-.39a3.79,3.79,0,0,0,.6-.37l3.56-2.44a5.63,5.63,0,0,0,.56-.43l.27.39a5,5,0,0,0-.61.36l-2,1.4a8.66,8.66,0,0,1,.17,1.7,23.81,23.81,0,0,0,2.08-1.64,7.42,7.42,0,0,0-1-.15l.13-.37a11.56,11.56,0,0,1,2.22.41l-.13.43c-.36-.12-.48-.16-.75-.23-.79.71-2,1.67-2.79,2.26a5.58,5.58,0,0,0-.66.51l-.33-.34a4.57,4.57,0,0,0,.46-.29l.42-.3a7.65,7.65,0,0,0-.18-1.71Zm3,1.1a5.45,5.45,0,0,0-.37-.47l.42-.29a3.48,3.48,0,0,0,.31.51l.18.27,1.17-.8a4.44,4.44,0,0,0,.56-.43l.26.38a5.22,5.22,0,0,0-.59.36l-1.18.81.77,1.13,1.73-1.19a6.62,6.62,0,0,0,.56-.43l.27.39a4.58,4.58,0,0,0-.61.36l-3.71,2.55a5.45,5.45,0,0,0-.56.43l-.27-.39a4.15,4.15,0,0,0,.62-.37L113,356.9l-.77-1.12-1.11.76a6,6,0,0,0-.55.42l-.26-.38a3.75,3.75,0,0,0,.59-.36l1.11-.76Z"/><path d="M116.26,349.06a6.65,6.65,0,0,0,.75-.45l2.28-1.56a5.86,5.86,0,0,0,.7-.54l.3.45a5.89,5.89,0,0,0-.75.46L117.26,349a7.1,7.1,0,0,0-.69.52Zm6.81.78a6.37,6.37,0,0,0-.76.46L119,352.56a6,6,0,0,0-.71.55l-.31-.46a4.71,4.71,0,0,0,.76-.46l3.29-2.26a5.59,5.59,0,0,0,.71-.55Z"/><path d="M124.63,345.13c-.1-.14-.18-.24-.28-.36l.26-.17a6.62,6.62,0,0,0,.64-1.78l-2.68,1.84a6.14,6.14,0,0,0-.53.42l-.28-.4a4.69,4.69,0,0,0,.59-.36l2.63-1.8a4,4,0,0,0,.41-.31l.4.09c0,.19-.05.2-.07.31a8.31,8.31,0,0,1-.78,2.18l.31.45,1.55-1.07a4.59,4.59,0,0,0,.66-.5l.28.41a6.4,6.4,0,0,0-.7.43l-1.56,1.07,1.27,1.85c.26.38.19.56-.32.91l-.72.44a1.87,1.87,0,0,0-.37-.33,5.65,5.65,0,0,0,.85-.47c.21-.15.25-.21.16-.34l-1.24-1.81L123.46,347a5.92,5.92,0,0,0-.66.5l-.28-.41a7.05,7.05,0,0,0,.72-.44l1.64-1.13Z"/><path d="M128.15,341a5.93,5.93,0,0,0-.61.46l-.29-.42a5,5,0,0,0,.66-.39l3.17-2.18a4.65,4.65,0,0,0,.63-.49l.29.42a5.07,5.07,0,0,0-.67.41l-1.48,1,1,1.4,1.21-.83a3.4,3.4,0,0,0,.55-.43l.28.4a6.62,6.62,0,0,0-.59.37l-1.21.83,1.26,1.85,1.72-1.18a4.54,4.54,0,0,0,.58-.45l.29.43a4.39,4.39,0,0,0-.64.38l-3.59,2.46c-.27.19-.44.33-.62.48l-.29-.42a4.67,4.67,0,0,0,.67-.41l1.51-1-1.27-1.85-1,.71c-.27.18-.41.29-.58.42l-.27-.39a4.67,4.67,0,0,0,.61-.37l1-.71-1-1.4Zm3.93.27a9.18,9.18,0,0,1,1.63.47l-.13.43a8.56,8.56,0,0,0-1.64-.5Z"/><path d="M134.7,337.93c1.13,1.65,1.48,2.59,1.41,3.82a1.77,1.77,0,0,0-.52-.08c.14-1-.18-1.9-1.27-3.5l-.75-1.09a2.85,2.85,0,0,0-.38-.47l.45-.31a2.81,2.81,0,0,0,.31.54Zm.83-2.6a3.79,3.79,0,0,0,.32.55l2,2.92a4,4,0,0,0,.47.61l-.45.3a5.17,5.17,0,0,0-.39-.65l-2-2.93a3.82,3.82,0,0,0-.39-.5Zm1.64-1.44a3.32,3.32,0,0,0,.34.57l2.47,3.6a5.26,5.26,0,0,0,.51.67l-.44.31a5,5,0,0,0-.44-.72l-2.47-3.6a4.28,4.28,0,0,0-.41-.52Z"/><path d="M70,138.73a8.56,8.56,0,0,1-.69,3.08l-.51-.31a6.9,6.9,0,0,0,.66-2.9Zm2-1.16h.76a6.56,6.56,0,0,0,1.07,0,6.22,6.22,0,0,0-.05.74,19.37,19.37,0,0,1-.31,3.2c-.17.75-.38.92-1.1.92a6.61,6.61,0,0,1-.88-.07v-.1a2.31,2.31,0,0,0-.12-.62,5.23,5.23,0,0,0,1,.16c.37,0,.48-.17.6-1a19.91,19.91,0,0,0,.16-2.37v-.22H70.43c-.39,0-.75,0-1,0,0-.28,0-.54,0-1.19v-4.07c0-.09,0-.21,0-.44a7.71,7.71,0,0,0,1.27.06h1.63a8.44,8.44,0,0,0,1.18-.06v.72a7.24,7.24,0,0,0-1.08-.06h-.45v1.07h.3a5.15,5.15,0,0,0,1-.06v.68a5.34,5.34,0,0,0-1-.06h-.3v1.07h.29a6.6,6.6,0,0,0,1-.05v.66a8.77,8.77,0,0,0-1,0h-.29Zm-.6-4.43H70.05v1.07h1.28Zm0,1.63H70.05v1.07h1.28Zm-1.28,1.63v1.17h1.28V136.4Zm.71,2.32a20.34,20.34,0,0,1,.2,2.56l-.58.09c0-.21,0-.39,0-.49a18.55,18.55,0,0,0-.12-2.09Zm.8-.05a16.62,16.62,0,0,1,.41,2.08l-.51.16a10.55,10.55,0,0,0-.36-2.13Zm.74-.11a8,8,0,0,1,.47,1.55l-.43.17a8.6,8.6,0,0,0-.43-1.59Zm5.75-5.1a8.32,8.32,0,0,0,1,0,11.63,11.63,0,0,0-.06,1.51,46,46,0,0,1-.26,5.78,2,2,0,0,1-.63,1.44,2.33,2.33,0,0,1-1.35.24H76a2.09,2.09,0,0,0-.2-.77,5.24,5.24,0,0,0,1.1.1c.72,0,.95-.13,1.08-.63a18.36,18.36,0,0,0,.3-3.18c0-.53,0-1.68,0-3.77H74.9a7.6,7.6,0,0,1-1.17,1.9,1.82,1.82,0,0,0-.54-.48,5.69,5.69,0,0,0,1.2-1.94,7.1,7.1,0,0,0,.45-1.57l.75.2c-.07.19-.12.3-.23.63s-.12.37-.2.59ZM77.2,139c0,.28,0,.44,0,.69a5.39,5.39,0,0,0-.78,0H75.06v1h-.72a8.92,8.92,0,0,0,0-1v-3.34c0-.38,0-.58,0-.8a6,6,0,0,0,.91,0h1a5.73,5.73,0,0,0,.92-.05c0,.28,0,.47,0,.81Zm-2.15,0h1.49v-2.87H75.05Z"/><path d="M82.43,133.52a8.47,8.47,0,0,0-.07-1.27h.84a8.88,8.88,0,0,0-.06,1.27v1.6h.29a6,6,0,0,0,.95-.05v.75a7.92,7.92,0,0,0-1,0h-.28v3a9.88,9.88,0,0,0,1-.58l0,.68a20.86,20.86,0,0,1-2.39,1.31c-.17.07-.5.24-.61.3l-.22-.82a5.83,5.83,0,0,0,1.49-.55v-3.3h-.49a5.93,5.93,0,0,0-1,.06v-.77a5.89,5.89,0,0,0,1,.06h.47Zm3.24,5.26a7.36,7.36,0,0,1-1.94,1.54,2,2,0,0,0-.46-.53,5.39,5.39,0,0,0,2.65-2.43h-.68a7.78,7.78,0,0,0-1,.06v-.73a5.39,5.39,0,0,0,1,.06h4.92a6.14,6.14,0,0,0,1.14-.07v.73a10.6,10.6,0,0,0-1.14,0H86.66a8,8,0,0,1-.54.85h3.81a9.74,9.74,0,0,0,1.13-.05,4.66,4.66,0,0,0-.06.68,11.89,11.89,0,0,1-.5,3.07c-.22.41-.5.53-1.28.53a9.27,9.27,0,0,1-1-.05,2.13,2.13,0,0,0-.23-.74,9.23,9.23,0,0,0,1.32.13c.41,0,.54-.08.63-.38a11.5,11.5,0,0,0,.35-2.62h-.75a7.1,7.1,0,0,1-1,1.74,11.12,11.12,0,0,1-1.41,1.42,7.75,7.75,0,0,1-.94.64,1.81,1.81,0,0,0-.53-.54,7.14,7.14,0,0,0,2.26-1.75,6,6,0,0,0,1-1.51H87.69a7.94,7.94,0,0,1-3.17,2.88,1.77,1.77,0,0,0-.49-.54,6.62,6.62,0,0,0,2.9-2.34ZM86,136a9.28,9.28,0,0,0-1,0,10.24,10.24,0,0,0,0-1v-1.5a8.91,8.91,0,0,0,0-1,6.76,6.76,0,0,0,1.1.06h3a8,8,0,0,0,1.2-.06,9.9,9.9,0,0,0,0,1.07V135a7.62,7.62,0,0,0,0,1c-.24,0-.6,0-1.06,0Zm-.32-2h3.87v-.83H85.7Zm0,1.45h3.87v-.89H85.7Z"/><path d="M93.83,138.26c0-.37,0-.71,0-1.18a8.56,8.56,0,0,1-1,1.49,1.82,1.82,0,0,0-.37-.53,8.71,8.71,0,0,0,1.35-2.13,7.72,7.72,0,0,0,.69-2.14l.66.18c-.11.3-.11.3-.29.87-.13.4-.19.56-.51,1.37v5.2c0,.46,0,.8,0,1.13h-.71a9,9,0,0,0,.06-1.15Zm1.23.44a5.46,5.46,0,0,0,0-.62c.28,0,.48,0,.91,0h4.38a9.46,9.46,0,0,0,1.1-.05,6,6,0,0,0,0,.64V139a3.37,3.37,0,0,0,0,.58h-.63v-1H95.63v1H95a5.22,5.22,0,0,0,0-.58Zm2.85-4.26a3.87,3.87,0,0,0,0-.64h.7a3.78,3.78,0,0,0,0,.64v.2h1.88a6.13,6.13,0,0,0,1-.06v.63a6.23,6.23,0,0,0-.91-.05H96.22a6.4,6.4,0,0,0-.91.05v-.63a6,6,0,0,0,.93.06h1.67Zm-1.11,5.47a7,7,0,0,0-.94.05v-.62a6.51,6.51,0,0,0,.93,0h2.85a7.09,7.09,0,0,0,.94,0V140a7.23,7.23,0,0,0-1-.05h-.94v1.73c0,.56-.2.71-1,.71-.41,0-.66,0-1,0a2.08,2.08,0,0,0-.14-.62,6.92,6.92,0,0,0,1.12.11c.33,0,.4,0,.4-.25v-1.64ZM96,136.34a4.92,4.92,0,0,0,0-.67c.24,0,.55,0,.9,0h2.85c.35,0,.65,0,.89,0a4.49,4.49,0,0,0,0,.64v.63a4.08,4.08,0,0,0,0,.61,7,7,0,0,0-.91,0H96.84a7.67,7.67,0,0,0-.91,0,4.78,4.78,0,0,0,0-.66Zm.57.69H100v-.84H96.54Z"/><path d="M104.17,137.2a15,15,0,0,0,1.87-.66,6.36,6.36,0,0,0-.71-.92l.48-.23a6.81,6.81,0,0,1,1.19,1.83l-.51.26c-.1-.24-.13-.32-.21-.49a22.61,22.61,0,0,1-3,1l-.27.09-.18-.63a3.57,3.57,0,0,0,.75-.14l-.07-2.17a5.22,5.22,0,0,0-.06-.62A10.93,10.93,0,0,0,106,134a1.67,1.67,0,0,0,.4-.22l.47.51a1.18,1.18,0,0,1-.3.1l-.23.08a12.89,12.89,0,0,1-2.2.58Zm5.38,1.17a6.93,6.93,0,0,0,.88,0,6.69,6.69,0,0,0,0,.9v2.28a6.07,6.07,0,0,0,.06.9h-.64V142h-5.26v.46h-.64a6.17,6.17,0,0,0,.06-.9v-2.29a7.21,7.21,0,0,0,0-.89,6.44,6.44,0,0,0,.84,0Zm-5,1.49h2.28v-1h-2.28Zm0,1.59h2.28v-1.11h-2.28Zm3.34-6.56a3.9,3.9,0,0,0-.8.05v-.63a4.52,4.52,0,0,0,.88.05h2.36a7.55,7.55,0,0,0,.79,0,7.25,7.25,0,0,0-.07,1,9.86,9.86,0,0,1-.28,2.06c-.12.4-.37.54-.93.54a8.58,8.58,0,0,1-1-.08,2.45,2.45,0,0,0-.11-.59,4.44,4.44,0,0,0,1.07.15c.24,0,.35-.06.4-.23a8.46,8.46,0,0,0,.27-2.26h-1.56a7.3,7.3,0,0,1-.11,1A3.33,3.33,0,0,1,107,138.2a2.19,2.19,0,0,0-.41-.48,3,3,0,0,0,1.39-1.28,3.27,3.27,0,0,0,.33-1.55Zm-.5,5h2.42v-1h-2.42Zm0,1.59h2.42v-1.11h-2.42Z"/><path d="M116.66,138.2a6.77,6.77,0,0,0,0,.7l-.27,0h-2.36a6.83,6.83,0,0,1-.89,3.47,1.73,1.73,0,0,0-.52-.39c.69-1.09.86-2,.86-4.85a9.28,9.28,0,0,0,0-1.23,9.41,9.41,0,0,0,1,0h1.34a7.21,7.21,0,0,0,.89,0c0,.19,0,.43,0,.72ZM113,134.25a4.69,4.69,0,0,0,.92.06h2.27a5,5,0,0,0,.9-.05v.66a5.06,5.06,0,0,0-.88,0h-2.31a7.46,7.46,0,0,0-.9,0Zm3.09,4.09v-1.9h-2v1c0,.23,0,.52,0,.87Zm2-1.07a10,10,0,0,1-.49,3,5.34,5.34,0,0,1-1.39,2.1,1.93,1.93,0,0,0-.49-.46,4.45,4.45,0,0,0,1.32-1.89,12.94,12.94,0,0,0,.46-4.21,10.78,10.78,0,0,0,0-1.14,9.59,9.59,0,0,0,3.49-.88l.41.55-.39.13a14.59,14.59,0,0,1-2.86.71v1.08c0,.15,0,.2,0,.41h2.5a5.53,5.53,0,0,0,.9-.06v.68a5.44,5.44,0,0,0-.87,0h-.33v4.14a6.27,6.27,0,0,0,0,1h-.71a6.49,6.49,0,0,0,.06-1v-4.12Z"/><path d="M116.49,48.39a6.21,6.21,0,0,0-.79,0v-.55a5.66,5.66,0,0,0,.8,0h5.22a5.56,5.56,0,0,0,.8,0v.55a6.11,6.11,0,0,0-.79,0H120v1.15h1.2a7.89,7.89,0,0,0,.91,0,8.2,8.2,0,0,0,0,.94v3a6.05,6.05,0,0,0,0,.92h-.54v-.54h-4.85v.54h-.53a5.44,5.44,0,0,0,0-.92v-3a8.61,8.61,0,0,0,0-.94,7.38,7.38,0,0,0,.9,0h1.07c0-.27,0-.43,0-.69v-.46Zm.19,1.59v3.33h4.85V50H120v1.41c0,.15.06.17.36.17s.52,0,.56-.13a2,2,0,0,0,0-.56,1.22,1.22,0,0,0,.42.14c-.06.93-.12,1-1,1-.68,0-.84-.09-.84-.48V50h-.94a3.24,3.24,0,0,1-.43,1.58,2.42,2.42,0,0,1-1,.93,1.49,1.49,0,0,0-.36-.39,2,2,0,0,0,.93-.79,2.72,2.72,0,0,0,.35-1.33Zm1.92-1.15c0,.27,0,.43,0,.71h.91V48.39h-.9Z"/><path d="M124.27,54a6.05,6.05,0,0,0,0-.88V48.92a6.61,6.61,0,0,0,0-.82,6.74,6.74,0,0,0,.84,0h4a6.4,6.4,0,0,0,.82,0c0,.25,0,.45,0,.82v4.24A7.48,7.48,0,0,0,130,54h-.57v-.61h-4.57V54Zm.58-1.09h4.57V48.62h-4.57Z"/><path d="M246.46,281.87a6,6,0,0,0-.93.44l-.23-.56a6.69,6.69,0,0,0,1-.35l2.27-.95,0-.06a3.85,3.85,0,0,0-.38-.74l.59-.25a6.77,6.77,0,0,0,.27.79l0,.06,2.38-1a5.67,5.67,0,0,0,1-.48l.23.56a8.56,8.56,0,0,0-1,.37l-2.39,1,.28.65,1.72-.72a6.26,6.26,0,0,0,.9-.42,8.18,8.18,0,0,0,.32.85l.49,1.17a4.42,4.42,0,0,0,.39.83,6,6,0,0,0-.93.34L251,284a6.81,6.81,0,0,0,4,.4,2,2,0,0,0-.09.62,8.81,8.81,0,0,1-2.13,0,6.2,6.2,0,0,1-2.11-.64c.08.19.22.46.28.61l.34.82a6.07,6.07,0,0,0,.42.85l-.59.25a5.38,5.38,0,0,0-.31-.9l-.34-.81-.24-.62a4.37,4.37,0,0,1-.55,1.29,8.23,8.23,0,0,1-1.73,2.1,3,3,0,0,0-.5-.36,6.66,6.66,0,0,0,1.57-1.65,4.5,4.5,0,0,0,.73-1.4l-1.16.48a9.57,9.57,0,0,0-.91.43l0-.09a7.89,7.89,0,0,0-.29-.77l-.48-1.15a7.76,7.76,0,0,0-.4-.84,6,6,0,0,0,.91-.33l1.59-.67-.28-.65Zm.79.92.3.74,1.95-.82-.31-.73Zm.47,1.14.35.81,1.94-.81-.34-.81Zm2.26-1.42,2.11-.88-.31-.74-2.11.89Zm.51,1.22,2.11-.88-.34-.82-2.11.88Z"/><path d="M259.65,277c.2-.08.38-.17.54-.25.05.16.1.29.17.47l.75,1.79a5,5,0,0,0,.22.46,5.58,5.58,0,0,0-.54.2l-3.93,1.64a5.46,5.46,0,0,0-.64.32l-.21-.5a6.52,6.52,0,0,0,.68-.24l3.94-1.65-.31-.74-3.82,1.6a4.78,4.78,0,0,0-.64.32l-.21-.49a4.36,4.36,0,0,0,.68-.24l3.82-1.6-.29-.68-3.5,1.47a5.17,5.17,0,0,0-.62.3l-.16-.37a7.23,7.23,0,0,1-.72,1.3,1.78,1.78,0,0,0-.5-.22,7.18,7.18,0,0,0,1-1.9,4.91,4.91,0,0,0,.3-1.66l.64-.09c0,.17,0,.17-.15.68l1.42-.6a4.56,4.56,0,0,0,.66-.32l.37.18a3.09,3.09,0,0,0-.08.3l0,.11c0,.09,0,.16-.07.24a4.59,4.59,0,0,1-.21.76Zm-2,.83a6,6,0,0,0,.33-1.19l-1.94.81a6.49,6.49,0,0,1-.41,1.2,4,4,0,0,0,.53-.2Zm-1.6,6.28a4,4,0,0,0,.23-.94,4.24,4.24,0,0,0,0-1.12h.53a5.12,5.12,0,0,1-.19,2.18Zm2.34-1.44c.09.2.15.24.32.22a4.3,4.3,0,0,0,.83-.29c1-.43,1.26-.57,1.3-.75a1.87,1.87,0,0,0-.17-.86,1.94,1.94,0,0,0,.59,0c.31,1.25.23,1.35-1.53,2.09a4.47,4.47,0,0,1-1.25.4c-.26,0-.39-.11-.55-.49l-.34-.81a4.3,4.3,0,0,0-.34-.68l.6-.25a3.31,3.31,0,0,0,.24.72Zm1.54-.92a6.33,6.33,0,0,0-1.55-.53l.23-.44a7.56,7.56,0,0,1,1.52.48Zm1.28-1.87a11.12,11.12,0,0,1,1.89,1.09l-.3.52a7.43,7.43,0,0,0-1.87-1.17Z"/><path d="M270.73,278.56l-.21-.48-5.25,2.2.2.48-.55.23c-.09-.29-.19-.58-.34-.94l-2.07-4.94c-.13-.3-.25-.55-.38-.79a7.55,7.55,0,0,0,.92-.34l4.53-1.89a9.5,9.5,0,0,0,.9-.43,6.31,6.31,0,0,0,.29.82l2.08,4.94a7,7,0,0,0,.43.9Zm-6.88-1.68,2.28-.95-1-2.29-2.28,1Zm1.23,2.93,2.28-.95-1-2.48-2.28,1Zm1.56-4.1,2.45-1-.95-2.28-2.46,1Zm1.22,2.93,2.46-1-1-2.47-2.46,1Z"/><path d="M279.24,275.14l-.16-.37-5.58,2.34.16.37-.55.23a7.74,7.74,0,0,0-.35-1l-2.11-5a9.6,9.6,0,0,0-.47-1,7.36,7.36,0,0,0,1-.35l4.8-2a6.89,6.89,0,0,0,.93-.44,7.88,7.88,0,0,0,.36,1l2.12,5.06a6.82,6.82,0,0,0,.44.92Zm-5.91,1.55,5.58-2.34-2.39-5.71L270.94,271Zm-.63-5.2a6.93,6.93,0,0,0-.65.31l-.19-.45a3.54,3.54,0,0,0,.68-.24l1.18-.49a3.62,3.62,0,0,0-.23-.45L274,270a2,2,0,0,0,.16.48l1.35-.57a3.75,3.75,0,0,0,.64-.32l.19.46a5.17,5.17,0,0,0-.67.24l-1.35.57.23.54,1.71-.72a3.66,3.66,0,0,0,.63-.31l.19.47a3.75,3.75,0,0,0-.66.23l-3.75,1.57a4.63,4.63,0,0,0-.63.31l-.2-.47a3.07,3.07,0,0,0,.66-.23l1.59-.66-.23-.54Zm4.95,1.29a7.21,7.21,0,0,1-.66,1.1,5,5,0,0,0,1.41-.06,2,2,0,0,0-.1.54,5.1,5.1,0,0,1-2.79-.48c.06.13.16.34.2.44l.17.4a3,3,0,0,0,.27.54l-.53.22a2.54,2.54,0,0,0-.19-.57l-.17-.4c0-.06-.09-.22-.17-.46a5.89,5.89,0,0,1-1.38,2.11,1.33,1.33,0,0,0-.47-.26,5.59,5.59,0,0,0,1-1.14,5,5,0,0,0,.54-1l-.87.37a5.27,5.27,0,0,0-.53.24,2.74,2.74,0,0,0-.16-.45l-.21-.5c-.08-.19-.14-.3-.21-.44a4.38,4.38,0,0,0,.55-.2l2.7-1.13.52-.24a2.71,2.71,0,0,0,.17.45l.21.5a2.66,2.66,0,0,0,.18.4v-.05Zm-3.92,1,2.82-1.17-.26-.63-2.82,1.18Zm1.71-.29a3.87,3.87,0,0,0,1.12.36,3.43,3.43,0,0,0,.59-1.06c-.12,0-.25.09-.51.19Z"/><path d="M280.18,269.52a4.42,4.42,0,0,0-.79.39l-.22-.53a5.25,5.25,0,0,0,.83-.29l.82-.34-.42-1-.59.25a5.12,5.12,0,0,0-.7.34l-.22-.52a4,4,0,0,0,.74-.25l.59-.25-.11-.27a4.93,4.93,0,0,0-.34-.69l.57-.23a5.14,5.14,0,0,0,.26.72l.11.26.25-.1a4.08,4.08,0,0,0,.63-.31l.21.5a4.88,4.88,0,0,0-.63.23l-.28.12.42,1,.25-.1a7.74,7.74,0,0,0,.44-2,2.1,2.1,0,0,0,0-.61l.62.07a1.11,1.11,0,0,0-.07.37,9.26,9.26,0,0,1-.41,1.92l.26-.11a5.68,5.68,0,0,0,.81-.39l.21.51a7.65,7.65,0,0,0-.77.28l-.72.3a11.85,11.85,0,0,1-.56,1.23l1.18-.49a5.73,5.73,0,0,0,.72-.34,6.63,6.63,0,0,0,.32.84l.78,1.86a6.65,6.65,0,0,0,.36.77l-.5.22-.15-.36-1.8.75.21.48L282,274a5,5,0,0,0-.31-.88l-.85-2a8.29,8.29,0,0,1-.56.89,1.4,1.4,0,0,0-.45-.31,10.22,10.22,0,0,0,1.53-2.59Zm1.36,1.93,1.79-.75-.36-.86-1.8.75Zm.58,1.39,1.79-.75-.41-1-1.79.76Zm3.37-8.19a1.79,1.79,0,0,0,0,.37,19.82,19.82,0,0,1-.15,2.37,4.12,4.12,0,0,1,1.25.73,3.15,3.15,0,0,1,.83,1.12,1.05,1.05,0,0,1,0,1.12,1.75,1.75,0,0,1-.73.46c-.13.06-.33.13-.56.21a1.5,1.5,0,0,0-.33-.5,4.22,4.22,0,0,0,.73-.23.85.85,0,0,0,.44-.3.76.76,0,0,0-.06-.61,2.76,2.76,0,0,0-.91-1.13,4,4,0,0,0-1.15-.56,13.47,13.47,0,0,0,.13-2.65l-1.59.67,2.29,5.47a7.5,7.5,0,0,0,.52,1.06l-.61.25a6.61,6.61,0,0,0-.41-1.1l-2.18-5.21a7.65,7.65,0,0,0-.34-.72,5.33,5.33,0,0,0,.67-.25l1.25-.52a4.92,4.92,0,0,0,.6-.29Z"/><path d="M289.94,262.93a3.37,3.37,0,0,0-.34-.64l.64-.27a3.39,3.39,0,0,0,.22.69l.21.49,2.5-1a5.5,5.5,0,0,0,.88-.44l.24.58a5.07,5.07,0,0,0-.92.33l-5.32,2.23a4.93,4.93,0,0,0-.86.42l-.25-.58a7.31,7.31,0,0,0,.92-.32l2.29-1Zm.76,1.8c-.11-.24-.19-.42-.3-.61l.59-.25a4,4,0,0,0,.23.65l.11.26,1.88-.79a6.51,6.51,0,0,0,.74-.35,3.43,3.43,0,0,0,.24.67l1,2.29c.21.52.1.72-.53,1a8.46,8.46,0,0,1-.84.31,2.37,2.37,0,0,0-.37-.48,6.32,6.32,0,0,0,1-.3c.25-.1.29-.18.22-.36l-1-2.39-2.08.87,1.33,3.16a5.61,5.61,0,0,0,.42.85l-.64.27a7.16,7.16,0,0,0-.3-.89L291,265.46l-1.9.79,1,2.4a6,6,0,0,0,.41.84l-.63.26a5.83,5.83,0,0,0-.31-.87l-.93-2.24c-.11-.25-.2-.43-.31-.64a6.68,6.68,0,0,0,.78-.29l1.7-.71Z"/><path d="M296.2,263.56a2.44,2.44,0,0,0,.32-.11l.33-.16.12-.42c0-.15,0-.24.12-.56a9.9,9.9,0,0,0-1.7-.72l.13-.5.54.21a6,6,0,0,0,.13-1.85h.57c0,.09,0,.2,0,.4a12.55,12.55,0,0,1-.24,1.63c.25.11.4.19.71.36a7.47,7.47,0,0,0,.21-1.76l.57.05-.19,1c-.1.58-.18.93-.43,1.9.57-.29.74-.38,1.18-.63-.24-.25-.32-.33-.56-.55l.28-.31a8.53,8.53,0,0,1,1.15,1.18l-.31.36c-.12-.18-.17-.23-.26-.35-.31.19-.34.2-.68.39l1.1,2.63a4.74,4.74,0,0,0,.38.78l-.56.24a5.1,5.1,0,0,0-.29-.82l-1.08-2.59-.9.44a2.32,2.32,0,0,0-.31.19Zm1.33.62a9.53,9.53,0,0,1,.53,2.52l-.53,0a7.35,7.35,0,0,0-.49-2.38Zm1.93-5.26a3.42,3.42,0,0,0-.07-.84l.6-.12a6.53,6.53,0,0,1,0,.75l1-.42a4.8,4.8,0,0,0,.74-.35,7,7,0,0,0,.29.77l.53,1.28c.15.34.24.54.34.72a6,6,0,0,0-.77.28l-.79.33a4.57,4.57,0,0,0,1.08,1.07,6.73,6.73,0,0,0,.55-1.46l.5.18a15,15,0,0,1-.66,1.55,5.31,5.31,0,0,0,2,.84,1.5,1.5,0,0,0-.14.58,5.33,5.33,0,0,1-1.41-.56,5.46,5.46,0,0,1-1.74-1.48c.35.68.55,1.08.7,1.44l.43,1c.17.43.05.64-.53.89l-.61.22a1.73,1.73,0,0,0-.36-.45,5.12,5.12,0,0,0,.8-.25c.21-.09.25-.14.19-.27l-1.3-3.11-.74.31a6.81,6.81,0,0,0-.75.36,7.58,7.58,0,0,0-.28-.76l-.53-1.27c-.14-.32-.23-.52-.35-.74a8,8,0,0,0,.77-.28Zm-.39,4.5a9.75,9.75,0,0,1,1,1.39l-.35.31a10.75,10.75,0,0,0-.95-1.43Zm.08-3,2.57-1.07-.31-.73-2.57,1.07Zm.48,1.15,2.57-1.07-.31-.74-2.57,1.08Zm1.42,1c0,.15,0,.15,0,.63a5.61,5.61,0,0,1-.21,1.47,7.19,7.19,0,0,1-.49,1.15,1.26,1.26,0,0,0-.5-.22,4.42,4.42,0,0,0,.74-2.61l-.52.22a3.13,3.13,0,0,0-.52.26l-.21-.5a2.46,2.46,0,0,0,.56-.19l.42-.17a1.73,1.73,0,0,0,.4-.21Z"/><path d="M172.59,300.34a4.12,4.12,0,0,0-.68.05v-.55a3.39,3.39,0,0,0,.68.05h1.33v-1.05a5.5,5.5,0,0,0,0-.79h.59a5.45,5.45,0,0,0,0,.79V304a5.86,5.86,0,0,0,0,.81h-.59a6,6,0,0,0,0-.82v-1c-.49.27-1,.53-1.69.85l-.3.14-.2-.53a3.5,3.5,0,0,0,.68-.24,12.55,12.55,0,0,0,1.51-.76v-2.15Zm3.54,3.44c0,.15,0,.21.13.25a2.68,2.68,0,0,0,.73.06c.67,0,.9-.06,1-.26a4.11,4.11,0,0,0,.17-1.31,1.64,1.64,0,0,0,.48.23,2.69,2.69,0,0,1-.37,1.55c-.19.19-.52.25-1.28.25-1.12,0-1.37-.12-1.37-.65v-5.06a4.66,4.66,0,0,0,0-.79h.58a6,6,0,0,0,0,.79v1.84a11.43,11.43,0,0,0,1.6-1.07,2.6,2.6,0,0,0,.44-.44l.38.42-.28.22a13.23,13.23,0,0,1-2.14,1.41Z"/><path d="M180.37,304.55a6.14,6.14,0,0,0,0-.88v-4.24a6.61,6.61,0,0,0,0-.82,6.67,6.67,0,0,0,.83,0h4a6.4,6.4,0,0,0,.82,0c0,.25,0,.45,0,.82v4.24a5.81,5.81,0,0,0,.05.88h-.57v-.61H181v.61Zm.58-1.09h4.57v-4.33H181Z"/><path d="M224.92,296a7.52,7.52,0,0,0-.09-1.62,3.34,3.34,0,0,1,.8.08c.07,0,.11.05.11.11a.26.26,0,0,1,0,.1,3.93,3.93,0,0,0-.11,1.29v.93c.86-.22,2.27-.59,2.83-.75a2.93,2.93,0,0,0,.94-.34.38.38,0,0,1,.13,0c.12,0,.24.08.39.24a1.08,1.08,0,0,1,.25.39.21.21,0,0,1-.11.18,1.07,1.07,0,0,0-.33.36,9.81,9.81,0,0,1-1.31,1.6q-.57.57-.69.57a.18.18,0,0,1-.13-.06,1.8,1.8,0,0,0-.51-.32,7.39,7.39,0,0,0,2.06-2.12l0,0-.43.13c-.67.19-1.13.33-2.34.64l-.72.2v2.09c0,1,.37,1.2,2.07,1.2a14.88,14.88,0,0,0,1.86-.12h.08c.15,0,.19.11.19.51,0,.15,0,.2-.06.23a11.26,11.26,0,0,1-1.64.06c-1.57,0-2.19-.09-2.61-.38s-.57-.7-.57-1.47v-1.94a11.65,11.65,0,0,0-1.93.63c-.09.07-.12.07-.15.07s-.28-.28-.44-.79a13.3,13.3,0,0,0,2.52-.55Z"/><path d="M237.2,295.74a38.31,38.31,0,0,0-3.95.09h-.09c-.07,0-.11,0-.13-.11A2.57,2.57,0,0,1,233,295a13.14,13.14,0,0,0,1.94.08h3.72A1.42,1.42,0,0,0,239,295l.12,0c.12,0,.2.05.37.25s.26.29.26.37a.17.17,0,0,1-.07.14c-.07.07-.11.16-.2.46a9.36,9.36,0,0,1-2.57,4.36,7.9,7.9,0,0,1-2,1.35.14.14,0,0,1-.11-.06,2.23,2.23,0,0,0-.54-.38,7.81,7.81,0,0,0,2-1.28A7.41,7.41,0,0,0,238,298a9,9,0,0,0,.82-2.21Zm2.58-1.85a2.93,2.93,0,0,1,.91,1.11s0,0,0,.09c-.2.16-.3.21-.36.21s-.06,0-.09-.08a3.91,3.91,0,0,0-.73-1,.17.17,0,0,1,0-.07s0,0,0-.09A.64.64,0,0,1,239.78,293.89Zm1.76.6c0,.05,0,.06-.15.14a.62.62,0,0,1-.24.12c-.05,0-.08,0-.11-.09a3.22,3.22,0,0,0-.69-1,.16.16,0,0,1,0-.09s0,0,0-.08a.9.9,0,0,1,.28-.16c.07,0,.13,0,.25.16a4.1,4.1,0,0,1,.63.84A.45.45,0,0,1,241.54,294.49Z"/><path d="M245.55,297.07a.2.2,0,0,1-.11-.07,7.9,7.9,0,0,0-1.62-1.32c-.22-.13-.23-.14-.23-.18a.93.93,0,0,1,.25-.37c.08-.1.13-.13.2-.13a6.54,6.54,0,0,1,2,1.51C246,296.63,245.66,297.07,245.55,297.07Zm4.81-.53a.2.2,0,0,1,0,.13,8.08,8.08,0,0,1-1.81,2.11,13.09,13.09,0,0,1-3.78,2.32,3.36,3.36,0,0,0-.58.32c-.06,0-.1.07-.13.07s-.36-.39-.52-.82a10,10,0,0,0,2.53-1,12.9,12.9,0,0,0,2.25-1.64,9.67,9.67,0,0,0,1.7-2.1A2.9,2.9,0,0,0,250.36,296.54Z"/><path d="M255.16,297.63a5.75,5.75,0,0,0,.91.05h1.19a5.81,5.81,0,0,0,.92-.05v.84a5.89,5.89,0,0,0-.92-.05h-1.19a5.9,5.9,0,0,0-.91.05Z"/><path d="M266.54,297.14a15.8,15.8,0,0,1-2.56,1.48,3,3,0,0,1-.72.29s-.08,0-.13-.08a1.51,1.51,0,0,0-.49-.41,14.78,14.78,0,0,0,3.66-1.92,8.83,8.83,0,0,0,2.47-2.42c.39.26.67.54.67.66s0,.06-.09.09a2.5,2.5,0,0,0-.52.42,19.09,19.09,0,0,1-1.57,1.35v3.29c0,.57,0,1.15,0,1.4s0,.18,0,.2a.63.63,0,0,0,0,.17v.09c0,.13-.11.17-.53.17-.23,0-.27,0-.27-.16v-.05c0-.46,0-1,0-1.82Z"/><path d="M274.42,296.21a9,9,0,0,0-.08-1.39c.57,0,.94.1.94.25a.44.44,0,0,1,0,.14c-.09.17-.09.32-.09,5.18a11.57,11.57,0,0,0,5.06-3v.12a2.91,2.91,0,0,0,.06.57c0,.06,0,.12,0,.14a.18.18,0,0,1-.08.16,10.89,10.89,0,0,1-2,1.54,12.09,12.09,0,0,1-2.47,1.15,2.67,2.67,0,0,0-.6.26.22.22,0,0,1-.14.06.88.88,0,0,1-.6-.57s0-.08,0-.15a2.62,2.62,0,0,0,.05-.7v-3.72Z"/><path d="M287.2,295.74a38.31,38.31,0,0,0-3.95.09h-.09c-.07,0-.11,0-.13-.11A2.57,2.57,0,0,1,283,295a13.14,13.14,0,0,0,1.94.08h3.72A1.42,1.42,0,0,0,289,295l.12,0c.12,0,.2.05.37.25s.26.29.26.37a.17.17,0,0,1-.07.14c-.07.07-.11.16-.2.46a9.36,9.36,0,0,1-2.57,4.36,7.9,7.9,0,0,1-2,1.35.14.14,0,0,1-.11-.06,2.23,2.23,0,0,0-.54-.38,7.81,7.81,0,0,0,2-1.28A7.41,7.41,0,0,0,288,298a9,9,0,0,0,.82-2.21Zm2.58-1.85a2.93,2.93,0,0,1,.91,1.11s0,0,0,.09c-.2.16-.3.21-.36.21s-.06,0-.09-.08a3.91,3.91,0,0,0-.73-1,.17.17,0,0,1,0-.07s0,0,0-.09A.64.64,0,0,1,289.78,293.89Zm1.76.6c0,.05,0,.06-.15.14a.62.62,0,0,1-.24.12s-.08,0-.11-.09a3.22,3.22,0,0,0-.69-1,.16.16,0,0,1,0-.09s0,0,0-.08a.9.9,0,0,1,.28-.16c.07,0,.13,0,.25.16a4.1,4.1,0,0,1,.63.84A.45.45,0,0,1,291.54,294.49Z"/><path d="M295.55,297.07a.2.2,0,0,1-.11-.07,7.9,7.9,0,0,0-1.62-1.32c-.22-.13-.23-.14-.23-.18a.93.93,0,0,1,.25-.37c.08-.1.13-.13.2-.13a6.54,6.54,0,0,1,2,1.51C296,296.63,295.66,297.07,295.55,297.07Zm4.81-.53a.2.2,0,0,1,.05.13,8.08,8.08,0,0,1-1.81,2.11,13.09,13.09,0,0,1-3.78,2.32,3.36,3.36,0,0,0-.58.32c-.06,0-.1.07-.13.07s-.36-.39-.52-.82a10,10,0,0,0,2.53-1,12.9,12.9,0,0,0,2.25-1.64,9.67,9.67,0,0,0,1.7-2.1A2.9,2.9,0,0,0,300.36,296.54Z"/><path d="M67,282.72a5.44,5.44,0,0,0-.92,0v-.55a5.68,5.68,0,0,0,.93.06h2.19v-.07a3.69,3.69,0,0,0-.06-.73h.57a5,5,0,0,0,0,.73v.07h2.29a5.14,5.14,0,0,0,1-.06v.55a5.84,5.84,0,0,0-1,0h-2.3v.63h1.66a5.64,5.64,0,0,0,.88,0,7.73,7.73,0,0,0,0,.81v1.13a5.52,5.52,0,0,0,0,.81,6,6,0,0,0-.88,0H70a6.13,6.13,0,0,0,3.16,1.71,1.62,1.62,0,0,0-.29.48,8.59,8.59,0,0,1-1.73-.76,5.86,5.86,0,0,1-1.51-1.26c0,.18,0,.46,0,.6v.78a4.75,4.75,0,0,0,0,.85H69.1a4.73,4.73,0,0,0,.06-.85v-.77c0-.15,0-.35,0-.59a4.31,4.31,0,0,1-.89.87,7.42,7.42,0,0,1-2.15,1.12,2.75,2.75,0,0,0-.29-.47,6.1,6.1,0,0,0,1.87-.81,4.19,4.19,0,0,0,1.08-.9H67.67a6.13,6.13,0,0,0-.9,0V286a5.8,5.8,0,0,0,0-.72v-1.12a5.9,5.9,0,0,0,0-.82,5.42,5.42,0,0,0,.86,0h1.53v-.63Zm.32,1v.71h1.88v-.71Zm0,1.1v.78h1.88v-.78Zm2.34-.39h2v-.71h-2Zm0,1.17h2v-.78h-2Z"/><path d="M76.08,286a3.77,3.77,0,0,1-.47,1.21,3.45,3.45,0,0,1-1,1.13,1.24,1.24,0,0,0-.38-.39,2.94,2.94,0,0,0,1-.93,3.06,3.06,0,0,0,.44-1h-.76c-.28,0-.5,0-.72,0v-.52a4.43,4.43,0,0,0,.72,0h.85c0-.33.07-.58.1-1.12h-.72a3.93,3.93,0,0,0-.66,0V284a3.85,3.85,0,0,0,.66,0h.73c0-.28,0-.44,0-.69v-.39H75c-.26,0-.5,0-.72,0v-.52a4.06,4.06,0,0,0,.72,0h.85v-.21a4.15,4.15,0,0,0,0-.75h.56a3.69,3.69,0,0,0,0,.76v.2h.66a3.83,3.83,0,0,0,.71,0V283c-.21,0-.47,0-.71,0h-.66v.41c0,.25,0,.39,0,.67h.55a4,4,0,0,0,.68,0v.5a4,4,0,0,0-.67,0h-.58c0,.54,0,.81-.09,1.12h.77a4.2,4.2,0,0,0,.72,0V286a5.44,5.44,0,0,0-.73,0Zm4.73-4a1.52,1.52,0,0,0-.13.26,12.42,12.42,0,0,1-1,2,3.53,3.53,0,0,1,.92,1.25,2.06,2.06,0,0,1,.17.83,1.22,1.22,0,0,1-.21.73,1,1,0,0,1-.85.27c-.27,0-.51,0-.75,0a1.45,1.45,0,0,0-.12-.53,5.42,5.42,0,0,0,.8.09c.48,0,.63-.13.63-.56a1.93,1.93,0,0,0-.25-.92,3.41,3.41,0,0,0-.9-1.08,9.34,9.34,0,0,0,1-2.16H78.49v5.36a4.75,4.75,0,0,0,.06.87H78a6.37,6.37,0,0,0,0-.87v-5.12a5.31,5.31,0,0,0,0-.7,5.74,5.74,0,0,0,.63,0H80a3,3,0,0,0,.6,0Z"/><path d="M85.68,283.86a6.08,6.08,0,0,0,1.26,2.47,5.37,5.37,0,0,0,2.08,1.5,2.16,2.16,0,0,0-.34.51,5.94,5.94,0,0,1-3.22-3.79,4.88,4.88,0,0,1-1.5,2.76,6.14,6.14,0,0,1-1.67,1.05,1.43,1.43,0,0,0-.33-.47,5,5,0,0,0,2-1.35,4.67,4.67,0,0,0,1.06-2.68H83a4.38,4.38,0,0,0-.84.06v-.6a4.6,4.6,0,0,0,.86.05H85.1c0-.4,0-.59,0-1a5.46,5.46,0,0,0,0-.78h.63a6,6,0,0,0-.06.8c0,.39,0,.62,0,.95H88a4.68,4.68,0,0,0,.85-.05v.6a4.68,4.68,0,0,0-.84-.06Z"/><path d="M93.71,287.81c0,.48-.14.56-.87.56-.22,0-.59,0-.87,0a2.59,2.59,0,0,0-.15-.49,8.73,8.73,0,0,0,1,.09c.34,0,.4,0,.4-.2v-1.54h-2.3a5.88,5.88,0,0,0-.8.05v-.53a5.66,5.66,0,0,0,.8.05h2.3v-.14c0-.15,0-.27,0-.45h.32a5.7,5.7,0,0,0,1.37-.86h-2.8c-.26,0-.53,0-.73,0v-.5c.21,0,.47,0,.74,0h2.78a2.44,2.44,0,0,0,.56,0l.29.32-.26.21a8.24,8.24,0,0,1-1.76,1.14v.24H96a5.71,5.71,0,0,0,.81-.05v.53a5.82,5.82,0,0,0-.81-.05H93.71Zm-2.06-5.08a4.81,4.81,0,0,0-.72-1l.47-.14a7.11,7.11,0,0,1,.77,1.14h1.12a4.29,4.29,0,0,0-.56-1.11l.48-.13a7.65,7.65,0,0,1,.59,1.24h.84a4.88,4.88,0,0,0,.78-1.24l.48.2a6.34,6.34,0,0,1-.74,1h.6a6.8,6.8,0,0,0,.89,0,5.53,5.53,0,0,0,0,.63v.57a5.09,5.09,0,0,0,0,.55h-.51v-1.31H90.74v1.31h-.51a4.74,4.74,0,0,0,0-.55v-.57a5.41,5.41,0,0,0,0-.63,7,7,0,0,0,.88,0Z"/><path d="M104.88,288.14a4.07,4.07,0,0,0-.76-.05H98.84v.36H98.3a7,7,0,0,0,0-.84v-5.05c0-.32,0-.55,0-.8a5.79,5.79,0,0,0,.8,0H104a4.38,4.38,0,0,0,.75-.06v.55a4.23,4.23,0,0,0-.74,0H98.84v5.39h5.28a5.36,5.36,0,0,0,.76-.05Zm-2.68-3a3.06,3.06,0,0,0,2.44,1.67,1.54,1.54,0,0,0-.28.47,5,5,0,0,1-1.56-.73,2.81,2.81,0,0,1-1-1.16,2.55,2.55,0,0,1-.88,1.17,5,5,0,0,1-1.38.7,1.39,1.39,0,0,0-.3-.43,2.75,2.75,0,0,0,2.15-1.69h-1.36a5.3,5.3,0,0,0-.78,0v-.51a5.11,5.11,0,0,0,.79,0h1.45a6.74,6.74,0,0,0,.09-1.09h-1.18a5.37,5.37,0,0,1-.69.87,1.17,1.17,0,0,0-.4-.27,4.3,4.3,0,0,0,1.07-1.45,2.8,2.8,0,0,0,.13-.38l.48.15a2.86,2.86,0,0,0-.18.36,3.27,3.27,0,0,1-.14.3h2.72a4.4,4.4,0,0,0,.74,0v.5a5.41,5.41,0,0,0-.74,0H102.1a6.34,6.34,0,0,1-.08,1.09h1.91a3.75,3.75,0,0,0,.76-.05v.53a5,5,0,0,0-.77-.05Z"/><path d="M109.55,281.91a2.35,2.35,0,0,0,0-.5h.57a2.35,2.35,0,0,0,0,.5V282h2a4.8,4.8,0,0,0,.86-.05v.5a4.68,4.68,0,0,0-.82,0h-4.6v1.36a10.91,10.91,0,0,1-.36,3.28,4.23,4.23,0,0,1-.71,1.33,1.27,1.27,0,0,0-.39-.33,3.53,3.53,0,0,0,.71-1.32,5.41,5.41,0,0,0,.23-1.34c-.34.22-.4.25-.91.53l-.1.06-.19-.49a5.44,5.44,0,0,0,1.23-.56c0-.28,0-.45,0-.84a18.08,18.08,0,0,0,0-2.13,7.83,7.83,0,0,0,.87,0h1.71Zm-3.31.9a8,8,0,0,1,.56,1.41l-.39.2a6.65,6.65,0,0,0-.54-1.43ZM109,287a5,5,0,0,1-1.4,1.33,1.61,1.61,0,0,0-.33-.35,3.28,3.28,0,0,0,1.31-1.21Zm-.64-2a4.92,4.92,0,0,1-.62.36,1.17,1.17,0,0,0-.25-.36,4.28,4.28,0,0,0,1-.6,3.93,3.93,0,0,0-.7-.58l.3-.26a8.78,8.78,0,0,1,.7.59,3.48,3.48,0,0,0,.6-.74h-1a5.32,5.32,0,0,0-.65,0V283a5.7,5.7,0,0,0,.67,0h1.24a2.87,2.87,0,0,0,.18-.47l.5.05-.2.42h2a7.42,7.42,0,0,0,.76,0v.48a4.85,4.85,0,0,0-.75,0h-1.27a2.85,2.85,0,0,0,.74.8,3.07,3.07,0,0,0,.68-.66l.39.24a7.78,7.78,0,0,1-.76.64A4.4,4.4,0,0,0,113,285a1.77,1.77,0,0,0-.21.41A5.41,5.41,0,0,1,112,285v1a6.48,6.48,0,0,0,0,.72,4.22,4.22,0,0,0-.67,0h-1v1.29c0,.4-.17.53-.72.53l-.81,0a1.47,1.47,0,0,0-.12-.49,4.19,4.19,0,0,0,.86.09c.27,0,.32,0,.32-.19v-1.2H109a5.08,5.08,0,0,0-.76,0,4.53,4.53,0,0,0,0-.71Zm.44.27h2.77v-.55h-2.77Zm0,.95h2.77v-.59h-2.77Zm2.37-1.87a4,4,0,0,1-.79-.94h-.49a4.39,4.39,0,0,1-.74.94Zm.31,2.37a4.42,4.42,0,0,0,1.45,1.2,2.55,2.55,0,0,0-.32.38,6,6,0,0,1-1.5-1.32Z"/><path d="M116.05,283.33A6.59,6.59,0,0,0,116,282a3.26,3.26,0,0,1,.64.07c.06,0,.09,0,.09.08a.19.19,0,0,1,0,.09,3.39,3.39,0,0,0-.08,1V284c.68-.18,1.81-.47,2.26-.6a2.75,2.75,0,0,0,.75-.27.17.17,0,0,1,.11,0c.09,0,.19.07.31.2a.81.81,0,0,1,.2.31c0,.05,0,.09-.09.13a.92.92,0,0,0-.26.3,8.15,8.15,0,0,1-1,1.27c-.31.31-.49.47-.55.47a.16.16,0,0,1-.11-.05,1.21,1.21,0,0,0-.41-.26,5.87,5.87,0,0,0,1.65-1.69l0,0-.35.11c-.53.16-.9.26-1.87.52l-.57.15v1.68c0,.79.29,1,1.65,1a10.86,10.86,0,0,0,1.49-.1h.06c.12,0,.16.08.16.41,0,.11,0,.15,0,.18a9.25,9.25,0,0,1-1.31.05c-1.26,0-1.76-.07-2.09-.3s-.46-.56-.46-1.18V284.7a7.85,7.85,0,0,0-1.54.51.28.28,0,0,1-.12.05c-.11,0-.23-.22-.35-.63a11.67,11.67,0,0,0,2-.45Z"/><path d="M124.56,284.17a.11.11,0,0,1-.09-.05,6.22,6.22,0,0,0-1.3-1.05c-.17-.1-.18-.11-.18-.15a.82.82,0,0,1,.2-.3c.06-.08.1-.1.16-.1a5.31,5.31,0,0,1,1.59,1.21A.92.92,0,0,1,124.56,284.17Zm3.84-.42a.15.15,0,0,1,0,.11,6.32,6.32,0,0,1-1.44,1.68,10.55,10.55,0,0,1-3,1.87,2.06,2.06,0,0,0-.46.24c-.05,0-.08.06-.11.06s-.28-.3-.41-.66a7.38,7.38,0,0,0,2-.83,9.05,9.05,0,0,0,1.8-1.31,7.53,7.53,0,0,0,1.36-1.67A2.48,2.48,0,0,0,128.4,283.75Z"/><path d="M131.52,284.77a1.19,1.19,0,0,1-.41.25.1.1,0,0,1-.08,0,1.52,1.52,0,0,0-.4-.25,5.75,5.75,0,0,0,2.26-2.33,3.3,3.3,0,0,0,.26-.64c.37.13.62.28.62.37s0,.06-.06.1a1,1,0,0,0-.25.32c-.06.1-.1.17-.17.27h1.23c.94,0,1,0,1.1-.05l.09,0c.06,0,.13.07.29.25a.83.83,0,0,1,.15.26s0,.06-.07.12a1.11,1.11,0,0,0-.21.34,10.63,10.63,0,0,1-1.59,2.4,9.26,9.26,0,0,1-2.35,1.9,1.31,1.31,0,0,1-.46.23.16.16,0,0,1-.12-.06,1.73,1.73,0,0,0-.41-.29,9,9,0,0,0,2.79-2,6.86,6.86,0,0,0-1.2-1.06s-.06-.05-.06-.08,0-.08.15-.2.14-.12.18-.12a5.13,5.13,0,0,1,1.31,1,6.05,6.05,0,0,0,.48-.63,6.61,6.61,0,0,0,.81-1.53H133A6.53,6.53,0,0,1,131.52,284.77Z"/><path d="M140.92,284.69c1.61,0,3,0,3.47-.06h.05c.07,0,.1.06.1.2,0,.38,0,.43-.11.43h0l-1.43,0h-2.8a9.88,9.88,0,0,0-1.54.08h-.06a.1.1,0,0,1-.1-.07,2.88,2.88,0,0,1-.08-.65A20,20,0,0,0,140.92,284.69Z"/><path d="M110.74,295.59a7.54,7.54,0,0,0,1.57,3.09,6.7,6.7,0,0,0,2.6,1.87,2.73,2.73,0,0,0-.42.64,7.43,7.43,0,0,1-4-4.74,6.06,6.06,0,0,1-1.88,3.45,7.59,7.59,0,0,1-2.08,1.31,2,2,0,0,0-.41-.59,6.12,6.12,0,0,0,2.53-1.68,5.88,5.88,0,0,0,1.33-3.35h-2.61a5.65,5.65,0,0,0-1.06.07v-.75a5.68,5.68,0,0,0,1.08.07H110c0-.5,0-.74,0-1.22a6.35,6.35,0,0,0-.07-1h.79a7,7,0,0,0-.07,1c0,.48,0,.77,0,1.19h2.91a5.65,5.65,0,0,0,1.06-.07v.75a5.88,5.88,0,0,0-1-.07Z"/><path d="M117.32,293.6a5.51,5.51,0,0,0,0-1h.67a6.18,6.18,0,0,0,0,1v.89h.2a3.57,3.57,0,0,0,.62,0V295a5.66,5.66,0,0,0-.61,0h-.18a4.31,4.31,0,0,0,1.06,1.81,1.91,1.91,0,0,0-.35.47,5.48,5.48,0,0,1-.78-1.45c0,.77,0,1.17,0,1.54v2.86a6.46,6.46,0,0,0,.06,1.11h-.69a7.79,7.79,0,0,0,.06-1.11v-2.69c0-.47,0-.62.09-1.65a8.13,8.13,0,0,1-1.13,3,1.87,1.87,0,0,0-.39-.52,6.79,6.79,0,0,0,1-2.09,8.57,8.57,0,0,0,.33-1.27h-.44a4.06,4.06,0,0,0-.67,0v-.6a4,4,0,0,0,.67,0h.52Zm6.33.59a6.58,6.58,0,0,0,1-.06v.59c-.31,0-.63-.05-1-.05h-1a4.39,4.39,0,0,0,2.14,1.12,1.93,1.93,0,0,0-.35.5,6,6,0,0,1-1.29-.64v.67a6.32,6.32,0,0,0,0,.64l-.65,0h-2l-.65,0v-.09a4,4,0,0,0,0-.55v-.6a5.32,5.32,0,0,1-1,.6,1.72,1.72,0,0,0-.35-.42,4.5,4.5,0,0,0,1.77-1.23h-.71a4.57,4.57,0,0,0-.83.05v-.58a6.81,6.81,0,0,0,.87.05h1a3.74,3.74,0,0,0,.34-.66c-1,.08-1.29.09-1.85.11a2.1,2.1,0,0,0-.24-.5h.43a14.94,14.94,0,0,0,4.25-.55l.4.5-.46.1a18.18,18.18,0,0,1-1.93.29,5.82,5.82,0,0,1-.36.71Zm-4.77,7.14a9.42,9.42,0,0,0,.05-1.07v-2c0-.45,0-.62,0-.87a5.77,5.77,0,0,0,.85,0h3.75a5,5,0,0,0,.92-.05,7.6,7.6,0,0,0,0,.9v2.33c0,.51-.18.63-.9.63-.3,0-.4,0-.87,0a2.19,2.19,0,0,0-.14-.59,7.88,7.88,0,0,0,1,.08c.24,0,.29,0,.29-.25v-2.53H119.5v2.34a8.37,8.37,0,0,0,0,1.06Zm1.45-2.26a5.55,5.55,0,0,0,0-.65,4,4,0,0,0,.63,0h1.39a4,4,0,0,0,.62,0,3.24,3.24,0,0,0,0,.64v.5a3.76,3.76,0,0,0,0,.59,4,4,0,0,0-.56,0h-1.55v.49h-.52a6.91,6.91,0,0,0,0-.73Zm.7-4.4a4.94,4.94,0,0,1-.61.69h2.39a4.35,4.35,0,0,1-.72-.69Zm-.53,1.83h2.22v-.7H120.5Zm.33,3.18h1.58v-.78h-1.58Z"/><path d="M130.77,293.35a4.17,4.17,0,0,0-.05-.78h.71a3.07,3.07,0,0,0-.06.79v.1h2.34a6.66,6.66,0,0,0,1.06-.06v.65a7.64,7.64,0,0,0-1.06-.05h-5.52c0,.4,0,.73,0,.94,0,2.66-.14,3.77-.59,4.91a4.61,4.61,0,0,1-.89,1.44,1.82,1.82,0,0,0-.52-.44,3.93,3.93,0,0,0,.79-1.1,6.23,6.23,0,0,0,.53-2.16c-.34.21-.63.38-1,.59a2.56,2.56,0,0,0-.3.18l-.25-.64a7,7,0,0,0,1.62-.73c0-.44,0-.84,0-1.35a15.51,15.51,0,0,0-.06-2.23,8.83,8.83,0,0,0,1.11,0h2.13Zm-4.26.95a8.35,8.35,0,0,1,.74,1.75l-.48.29a8.36,8.36,0,0,0-.72-1.78Zm5.22,2.62c0,.09,0,.13,0,.24a4.87,4.87,0,0,0,1.84,2,2.59,2.59,0,0,0-.38.48,5.49,5.49,0,0,1-1.64-1.86,3.59,3.59,0,0,1-1.59,1.94,1.77,1.77,0,0,0-.4-.46,2.94,2.94,0,0,0,1.65-2.35h-1.69v3.36a8.88,8.88,0,0,0,0,1h-.68a9,9,0,0,0,0-1v-3c0-.34,0-.61,0-.88a8.2,8.2,0,0,0,1,0h1.38c0-.34,0-.51,0-1.07h-1.66a8.46,8.46,0,0,0-.94,0v-.61a5.86,5.86,0,0,0,.94.05h3.92a6.68,6.68,0,0,0,.94-.05v.61a8.46,8.46,0,0,0-.94,0h-1.69c0,.53,0,.77-.05,1.07h1.44a7.65,7.65,0,0,0,1,0c0,.26,0,.53,0,1v3.09c0,.57-.25.72-1.2.72-.26,0-.44,0-.78,0a1.73,1.73,0,0,0-.17-.6,8.56,8.56,0,0,0,1.05.08c.42,0,.51-.06.51-.32v-3.38Z"/><path d="M136.48,293.65c0-.26,0-.43,0-.72a4.92,4.92,0,0,0,.64,0h1.32a2.59,2.59,0,0,0,.58,0l.31.34a1.92,1.92,0,0,0-.14.31,22.6,22.6,0,0,1-1,2.2A4.32,4.32,0,0,1,139,297a3.44,3.44,0,0,1,.21,1.15c0,.55-.16.84-.51.93a3,3,0,0,1-.75.08h-.34a1.82,1.82,0,0,0-.14-.61,3.47,3.47,0,0,0,.6.06c.46,0,.55-.08.55-.51a2.73,2.73,0,0,0-.35-1.3,4.88,4.88,0,0,0-.72-.95,16,16,0,0,0,1.06-2.36h-1.49v6.93a5.71,5.71,0,0,0,.05.89h-.7a5.89,5.89,0,0,0,.06-.9Zm3.71,3.69a5.44,5.44,0,0,0-.87.05v-.62a7.1,7.1,0,0,0,.88.05h3.61a5.58,5.58,0,0,0,.91-.06v.64a6,6,0,0,0-.91-.06h-1v3c0,.2.11.24.7.24s.67,0,.76-1.5a1.69,1.69,0,0,0,.57.24c-.14,1.68-.25,1.82-1.35,1.82a3.58,3.58,0,0,1-.88-.07c-.31-.08-.4-.2-.4-.52v-3.22h-1a4.25,4.25,0,0,1-.7,2.59,4.12,4.12,0,0,1-2,1.38,2.26,2.26,0,0,0-.43-.51,3.31,3.31,0,0,0,2.12-1.4,3.9,3.9,0,0,0,.46-2.06Zm1.3-4a3.8,3.8,0,0,0-.06-.72h.73a3.26,3.26,0,0,0,0,.73v.38h1.63a8.51,8.51,0,0,0,.92-.05,3.58,3.58,0,0,0,0,.62v.63a4.28,4.28,0,0,0,0,.65h-.62v-1.31h-4.23v1.29h-.6a6.46,6.46,0,0,0,0-.65v-.62a4.09,4.09,0,0,0,0-.61,7.65,7.65,0,0,0,1,.05h1.26Zm-1.39,1.9a4.9,4.9,0,0,0,.73,0h2.22a4.84,4.84,0,0,0,.72,0v.6a5.29,5.29,0,0,0-.72,0h-2.23a5.39,5.39,0,0,0-.72,0Z"/><path d="M55.45,240.48a6.41,6.41,0,0,1-.91,1.18,3.36,3.36,0,0,0-.81-.65,4.85,4.85,0,0,0,.91-1.06,3.68,3.68,0,0,0,.55-1.25l1.06.2c-.17.38-.23.5-.32.69h1.35a5.1,5.1,0,0,0,.85-.05v1c-.23,0-.44,0-.72,0h-.52a4.89,4.89,0,0,1,.43.89l-1,.23a6.88,6.88,0,0,0-.44-1.12ZM55,242.91a4.86,4.86,0,0,0-.82.05v-1a7,7,0,0,0,.89,0h1.55a7.21,7.21,0,0,0,.9,0v1a6.7,6.7,0,0,0-.74,0h-.43v2.16l1-.38,0,1a22,22,0,0,1-2.56.86,6.4,6.4,0,0,0-.69.22l-.25-1.09a7.06,7.06,0,0,0,1.43-.29v-2.44Zm4.69,2.85a7.06,7.06,0,0,0-.84-1.95,7.58,7.58,0,0,1-.36,2,4.18,4.18,0,0,1-1.14,1.77,4.15,4.15,0,0,0-.89-.67,2.76,2.76,0,0,0,1.1-1.44,9.44,9.44,0,0,0,.37-3,6.22,6.22,0,0,0-.06-.86c.24,0,.45,0,.8,0h1.95a6,6,0,0,0,.81,0,9.7,9.7,0,0,0,0,1v3.69c0,.15,0,.18.21.18s.26,0,.3-.17a6.4,6.4,0,0,0,.08-1.28,3,3,0,0,0,.83.38c-.09,1.82-.21,2-1.38,2-.82,0-1-.13-1-.67v-1.43Zm-.4-5.27a7.34,7.34,0,0,1-.72,1,3.86,3.86,0,0,0-.79-.55,4.18,4.18,0,0,0,1.17-2.19L60,239l-.26.64h1.89a6.5,6.5,0,0,0,.94-.05v1a6.73,6.73,0,0,0-.88,0h-.74a6.57,6.57,0,0,1,.37.75l-1,.23a6.25,6.25,0,0,0-.39-1Zm1.12,2.06H58.86c0,.58,0,.83,0,1.12l.66-.43a9.49,9.49,0,0,1,.89,1.73Z"/><path d="M64.37,241.1a11.9,11.9,0,0,1,1.68,1.16l-.6.89a9,9,0,0,0-1.68-1.24Zm1.5,3.23A14.33,14.33,0,0,1,65,246.8c-.09.2-.22.49-.3.64l-.9-.76a9.74,9.74,0,0,0,1.22-3Zm-.1-3.5a8.13,8.13,0,0,0-1.63-1.31l.68-.77a9.81,9.81,0,0,1,1.6,1.27Zm1.85,2.28a10.14,10.14,0,0,1-.34,2.49,6.23,6.23,0,0,1-.84,1.89,3.09,3.09,0,0,0-.86-.74c.82-1.2,1.07-2.5,1.07-5.63,0-.65,0-1.16-.05-1.42a6.73,6.73,0,0,0,1,.05h1.35v-.24a4,4,0,0,0-.06-.9H70a3.92,3.92,0,0,0-.06.91v.23h1.22a4.47,4.47,0,0,0,1-.05l.51.51a2.78,2.78,0,0,0-.18.38c-.17.4-.43.94-.62,1.28a4.29,4.29,0,0,0-1-.31,3.4,3.4,0,0,0,.48-.87H70v1.52h.84a4.6,4.6,0,0,0,.76,0l.54.55a5.44,5.44,0,0,0-.26.56,8.79,8.79,0,0,1-1.31,2.13,6.74,6.74,0,0,0,2.22,1,3.34,3.34,0,0,0-.62,1,7.58,7.58,0,0,1-2.31-1.33,8.4,8.4,0,0,1-2.19,1.37,2.81,2.81,0,0,0-.6-1,6.84,6.84,0,0,0,2.08-1.11,6.31,6.31,0,0,1-1.35-2.3Zm1.32-.9v-1.52H67.66v.65c0,.33,0,.53,0,.87Zm-.18.9a4.4,4.4,0,0,0,1,1.66,5.89,5.89,0,0,0,1-1.66Z"/><path d="M78.75,242a6.49,6.49,0,0,0,1.38,2.51,6.59,6.59,0,0,0,2.65,1.83,3.91,3.91,0,0,0-.7,1.1,7.45,7.45,0,0,1-3.82-4.08,5.81,5.81,0,0,1-1.57,2.57,7.1,7.1,0,0,1-2.29,1.52,3.48,3.48,0,0,0-.67-1,6.27,6.27,0,0,0,2.62-1.79A5,5,0,0,0,77.44,242H75.18a7.38,7.38,0,0,0-1.21.06v-1.2a9,9,0,0,0,1.21.06h2.36c0-.44,0-.67,0-1.05a5.74,5.74,0,0,0-.07-1h1.27A6.85,6.85,0,0,0,78.7,240c0,.41,0,.63,0,1h2.54a9.46,9.46,0,0,0,1.21-.06v1.2a10,10,0,0,0-1.2-.06Z"/><path d="M85.12,244.88a9,9,0,0,0-1.17.06v-1.06a9.94,9.94,0,0,0,1.16.06h2.62v-.07a4.28,4.28,0,0,0,0-.52h.42a5.47,5.47,0,0,0,1.13-.78H86.61a8.93,8.93,0,0,0-1,0v-1a9,9,0,0,0,1,0h3.17a4.11,4.11,0,0,0,.73,0l.53.58-.35.29a13.35,13.35,0,0,1-1.91,1.4h2.49a9.37,9.37,0,0,0,1.18-.06v1.06a8.9,8.9,0,0,0-1.19-.06H88.79v1.68c0,.49-.1.7-.37.8a3.2,3.2,0,0,1-1.11.12l-1,0a3.14,3.14,0,0,0-.32-1,10.14,10.14,0,0,0,1.19.09c.43,0,.5,0,.5-.22v-1.42Zm.5-4.74a5.62,5.62,0,0,0-.72-1.08l1-.29a6.63,6.63,0,0,1,.88,1.37h1a5.19,5.19,0,0,0-.58-1.21l1-.28a7.35,7.35,0,0,1,.66,1.49h.81a6.29,6.29,0,0,0,.79-1.44l1,.29a10.47,10.47,0,0,1-.73,1.15h.44a11,11,0,0,0,1.18,0,6,6,0,0,0,0,.8v.89a5.58,5.58,0,0,0,.05.73H91.32V241H85.07v1.49H84a4,4,0,0,0,0-.74v-.88a6,6,0,0,0,0-.8,9,9,0,0,0,1.14,0Z"/><path d="M94.23,239.81a8,8,0,0,0,0-.9,5.91,5.91,0,0,0,.79,0H96.3a3.55,3.55,0,0,0,.63,0l.52.54-.07.14a.93.93,0,0,0,0,.14,16.88,16.88,0,0,1-1,2.26,3.36,3.36,0,0,1,.71,2.1c0,1.07-.36,1.48-1.27,1.48h-.3a.54.54,0,0,0,0-.11,1.69,1.69,0,0,0-.21-.88l.45,0c.3,0,.41-.13.41-.5a3,3,0,0,0-.14-.93,2.86,2.86,0,0,0-.65-1.09,13.17,13.17,0,0,0,.86-2.21h-1v6.48a11.59,11.59,0,0,0,0,1.16H94.17a9.28,9.28,0,0,0,.06-1.2Zm3.49,4.05c0-.34,0-.4,0-1.16a3.46,3.46,0,0,1-.48.81,3.26,3.26,0,0,0-.49-1,7.82,7.82,0,0,0,1.39-2.58,7,7,0,0,0,.33-1.32l1,.35c0,.09-.11.32-.17.53a15.38,15.38,0,0,1-.62,1.71v5.06a9.5,9.5,0,0,0,0,1.25H97.66a11.78,11.78,0,0,0,.06-1.31Zm2.18,1.22a9.5,9.5,0,0,0-1-2.33l.81-.47a10.65,10.65,0,0,1,1.08,2.22Zm0-3.37a6.37,6.37,0,0,0-.83,0v-1a6.71,6.71,0,0,0,.89,0h1v-.95a6.87,6.87,0,0,0-.06-1.08H102a8.66,8.66,0,0,0,0,1.1v.93a7.17,7.17,0,0,0,.8-.05v1.06a5.45,5.45,0,0,0-.8,0v4.65a1.09,1.09,0,0,1-.22.77c-.19.21-.48.28-1.14.28-.33,0-.58,0-1,0a2.68,2.68,0,0,0-.23-1,6.81,6.81,0,0,0,1,.09c.43,0,.53-.05.53-.27v-4.48Z"/><path d="M108.41,245.31h-1.76v1.36a7.33,7.33,0,0,0,0,.87h-1.06a9.37,9.37,0,0,0,0-1v-1.28a7.2,7.2,0,0,0,0-.78,6.17,6.17,0,0,0,.87,0h1.91v-.36h-1.54c-.43,0-.59,0-.79,0,0-.09,0-.09,0-.24s0-.22,0-.39v-.66c0-.2,0-.41,0-.64.27,0,.32,0,.86,0h1.47v-.31l-2.19.07a2.16,2.16,0,0,0-.34-.7l.73,0c1,0,2.52-.08,3.27-.16a7.85,7.85,0,0,0,1.1-.2h-5.35c-.06,3.49-.3,4.88-1.11,6.54a4.37,4.37,0,0,0-.84-.87c.73-1.41.95-2.91.95-6.74a7.57,7.57,0,0,0-.06-1,11.13,11.13,0,0,0,1.26.05h5.25a10.74,10.74,0,0,0,1.11,0,5.48,5.48,0,0,0,0,.74v.59a7.51,7.51,0,0,0,0,.78c-.31,0-.6,0-1.09,0l.61.61a18.9,18.9,0,0,1-2.35.3v.37H111c.39,0,.59,0,.84,0a.92.92,0,0,0,0,.15,3.8,3.8,0,0,0,0,.53v.63q0,.27,0,.63c-.26,0-.37,0-.8,0h-1.67v.36h2.06c.46,0,.69,0,.94,0,0,.23,0,.45,0,.85v1.34a.72.72,0,0,1-.34.71,1.73,1.73,0,0,1-.87.13l-.75,0a3,3,0,0,0-.18-.86l.28,0-.1-.23c-.9.16-1.48.23-3.12.39l-.22,0-.14-.88h.49c.25,0,.49,0,1-.05Zm2.76-5.13v-.44h-5.54v.44Zm-4.1,2.78v.47h1.34V243Zm2.29.47h1.46V243h-1.46Zm0,2.42.64-.08c-.06-.1-.09-.13-.16-.23l.45-.23h-.93Zm1.12-.54a7.69,7.69,0,0,1,.68,1.16l-.4.21h.32c.19,0,.25-.05.25-.22v-1.16Z"/><path d="M55.15,259.63a11.05,11.05,0,0,1-.55,3.23l-.77-.46a9.64,9.64,0,0,0,.54-3Zm2.28-1.5H58a5.27,5.27,0,0,0,1-.05c0,.26,0,.29-.05,1.09a10.81,10.81,0,0,1-.45,3.59c-.21.37-.6.53-1.3.53a6.29,6.29,0,0,1-.65,0,.59.59,0,0,0,0-.17,2.62,2.62,0,0,0-.21-1,6.81,6.81,0,0,0,.87.11c.28,0,.4-.17.5-.67a11.41,11.41,0,0,0,.13-1.85v-.61H55.36c-.41,0-.77,0-1,0a9.69,9.69,0,0,0,0-1.14v-3.56a12.62,12.62,0,0,0,0-1.32,10.16,10.16,0,0,0,1.29.05h1.81a9.49,9.49,0,0,0,1.26-.06v1.13a6.94,6.94,0,0,0-1-.05h-.3v.71h.22a4.47,4.47,0,0,0,.8,0v1a4.68,4.68,0,0,0-.8,0h-.22v.66h.22a5.94,5.94,0,0,0,.78,0,1.44,1.44,0,0,0-.28-.21,3.74,3.74,0,0,0,.83-1,7.11,7.11,0,0,0,1-2.5l1.24.4a9.48,9.48,0,0,0-.38,1h2.43a7.56,7.56,0,0,0,1.11-.05c0,.51,0,.69,0,2A38.85,38.85,0,0,1,64,261.8a1.61,1.61,0,0,1-.76,1.27,2.6,2.6,0,0,1-1.32.23h-.69a2.93,2.93,0,0,0-.33-1.21c.34,0,.66.06,1,.06.53,0,.75-.09.84-.35a9.73,9.73,0,0,0,.3-2.87c0-.59,0-1.52,0-3.76H60.32a7.63,7.63,0,0,1-.58,1.06h1.84a7.21,7.21,0,0,0,.89,0c0,.27,0,.5,0,.81v2.95c0,.3,0,.54,0,.76a5.7,5.7,0,0,0-.8,0h-1.2v.91H59.29a7.9,7.9,0,0,0,.05-1v-3.83l-.32.38a2.94,2.94,0,0,0-.57-.69v1a7,7,0,0,0-.8-.05h-.22Zm-1.52,1.39a21.33,21.33,0,0,1,.17,2.44v.39l-.74.15c0-.56,0-.83,0-1.16a16.46,16.46,0,0,0-.09-1.71Zm.5-5.35h-.92v.71h.92Zm0,1.63h-.92v.66h.92Zm-.92,1.58v.75h.92v-.75Zm1.18,2.08A19.47,19.47,0,0,1,57,261.7l-.63.21a14,14,0,0,0-.29-2.33Zm.7-.1a7.78,7.78,0,0,1,.42,1.56l-.57.21a8.05,8.05,0,0,0-.36-1.63Zm3.07.28h.92v-2.42h-.92Z"/><path d="M70.57,259.86a6.82,6.82,0,0,1-1.4,1,2.5,2.5,0,0,0-.45-.61,24.63,24.63,0,0,1-2.29,1.21l-.15.08-.11.06-.29-1.34a8.73,8.73,0,0,0,1.3-.47v-3h-.34a5,5,0,0,0-.89.06v-1.23a5.92,5.92,0,0,0,.9.05h.33v-1.43a8,8,0,0,0-.08-1.28h1.35a7.44,7.44,0,0,0-.07,1.28v1.43h.21a5.76,5.76,0,0,0,.81,0v1.19c-.26,0-.48,0-.81,0h-.21v2.47l.78-.43v.8a4.59,4.59,0,0,0,1.36-1.18h-.26a8.66,8.66,0,0,0-1.06.06v-1.15a5.69,5.69,0,0,0,1.07.06h5a8.87,8.87,0,0,0,1.2-.06v1.14c-.35,0-.67-.05-1.19-.05H71.8a4,4,0,0,1-.32.48h3.66c.57,0,.77,0,1.13,0,0,.19,0,.36,0,.68a10.27,10.27,0,0,1-.46,3.12c-.24.53-.62.69-1.62.69-.29,0-.51,0-1,0a2.57,2.57,0,0,0-.31-1.06A7.69,7.69,0,0,1,71,263.5a3.79,3.79,0,0,0-.83-.87,7.32,7.32,0,0,0,2.1-1.24,5.34,5.34,0,0,0,1.19-1.53h-.69a7.06,7.06,0,0,1-3.2,2.52,2.64,2.64,0,0,0-.72-.87,6.11,6.11,0,0,0,2.66-1.65Zm.35-3a9.46,9.46,0,0,0-1.06,0,8.83,8.83,0,0,0,0-1.11v-1.68a7.76,7.76,0,0,0,0-1,7.57,7.57,0,0,0,1.17.06h3.36a8,8,0,0,0,1.23-.06,10.42,10.42,0,0,0,0,1.14v1.59a9.3,9.3,0,0,0,0,1.08l-1,0Zm.18-2.23h3.26v-.49H71.1Zm0,1.31h3.26v-.47H71.1Zm3.5,3.9a6.56,6.56,0,0,1-1.6,2.25,8.23,8.23,0,0,0,1.18.1c.42,0,.54-.12.65-.61a12.6,12.6,0,0,0,.21-1.74Z"/><path d="M82.49,254a7.46,7.46,0,0,0-.07-1.26h1.46a8.36,8.36,0,0,0-.07,1.22v.75H87a7.38,7.38,0,0,0,1.06,0,7.54,7.54,0,0,0-.05,1v3.51a7.44,7.44,0,0,0,.06,1.15H86.65v-.68H83.81V262a8.78,8.78,0,0,0,.08,1.44H82.4a9,9,0,0,0,.09-1.44v-2.32H79.78v.68H78.41a7.83,7.83,0,0,0,.06-1.15v-3.52a8,8,0,0,0,0-1,7.67,7.67,0,0,0,1,0h3ZM79.78,256v2.49h2.71V256Zm6.87,2.49V256H83.81v2.49Z"/><path d="M96.64,258.09a1.43,1.43,0,1,1-1.43-1.43A1.43,1.43,0,0,1,96.64,258.09Z"/><path d="M106.48,253.45a4.08,4.08,0,0,0-.06-.71h1.4a4.17,4.17,0,0,0-.06.71v.14h3.41a8.24,8.24,0,0,0,1.2-.07v1.18a8.4,8.4,0,0,0-1.2-.06h-8a8.11,8.11,0,0,0-1.18.06v-1.18a8.47,8.47,0,0,0,1.24.07h3.2Zm-4.12,5.66a8.73,8.73,0,0,0,0-1c.36,0,.72.05,1.2.05H111a10.46,10.46,0,0,0,1.14-.05c0,.35,0,.63,0,1V262c0,.56-.06.79-.28,1s-.58.28-1.39.28l-.66,0-.37,0a3.16,3.16,0,0,0-.24-1.15,13.65,13.65,0,0,0,1.44.11c.21,0,.27-.05.27-.24v-2.87h-7.25v3.06a10.77,10.77,0,0,0,.06,1.27h-1.35a7.88,7.88,0,0,0,.07-1.27Zm1.43-3.23a6.4,6.4,0,0,0,0-.82c.31,0,.6,0,1.13,0h4.78c.49,0,.72,0,1,0a6.74,6.74,0,0,0,0,.84v1a6.06,6.06,0,0,0,0,.84c-.3,0-.57,0-1.09,0h-4.76c-.48,0-.76,0-1.09,0a6.35,6.35,0,0,0,0-.84Zm5.88,5.36c0,.33,0,.56,0,.78a8.89,8.89,0,0,0-1,0h-2.91v.58h-1.19a5.42,5.42,0,0,0,0-.94v-1.33c0-.33,0-.55,0-.76a7.93,7.93,0,0,0,.93,0h3.17a6.93,6.93,0,0,0,.93,0,7.48,7.48,0,0,0,0,.75ZM105,256.72h4.45V256H105Zm.85,4.35h2.73v-.63h-2.73Z"/><path d="M230.24,152.19a9.35,9.35,0,0,1,1.45,1.07l-.34.48a6.56,6.56,0,0,0-1.44-1.15Zm1.47,2.88a13.72,13.72,0,0,1-1.11,2.34c-.08.13-.11.19-.17.3l-.5-.44a7.79,7.79,0,0,0,1.34-2.54Zm-1-4.93a7.82,7.82,0,0,1,1.4,1.12l-.35.44a7,7,0,0,0-1.39-1.17Zm4.32,3.34a4.24,4.24,0,0,0-.07.89c0,.13,0,.14,0,.73a3.13,3.13,0,0,0,1.16,1.32,5,5,0,0,0,1.76.76,2,2,0,0,0-.31.59,6.29,6.29,0,0,1-1.64-.82,3.94,3.94,0,0,1-1.24-1.32A2.91,2.91,0,0,1,233.6,157a5.85,5.85,0,0,1-1.66.78,1.76,1.76,0,0,0-.33-.53,3.63,3.63,0,0,0,2.27-1.27,3.28,3.28,0,0,0,.53-2,2.27,2.27,0,0,0,0-.48Zm0-3.44a5.24,5.24,0,0,0-.08,1.42,2.54,2.54,0,0,0,1,1.31,4.23,4.23,0,0,0,1.67.68,2,2,0,0,0-.3.58,5.11,5.11,0,0,1-1.6-.8,3,3,0,0,1-1.07-1.22,2.9,2.9,0,0,1-.79,1.21,4.12,4.12,0,0,1-1.58.88,1.71,1.71,0,0,0-.32-.51,3.14,3.14,0,0,0,1.92-1.17,3,3,0,0,0,.48-1.9,1.93,1.93,0,0,0,0-.47Zm-3,5.62a3.27,3.27,0,0,0,.88-1.44l.52.19a4.78,4.78,0,0,1-.92,1.51Zm.11-3.62a3.23,3.23,0,0,0,.9-1.47l.52.18a4.87,4.87,0,0,1-.94,1.55Zm3.48,3.45a4.12,4.12,0,0,0,.93-1.33l.54.28a8.37,8.37,0,0,1-1,1.31Zm.08-3.55a4.49,4.49,0,0,0,1-1.42l.54.26a7.76,7.76,0,0,1-1,1.41Z"/><path d="M241.55,155.36h-.74a7,7,0,0,0-.72,0,4.55,4.55,0,0,0,0-.78l0-3.21a4.47,4.47,0,0,0,0-.67,6.47,6.47,0,0,0,.69,0h1a4.6,4.6,0,0,0,.4-.86l.57.1a5.76,5.76,0,0,1-.42.76h2.13a6,6,0,0,0,.7-.05,2.31,2.31,0,0,0,0,.55v1.43a5.28,5.28,0,0,0,0,.59,5.5,5.5,0,0,0-.68,0l-3.8,0v.58l5.05,0a7.76,7.76,0,0,0,.81-.06v.55c-.27,0-.5,0-.83,0l-5,0v.62l4.94,0,.69,0a3,3,0,0,0-.06.48,6.22,6.22,0,0,1-.4,2c-.16.26-.4.34-.91.34-.22,0-.37,0-.65,0a1.65,1.65,0,0,0-.14-.55,6.1,6.1,0,0,0,.85.08c.29,0,.39-.07.46-.29a10.15,10.15,0,0,0,.25-1.55l-3.62,0v1.13h1.63v-.42a2.43,2.43,0,0,0,0-.49h.59a2.74,2.74,0,0,0,0,.51v.44c0,.17,0,.31,0,.45h-.62L240,157v.4h-.57a2.9,2.9,0,0,0,.05-.67v-.56a2.05,2.05,0,0,0,0-.51h.6a3.48,3.48,0,0,0,0,.49v.39h1.52Zm3-3.6v-.59l-3.9,0v.59Zm-3.89,1.07,3.9,0v-.62l-3.89,0Z"/><path d="M247.86,153.33a2.79,2.79,0,0,0,.62,0h.4a3.34,3.34,0,0,0,.66-.05,5.87,5.87,0,0,0,0,.92v1.68a1.47,1.47,0,0,0,.71.75,4.44,4.44,0,0,0,2.13.29,27.11,27.11,0,0,0,3.46-.21,3.15,3.15,0,0,0-.2.64c-1,.05-2,.07-2.79.08-1.71,0-2.22-.05-2.77-.34a2.13,2.13,0,0,1-.84-.75c-.26.3-.36.4-.59.63l-.33.3a1.87,1.87,0,0,1-.24.21l-.29-.56a5,5,0,0,0,1.23-1l0-2.07h-.53a2.32,2.32,0,0,0-.57,0Zm.45-3.27a11,11,0,0,1,1.4,1.52l-.44.4a8,8,0,0,0-1.35-1.56Zm4.21,1.73a7.08,7.08,0,0,0-1.15-.72l.38-.29a10.67,10.67,0,0,1,1.17.77,7.87,7.87,0,0,0,1.33-.92l-3.19,0a5,5,0,0,0-.87,0v-.55a5.3,5.3,0,0,0,.91,0l3,0a6.06,6.06,0,0,0,.88-.05l.22.32a1.06,1.06,0,0,0-.22.16,8.82,8.82,0,0,1-1.72,1.17h1.14a6.1,6.1,0,0,0,.94-.06,9.62,9.62,0,0,0,0,1.07l0,2.84c0,.54-.13.67-.75.67H254a1.59,1.59,0,0,0-.12-.51,3.81,3.81,0,0,0,.72.06c.2,0,.24,0,.24-.24v-.84H253v.54a4.62,4.62,0,0,0,.06.94h-.61a5.5,5.5,0,0,0,.05-.93v-.54h-1.61v.66a4.8,4.8,0,0,0,.06.91h-.62a6.59,6.59,0,0,0,.05-.91l0-2.73a7,7,0,0,0,0-1,7.82,7.82,0,0,0,.93,0Zm-1.63.44v.85h1.62v-.85Zm0,2.13h1.61v-.87H250.9Zm2.1-1.3h1.81v-.84H253Zm1.81.4-1.81,0v.87h1.81Z"/><path d="M259.75,150.52a.59.59,0,0,1-.05.12,1,1,0,0,0-.13.29c-.06.23-.14.74-.19,1.08s-.05.68-.09,1.36a3.12,3.12,0,0,1,0,.33l0,0,.09-.16a2.78,2.78,0,0,1,.17-.29l.4-.7a1.06,1.06,0,0,0,.18.35.3.3,0,0,1,0,.1c0,.05,0,.05-.21.42a4.74,4.74,0,0,0-.52,1.19c0,.14-.07.15-.34.15s-.26,0-.28,0a4.78,4.78,0,0,1-.06-1.12,13.45,13.45,0,0,1,.19-2.52,4.41,4.41,0,0,0,.07-.81C259.47,150.31,259.75,150.41,259.75,150.52Zm2.6,0c.25,0,.29,0,.29.17v.19c0,.16,0,.4,0,.78s.05.88.05,1.28a5.26,5.26,0,0,1-1.16,3.73,2.46,2.46,0,0,1-.91.79s0,0-.1,0l0,0,0,0a1.76,1.76,0,0,0-.39-.18,4.19,4.19,0,0,0,1.54-1.72,5.28,5.28,0,0,0,.51-2.54,9.13,9.13,0,0,0-.25-2.37A3.62,3.62,0,0,1,262.35,150.48Z"/><path d="M301.36,167.24a4.07,4.07,0,0,0,.05-.61l.51.08a3.41,3.41,0,0,0-.13.59l-.05.32,1.4.22a5.55,5.55,0,0,0,.7.08l-.07.45a6.48,6.48,0,0,0-.68-.15l-1.41-.22-.22,1.35,2.07.33c.3,0,.5.06.71.07l-.08.46a4.53,4.53,0,0,0-.69-.15l-4.44-.7a6.37,6.37,0,0,0-.7-.07l.07-.47a5,5,0,0,0,.7.16l1.94.3.21-1.35-1.34-.21a6.55,6.55,0,0,0-.68-.07l.07-.45a4.08,4.08,0,0,0,.67.14l1.34.21Zm-1.44-2.89c-.28,0-.5-.06-.7-.07l.07-.47a3.65,3.65,0,0,0,.69.15l4.26.68c.3,0,.51.06.71.07l-.08.46c-.19,0-.39-.1-.68-.15l-2.45-.38a9.81,9.81,0,0,1-1,1.35,26.18,26.18,0,0,0,2.63.23,6.28,6.28,0,0,0-.65-.82l.35-.18a11.32,11.32,0,0,1,1.33,1.82l-.39.23c-.18-.34-.24-.45-.38-.68-1.07,0-2.59-.16-3.59-.28a6.38,6.38,0,0,0-.83-.09v-.47a3.3,3.3,0,0,0,.54.1c.12,0,.24,0,.51.08a8.82,8.82,0,0,0,1-1.37Z"/><path d="M309,169.07a11.67,11.67,0,0,1-1.16,1.66,2,2,0,0,0-.18.22l-.33-.41a5.79,5.79,0,0,0,1.36-1.79Zm-.83-2.38a8.88,8.88,0,0,1,1,1l-.33.33a5.43,5.43,0,0,0-1-1.07Zm.63-1.52a5.59,5.59,0,0,1,.93,1l-.33.3a5.6,5.6,0,0,0-.92-1.09Zm2.08,5.21a9.28,9.28,0,0,1-1.59.68,2.68,2.68,0,0,0-.28.1l-.16-.47a3.05,3.05,0,0,0,.76-.2,6.73,6.73,0,0,0,1.19-.53Zm2.2-2.3a4.09,4.09,0,0,0,.69.07l-.07.45a5.73,5.73,0,0,0-.67-.15l-3.1-.49a4.58,4.58,0,0,0-.65-.06l.07-.44a5.83,5.83,0,0,0,.62.13l.21,0,.19-1.19a3.17,3.17,0,0,0,.05-.58l.49.08a3,3,0,0,0-.13.57l-.19,1.19.84.13.27-1.72a3.32,3.32,0,0,0,.05-.58l.5.07a3,3,0,0,0-.14.59l-.05.33,1,.16a3.71,3.71,0,0,0,.61.05l-.07.45a4.16,4.16,0,0,0-.6-.13l-1-.16-.16,1Zm-3.13.14a8.6,8.6,0,0,1,1.08,1.1l-.35.29a5.43,5.43,0,0,0-1.07-1.12Zm2.88,3.56a8.26,8.26,0,0,0-1.49-1.43l.33-.24a10.13,10.13,0,0,1,1.47,1.32Zm-1.36-2.28a4.8,4.8,0,0,0,.83-.44,2.85,2.85,0,0,0,.56-.43l.33.32a7.75,7.75,0,0,1-1.48.9Z"/><path d="M318.08,167.85a4.79,4.79,0,0,0,.94,1.52,6.25,6.25,0,0,0,1.57,1.33,2.22,2.22,0,0,0-.32.36,7.67,7.67,0,0,1-.93-.75c0,.07,0,.14-.06.35l-.22,1.43a3.91,3.91,0,0,0-.07.69l-.47-.08.06-.37-2.77-.44-.06.37-.46-.07a5.49,5.49,0,0,0,.14-.67l.23-1.41c0-.17,0-.21,0-.34a6.44,6.44,0,0,1-1.06.43,2,2,0,0,0-.21-.41,5.84,5.84,0,0,0,1.79-.77,4.48,4.48,0,0,0,1.39-1.24Zm-.62-1.16a4.89,4.89,0,0,1-1.25,1,6.92,6.92,0,0,1-1,.43,1.38,1.38,0,0,0-.26-.4,5.85,5.85,0,0,0,1.18-.52,3.13,3.13,0,0,0,.95-.84Zm-1.59,4.82,2.78.44.24-1.52-2.78-.43Zm3-1.47.26,0a6.6,6.6,0,0,1-.73-.87,5,5,0,0,1-.57-1A6,6,0,0,1,316,169.6l.2,0Zm.15-3.37a4.83,4.83,0,0,0,.92,1.29,6.55,6.55,0,0,0,.76.64,2.72,2.72,0,0,0-.34.34,6.44,6.44,0,0,1-1.72-2.08Z"/><path d="M5.12,146a5.17,5.17,0,0,0-.7.11l0-.47a4.58,4.58,0,0,0,.7,0l4.3-.41a6.52,6.52,0,0,0,.7-.11l0,.47a6,6,0,0,0-.7,0L7,145.78a8.33,8.33,0,0,1-.67,1.57c.84-.09,1.81-.26,2.61-.43a6.66,6.66,0,0,0-.83-.64l.29-.25a9.85,9.85,0,0,1,1.74,1.43l-.31.31c-.26-.28-.35-.37-.55-.56-1,.23-2.54.5-3.54.62a7.46,7.46,0,0,0-.82.13l-.13-.46a4.45,4.45,0,0,0,.55,0l.51-.06a7.9,7.9,0,0,0,.67-1.58Zm2.11,2.43a4,4,0,0,0-.09-.59l.51-.05a3.92,3.92,0,0,0,0,.59l0,.33,1.41-.13a6.52,6.52,0,0,0,.7-.11l0,.46a4.29,4.29,0,0,0-.69,0l-1.43.14.14,1.35,2.08-.2a4.7,4.7,0,0,0,.7-.11l0,.48a3.48,3.48,0,0,0-.71,0L5.51,151a4.63,4.63,0,0,0-.7.12l0-.48a4.71,4.71,0,0,0,.71,0l2-.18L7.3,149.1,6,149.23a3.79,3.79,0,0,0-.68.1l0-.45a6.24,6.24,0,0,0,.69,0l1.35-.13Z"/><path d="M15.11,144.84a2,2,0,0,0-.09-.48l.49,0a3.92,3.92,0,0,0,0,.48l0,.17,1.55-.15,0-.17a3.7,3.7,0,0,0-.09-.48l.49,0a2,2,0,0,0,0,.48l0,.17,1-.09a6.45,6.45,0,0,0,.76-.12l0,.45c-.21,0-.4,0-.76,0l-1,.1,0,.2a3.71,3.71,0,0,0,.07.44l-.46,0a3.24,3.24,0,0,0,0-.43l0-.21-1.54.15,0,.2a2.6,2.6,0,0,0,.06.44l-.46,0a3.63,3.63,0,0,0,0-.44l0-.2-1,.1a5.53,5.53,0,0,0-.74.1l0-.45a5.31,5.31,0,0,0,.75,0l1-.1Zm3.59,1.38a5.44,5.44,0,0,0,.73-.11l0,.47a4.86,4.86,0,0,0-.74,0l-2.67.25a6.26,6.26,0,0,1-.58.95l2.71-.26a3.85,3.85,0,0,0,.62-.09c0,.22,0,.38,0,.64l.12,1.25a4.44,4.44,0,0,0,.1.62l-.47.05,0-.39-2.87.28,0,.38-.47,0a3.52,3.52,0,0,0,0-.64l-.14-1.42a9.28,9.28,0,0,1-1.06.94l0-.06a1.14,1.14,0,0,0-.27-.27,5,5,0,0,0,1.87-2l-1.25.12c-.28,0-.53.07-.74.11l0-.46a5.13,5.13,0,0,0,.75,0l1.48-.15a2.34,2.34,0,0,0,.2-.75l.51.05-.11.29c-.05.14-.08.21-.15.37Zm-3,3.31,2.87-.28-.13-1.34-2.87.28Z"/><path d="M22.12,145.36a4.43,4.43,0,0,0,1.14,1.44,1.45,1.45,0,0,0-.25.36,5.13,5.13,0,0,1-.9-1.28c0,.29.1.76.13,1.08l.19,1.95a5.24,5.24,0,0,0,.12.77l-.5,0a5.82,5.82,0,0,0,0-.77l-.18-1.82c0-.34-.05-.78-.05-1.14a6.48,6.48,0,0,1-.45,1.43,5.48,5.48,0,0,1-.5.86,1.44,1.44,0,0,0-.33-.32,5.32,5.32,0,0,0,.76-1.35,8.4,8.4,0,0,0,.37-1.2l-.47.05a4.2,4.2,0,0,0-.67.1l-.05-.46a4.32,4.32,0,0,0,.69,0l.5-.05-.07-.75a4.63,4.63,0,0,0-.1-.6l.49-.05a3,3,0,0,0,0,.59l.07.77.32,0a3.33,3.33,0,0,0,.63-.1l.05.45a4.86,4.86,0,0,0-.65,0Zm3.47-.71a5,5,0,0,0,.69-.11l0,.46a5.59,5.59,0,0,0-.68,0l-.68.07a7.68,7.68,0,0,0,.7,1.24,4.88,4.88,0,0,0,1.2,1.28,2,2,0,0,0-.3.38,6.62,6.62,0,0,1-1.68-2.39c.05.28.08.5.11.78l.22,2.33a6,6,0,0,0,.12.7l-.5.05a5.67,5.67,0,0,0,0-.71l-.22-2.23c0-.16,0-.6,0-.84a6.23,6.23,0,0,1-1.26,2.74,1,1,0,0,0-.35-.29,5.77,5.77,0,0,0,1-1.71,7.09,7.09,0,0,0,.39-1.27l-.48,0c-.23,0-.45.06-.64.1l0-.45a5,5,0,0,0,.65,0l.56-.06-.07-.69a5.86,5.86,0,0,0-.09-.66l.48,0a4,4,0,0,0,0,.67l.06.69Z"/><path d="M170,39.73a8.38,8.38,0,0,1-.68,3.08l-.51-.31a6.9,6.9,0,0,0,.66-2.9Zm2-1.16h.76a6.56,6.56,0,0,0,1.07,0,6.22,6.22,0,0,0,0,.74,19.37,19.37,0,0,1-.31,3.2c-.17.75-.38.92-1.1.92a6.61,6.61,0,0,1-.88-.07v-.1a2.31,2.31,0,0,0-.12-.62,5.23,5.23,0,0,0,1,.16c.37,0,.48-.17.6-1a19.91,19.91,0,0,0,.16-2.37v-.22h-2.62c-.39,0-.75,0-1,0,0-.28,0-.54,0-1.19V33.92c0-.09,0-.21,0-.44a7.71,7.71,0,0,0,1.27.06h1.63a8.44,8.44,0,0,0,1.18-.06v.72a7.24,7.24,0,0,0-1.08-.06h-.45v1.07h.3a5.15,5.15,0,0,0,1-.06v.68a5.34,5.34,0,0,0-1-.06h-.3v1.07h.29a6.6,6.6,0,0,0,1-.05v.66a8.77,8.77,0,0,0-1-.05h-.29Zm-.6-4.43h-1.28v1.07h1.28Zm0,1.63h-1.28v1.07h1.28Zm-1.28,1.63v1.17h1.28V37.4Zm.71,2.32a20.34,20.34,0,0,1,.2,2.56l-.58.09c0-.21,0-.39,0-.49a18.55,18.55,0,0,0-.12-2.09Zm.8,0a16.62,16.62,0,0,1,.41,2.08l-.51.16a10.55,10.55,0,0,0-.36-2.13Zm.74-.11a8,8,0,0,1,.47,1.55l-.43.17a8.6,8.6,0,0,0-.43-1.59Zm5.75-5.1a8.32,8.32,0,0,0,1,0,11.63,11.63,0,0,0-.06,1.51,46,46,0,0,1-.26,5.78,2,2,0,0,1-.63,1.44,2.36,2.36,0,0,1-1.35.24H176a2.09,2.09,0,0,0-.2-.77,5.24,5.24,0,0,0,1.1.1c.72,0,.95-.13,1.08-.63a18.36,18.36,0,0,0,.3-3.18c0-.53,0-1.68,0-3.77H174.9a7.6,7.6,0,0,1-1.17,1.9,1.82,1.82,0,0,0-.54-.48,5.69,5.69,0,0,0,1.2-1.94,7.1,7.1,0,0,0,.45-1.57l.75.2c-.07.19-.12.3-.23.63s-.12.37-.2.59ZM177.2,40c0,.28,0,.44,0,.69a5.39,5.39,0,0,0-.78,0h-1.38v1h-.72a8.92,8.92,0,0,0,0-1V37.29c0-.38,0-.58,0-.8a6,6,0,0,0,.91,0h1a5.73,5.73,0,0,0,.92-.05c0,.28,0,.47,0,.81Zm-2.15,0h1.49V37.14h-1.49Z"/><path d="M182.43,34.52a8.47,8.47,0,0,0-.07-1.27h.84a8.88,8.88,0,0,0-.06,1.27v1.6h.29a6,6,0,0,0,.95,0v.75a7.92,7.92,0,0,0-1,0h-.28v3a9.88,9.88,0,0,0,1-.58l0,.68a20.86,20.86,0,0,1-2.39,1.31c-.17.07-.5.24-.61.3l-.22-.82a5.83,5.83,0,0,0,1.49-.55v-3.3h-.49a5.93,5.93,0,0,0-1,.06v-.77a5.89,5.89,0,0,0,1,.06h.47Zm3.24,5.26a7.36,7.36,0,0,1-1.94,1.54,2,2,0,0,0-.46-.53,5.39,5.39,0,0,0,2.65-2.43h-.68a7.78,7.78,0,0,0-1,.06v-.73a5.39,5.39,0,0,0,1.05.06h4.92a6.14,6.14,0,0,0,1.14-.07v.73a10.6,10.6,0,0,0-1.14,0h-3.51a8,8,0,0,1-.54.85h3.81a9.74,9.74,0,0,0,1.13-.05,4.66,4.66,0,0,0-.06.68,11.89,11.89,0,0,1-.5,3.07c-.22.41-.5.53-1.28.53a9.27,9.27,0,0,1-1,0,2.13,2.13,0,0,0-.23-.74,9.23,9.23,0,0,0,1.32.13c.41,0,.54-.08.63-.38a11.5,11.5,0,0,0,.35-2.62h-.75a7.1,7.1,0,0,1-1,1.74,11.12,11.12,0,0,1-1.41,1.42,7.75,7.75,0,0,1-.94.64,1.81,1.81,0,0,0-.53-.54,7.14,7.14,0,0,0,2.26-1.75,6,6,0,0,0,1-1.51h-1.14a7.94,7.94,0,0,1-3.17,2.88,1.77,1.77,0,0,0-.49-.54,6.62,6.62,0,0,0,2.9-2.34ZM186,37a9.28,9.28,0,0,0-1,0,10.24,10.24,0,0,0,0-1V34.5a8.91,8.91,0,0,0,0-1,6.76,6.76,0,0,0,1.1.06h3a8,8,0,0,0,1.2-.06,9.9,9.9,0,0,0,0,1.07V36a7.62,7.62,0,0,0,0,1c-.24,0-.6,0-1.06,0Zm-.32-2h3.87v-.83H185.7Zm0,1.45h3.87v-.89H185.7Z"/><path d="M194.37,35a8.2,8.2,0,0,0-1.37.07v-.81a8.7,8.7,0,0,0,1.4.08h3.27v-.09a5.8,5.8,0,0,0-.08-1.11h.85a7.14,7.14,0,0,0-.07,1.11v.09h3.43a7.82,7.82,0,0,0,1.44-.08v.81a11.89,11.89,0,0,0-1.42-.07h-3.45v.95h2.49a7.9,7.9,0,0,0,1.32-.06,12.09,12.09,0,0,0,0,1.21v1.7a9.39,9.39,0,0,0,0,1.22,8.35,8.35,0,0,0-1.32-.06h-2a9,9,0,0,0,4.74,2.55,2.92,2.92,0,0,0-.45.72,12.28,12.28,0,0,1-2.59-1.14,8.29,8.29,0,0,1-2.27-1.88c0,.28,0,.68,0,.9v1.18a7.18,7.18,0,0,0,.07,1.27h-.85a7.44,7.44,0,0,0,.08-1.27V41.11c0-.21,0-.53,0-.89a6.2,6.2,0,0,1-1.35,1.31,10.74,10.74,0,0,1-3.21,1.68,3.17,3.17,0,0,0-.44-.69,9.23,9.23,0,0,0,2.8-1.23A6.31,6.31,0,0,0,197.12,40h-1.68a8.34,8.34,0,0,0-1.34.06v-.13c0-.25,0-.45,0-1.09V37.12a12.39,12.39,0,0,0,0-1.24,7.34,7.34,0,0,0,1.28.06h2.29V35Zm.49,1.55V37.6h2.81V36.54Zm0,1.64v1.18h2.81V38.18Zm3.51-.58h3V36.54h-3Zm0,1.76h3V38.18h-3Z"/><path d="M210.46,36.71a9.06,9.06,0,0,0,1.89,3.71,8,8,0,0,0,3.12,2.24,3.68,3.68,0,0,0-.51.77,8.94,8.94,0,0,1-4.83-5.69,7.3,7.3,0,0,1-2.26,4.14,8.81,8.81,0,0,1-2.49,1.57,2.49,2.49,0,0,0-.5-.7,7.45,7.45,0,0,0,3-2,7.08,7.08,0,0,0,1.6-4h-3.14a6.87,6.87,0,0,0-1.27.08v-.9a6.77,6.77,0,0,0,1.3.09h3.18c0-.6,0-.89,0-1.47a7.29,7.29,0,0,0-.09-1.16h.95a8.2,8.2,0,0,0-.08,1.2c0,.58,0,.92,0,1.43h3.49a6.62,6.62,0,0,0,1.27-.09v.9a7.09,7.09,0,0,0-1.26-.08Z"/><path d="M220.46,34.83a8.72,8.72,0,0,0-1.22-1.6l.68-.29a9.39,9.39,0,0,1,1.33,1.89h1.66A7.92,7.92,0,0,0,224.2,33l.75.28a11.48,11.48,0,0,1-1.25,1.6h2.36a6.76,6.76,0,0,0,1.15-.08v.79a8.59,8.59,0,0,0-1.15-.07H218.2a9.07,9.07,0,0,0-1.15.07v-.79a5.88,5.88,0,0,0,1.15.08Zm-1.88,7.46a6.14,6.14,0,0,0,.07,1.22h-.85a9.52,9.52,0,0,0,.06-1.25V37.42c0-.58,0-.75,0-1,.35,0,.67.05,1.13.05h1.79a6.92,6.92,0,0,0,1-.05c0,.26,0,.57,0,1.22V42.5c0,.7-.21.91-1,.91-.24,0-.54,0-.94,0a3.29,3.29,0,0,0-.18-.72,5.29,5.29,0,0,0,1,.13c.34,0,.41-.06.41-.31V40.92h-2.47Zm2.47-3.91V37.09h-2.47v1.29Zm0,1.91V39h-2.47v1.28Zm3-3.75a5.37,5.37,0,0,0-.06,1.09V40a6.83,6.83,0,0,0,0,1.3h-.82a8.41,8.41,0,0,0,.05-1.3V37.62a5.82,5.82,0,0,0-.06-1.08Zm2.47-.35a6.49,6.49,0,0,0-.07,1.25v5c0,.81-.24,1-1.18,1-.38,0-.79,0-1.35-.06a2.54,2.54,0,0,0-.22-.78,8.81,8.81,0,0,0,1.49.16c.44,0,.53,0,.53-.35v-5a6.87,6.87,0,0,0-.06-1.23Z"/><path d="M229.74,40.33a7.26,7.26,0,0,1-.55,2.58l-.47-.23a6,6,0,0,0,.56-2.44Zm1.66-1h.48a6,6,0,0,0,.9,0,1.9,1.9,0,0,0,0,.38,14.94,14.94,0,0,1-.38,3.16c-.14.41-.37.55-.9.55-.18,0-.4,0-.71,0v-.11a1.64,1.64,0,0,0-.1-.5,3.74,3.74,0,0,0,.84.13c.3,0,.38-.12.51-.83a17,17,0,0,0,.19-2.2h-2.06c-.38,0-.63,0-.87,0,0-.22,0-.46,0-1V36.25a9.55,9.55,0,0,0,0-1.12,6.89,6.89,0,0,0,1,0h1.51a6.92,6.92,0,0,0,1,0v.6a6,6,0,0,0-.9,0h-.51v.89h.37a4.7,4.7,0,0,0,.83,0v.57a5,5,0,0,0-.83-.05h-.37v.86h.37a4.7,4.7,0,0,0,.83,0v.57a4.84,4.84,0,0,0-.83-.05h-.37Zm-.51-3.67h-1v.89h1Zm0,1.36h-1v.86h1Zm-1,1.33v1h1v-1Zm.52,1.94a13.32,13.32,0,0,1,.16,2.11l-.47.07c0-.17,0-.31,0-.4a13.15,13.15,0,0,0-.09-1.72Zm.61,0a10.67,10.67,0,0,1,.35,1.72l-.43.13a8.68,8.68,0,0,0-.29-1.76Zm.59-.1a6.62,6.62,0,0,1,.39,1.29l-.37.15a5.38,5.38,0,0,0-.36-1.33Zm4.11-1.6a8.19,8.19,0,0,0,.63,2.55A4.87,4.87,0,0,0,237.59,43a2.43,2.43,0,0,0-.47.54,6.93,6.93,0,0,1-1.42-2.29,9.5,9.5,0,0,1-.58-2.62H234a10.09,10.09,0,0,1-1,4.87,1.59,1.59,0,0,0-.54-.33,5,5,0,0,0,.61-1.5,23.3,23.3,0,0,0,.36-5,12.28,12.28,0,0,0,0-1.36,7.21,7.21,0,0,0,1.06.05h1.59a6.66,6.66,0,0,0,1-.05,7.78,7.78,0,0,0,0,1.05v1.31a8.1,8.1,0,0,0,0,1,6.72,6.72,0,0,0-.93,0Zm.84-.53V35.8h-2.45v.48c0,.45,0,.45,0,1.77Z"/><path d="M245.1,43.56A5.31,5.31,0,0,1,244,41.84a5.15,5.15,0,0,1,0-3.93,5.21,5.21,0,0,1,1.11-1.72h.71a5.11,5.11,0,0,0-1.21,1.65,4.93,4.93,0,0,0,0,4.07,5.11,5.11,0,0,0,1.21,1.65Z"/><path d="M246.93,37h.57v6.1h-.57Z"/><path d="M249.13,37h.72l3,5.12a.94.94,0,0,1,.08.15c0,.08.07.16.11.27,0-.11,0-.21,0-.3a2.29,2.29,0,0,1,0-.25V37h.53v6.1h-.68l-3-5.16-.09-.2a1.23,1.23,0,0,1-.08-.25c0,.14,0,.26,0,.35a1.58,1.58,0,0,1,0,.19v5.07h-.53Z"/><path d="M256.78,36.9a1.64,1.64,0,0,1,1.48.81,4.41,4.41,0,0,1,.51,2.35,4.48,4.48,0,0,1-.51,2.35,1.75,1.75,0,0,1-2.95,0,4.44,4.44,0,0,1-.5-2.35,4.51,4.51,0,0,1,.5-2.35A1.64,1.64,0,0,1,256.78,36.9Zm0,.49a1.08,1.08,0,0,0-1,.68,4.47,4.47,0,0,0-.35,2,4.47,4.47,0,0,0,.35,2,1.1,1.1,0,0,0,1,.68,1.12,1.12,0,0,0,1-.69,4.45,4.45,0,0,0,.35-2,4.47,4.47,0,0,0-.35-2A1.11,1.11,0,0,0,256.78,37.39Z"/><path d="M262,39.89a1.7,1.7,0,0,1,1,.49,1.36,1.36,0,0,1,.37,1,1.58,1.58,0,0,1-.61,1.3,2.42,2.42,0,0,1-1.61.5,5.17,5.17,0,0,1-.82-.06,3.48,3.48,0,0,1-.69-.18l.1-.61a2.54,2.54,0,0,0,1.3.32,2,2,0,0,0,1.24-.36,1.13,1.13,0,0,0,.47-.94,1,1,0,0,0-.43-.85,2,2,0,0,0-1.18-.3h-.62v-.51h.66a1.94,1.94,0,0,0,1.13-.32,1,1,0,0,0,.41-.83.9.9,0,0,0-.38-.74,1.58,1.58,0,0,0-1-.3,3.23,3.23,0,0,0-.68.08,3.15,3.15,0,0,0-.67.24l0-.57a5.61,5.61,0,0,1,.76-.19,3,3,0,0,1,.63-.07,2.23,2.23,0,0,1,1.43.42,1.37,1.37,0,0,1,.53,1.13,1.29,1.29,0,0,1-.35.9A1.75,1.75,0,0,1,262,39.89Z"/><path d="M264.48,43.56a4.86,4.86,0,0,0,1.65-3.69,5,5,0,0,0-.43-2,5.05,5.05,0,0,0-1.22-1.65h.71a5.21,5.21,0,0,1,1.11,1.72,5.15,5.15,0,0,1,0,3.93,5.31,5.31,0,0,1-1.11,1.72Z"/><path d="M182.26,331.14a12.64,12.64,0,0,1,2,1.46l-.44.61a9,9,0,0,0-1.94-1.51Zm2.07,3.68a15.72,15.72,0,0,1-1,2.46c-.12.22-.2.37-.39.69-.09.14-.11.2-.23.4l-.66-.6a9.63,9.63,0,0,0,1.72-3.41Zm-1.4-6.48a10.23,10.23,0,0,1,1.8,1.51l-.51.56a7.84,7.84,0,0,0-1.77-1.56Zm3.59,4.39V337c0,.25.07.35.28.42a9.14,9.14,0,0,0,2,.12,5.42,5.42,0,0,0,2.42-.25c.21-.17.33-.64.42-1.61a2.1,2.1,0,0,0,.73.29c-.16,1.15-.33,1.63-.65,1.88s-1.07.37-2.86.37a7.22,7.22,0,0,1-2.59-.23.78.78,0,0,1-.45-.83V333l-.09,0c-.53.2-.72.27-1,.38l-.21-.8a4.79,4.79,0,0,0,1-.25l.26-.08V330.5a8,8,0,0,0-.08-1.18h.87a7.3,7.3,0,0,0-.07,1.14V332l1.8-.61v-2.11a7.08,7.08,0,0,0-.08-1.1h.87a7,7,0,0,0-.07,1.11v1.86l1.87-.64a7.19,7.19,0,0,0,.9-.36c-.06,2.26-.15,3.71-.23,4.14a1,1,0,0,1-.42.72,1.16,1.16,0,0,1-.68.13,4.31,4.31,0,0,1-.8-.06,2.26,2.26,0,0,0-.19-.73,3.4,3.4,0,0,0,.9.13c.4,0,.49-.11.57-.61s.12-1.66.13-2.72l-2.05.71V335a8.29,8.29,0,0,0,.06,1.11h-.84c0-.33.06-.66.06-1.12v-2.91Z"/><path d="M195.86,331.53c-.09,3.62-.45,5.17-1.6,7.07a2.5,2.5,0,0,0-.6-.57,6.72,6.72,0,0,0,1-2,21.57,21.57,0,0,0,.53-5.63,15.85,15.85,0,0,0-.06-1.69,13.74,13.74,0,0,0,1.4,0h5.9a9.2,9.2,0,0,0,1.22,0,7.49,7.49,0,0,0,0,.87v1.22a6.18,6.18,0,0,0,0,.83c-.57,0-.77-.05-1.16-.05Zm2.93,1.77a8.46,8.46,0,0,0,.05-.85,2.68,2.68,0,0,0-.05-.61h.87l0,.09a5.16,5.16,0,0,0-.08.8c0,.23,0,.31-.05.56h1.59c.62,0,.85,0,1.23,0,0,.11,0,.42-.05.95l-.12,3v.06c0,.25.11.3.69.3s.66-.05.74-.2a5.68,5.68,0,0,0,.21-1.67,2.52,2.52,0,0,0,.7.34c-.15,2.05-.31,2.25-1.65,2.25-.73,0-1,0-1.18-.18s-.25-.32-.25-.68v-.11l.12-3.4h-2.11a5.75,5.75,0,0,1-.91,2.56,7,7,0,0,1-2.51,2.06,2.33,2.33,0,0,0-.54-.62,5.71,5.71,0,0,0,2.46-1.85,4.56,4.56,0,0,0,.78-2.15h-1.25a6.62,6.62,0,0,0-1.2.07v-.78a8.23,8.23,0,0,0,1.21.05Zm4.09-2.43v-1.5h-7v.69c0,.23,0,.5,0,.81Z"/><path d="M211.46,331.71a9.12,9.12,0,0,0,1.89,3.71,8,8,0,0,0,3.12,2.24,3.68,3.68,0,0,0-.51.77,8.94,8.94,0,0,1-4.83-5.69,7.3,7.3,0,0,1-2.26,4.14,8.81,8.81,0,0,1-2.49,1.57,2.49,2.49,0,0,0-.5-.7,7.45,7.45,0,0,0,3-2,7.08,7.08,0,0,0,1.6-4h-3.14a6.87,6.87,0,0,0-1.27.08v-.9a6.77,6.77,0,0,0,1.3.09h3.18c0-.6,0-.89,0-1.47a7.29,7.29,0,0,0-.09-1.16h.95a8.2,8.2,0,0,0-.08,1.2c0,.58,0,.92,0,1.43h3.49a6.62,6.62,0,0,0,1.27-.09v.9a7.09,7.09,0,0,0-1.26-.08Z"/><path d="M219.36,329.32a6.48,6.48,0,0,0-.06-1.19h.8a7.25,7.25,0,0,0-.06,1.19v1.07h.24a4,4,0,0,0,.75-.05v.71c-.22,0-.47,0-.74,0h-.21a5.19,5.19,0,0,0,1.27,2.18,2.08,2.08,0,0,0-.42.56A6.47,6.47,0,0,1,220,332c0,.92,0,1.4,0,1.85v3.43a6.68,6.68,0,0,0,.08,1.33h-.83a9,9,0,0,0,.07-1.33v-3.23a19.7,19.7,0,0,1,.11-2,9.73,9.73,0,0,1-1.36,3.59,2.47,2.47,0,0,0-.47-.63,8.22,8.22,0,0,0,1.23-2.5,10.12,10.12,0,0,0,.39-1.53h-.52a5.71,5.71,0,0,0-.81.05v-.72a4.39,4.39,0,0,0,.81.05h.62Zm7.6.71a7.72,7.72,0,0,0,1.2-.07v.7c-.38,0-.76-.06-1.17-.06h-1.14a5.31,5.31,0,0,0,2.57,1.35,2.13,2.13,0,0,0-.42.6,7.23,7.23,0,0,1-1.55-.77v.81a6,6,0,0,0,0,.76l-.78,0h-2.38l-.78,0v-.11a5.66,5.66,0,0,0,0-.65v-.72a7.12,7.12,0,0,1-1.18.72,2.43,2.43,0,0,0-.42-.51,5.33,5.33,0,0,0,2.12-1.48h-.85a6.31,6.31,0,0,0-1,.06V330a7.53,7.53,0,0,0,1.05.06h1.22a5.36,5.36,0,0,0,.41-.79c-1.25.09-1.55.11-2.22.13a2.78,2.78,0,0,0-.29-.6h.52a18,18,0,0,0,5.1-.66l.48.6-.56.12a22.48,22.48,0,0,1-2.31.35,6.68,6.68,0,0,1-.43.85Zm-5.73,8.57a10.45,10.45,0,0,0,.06-1.29v-2.38c0-.55,0-.75,0-1.05a6.3,6.3,0,0,0,1,.05h4.5a5.74,5.74,0,0,0,1.1-.06,8.32,8.32,0,0,0,0,1.08v2.8c0,.61-.21.75-1.08.75-.36,0-.48,0-1,0a2.74,2.74,0,0,0-.17-.7,9.66,9.66,0,0,0,1.26.09c.29,0,.35-.05.35-.3v-3H222v2.8a11.48,11.48,0,0,0,.05,1.28Zm1.74-2.72c0-.33,0-.57,0-.77a5.56,5.56,0,0,0,.75,0h1.67a5.59,5.59,0,0,0,.74,0,4.56,4.56,0,0,0,0,.76v.6a5.33,5.33,0,0,0,0,.71,5.77,5.77,0,0,0-.67,0h-1.86v.59h-.62c0-.21,0-.52,0-.88Zm.84-5.28a5.71,5.71,0,0,1-.73.83H226a5,5,0,0,1-.87-.83Zm-.63,2.2h2.66V332h-2.66Zm.39,3.82h1.9v-.94h-1.9Z"/><path d="M230.74,335.33a7.26,7.26,0,0,1-.55,2.58l-.47-.23a6,6,0,0,0,.56-2.44Zm1.66-1h.48a6,6,0,0,0,.9,0,1.9,1.9,0,0,0,0,.38,14.94,14.94,0,0,1-.38,3.16c-.14.41-.37.55-.9.55-.18,0-.4,0-.71,0v-.11a1.64,1.64,0,0,0-.1-.5,3.74,3.74,0,0,0,.84.13c.3,0,.38-.12.51-.83a17,17,0,0,0,.19-2.2h-2.06c-.38,0-.63,0-.87,0,0-.22,0-.46,0-1v-2.63a9.55,9.55,0,0,0,0-1.12,6.89,6.89,0,0,0,1,.05h1.51a6.92,6.92,0,0,0,1-.05v.6a6,6,0,0,0-.9-.05h-.51v.89h.37a4.7,4.7,0,0,0,.83-.05v.57a5,5,0,0,0-.83,0h-.37v.86h.37a4.7,4.7,0,0,0,.83,0v.57a4.84,4.84,0,0,0-.83-.05h-.37Zm-.51-3.67h-1v.89h1Zm0,1.36h-1v.86h1Zm-1,1.33v1h1v-1Zm.52,1.94a13.32,13.32,0,0,1,.16,2.11l-.47.07c0-.17,0-.31,0-.4a13.15,13.15,0,0,0-.09-1.72Zm.61,0a10.67,10.67,0,0,1,.35,1.72l-.43.13a8.68,8.68,0,0,0-.29-1.76Zm.59-.1a6.62,6.62,0,0,1,.39,1.29l-.37.15a5.38,5.38,0,0,0-.36-1.33Zm4.11-1.6a8.19,8.19,0,0,0,.63,2.55,4.87,4.87,0,0,0,1.29,1.82,2.43,2.43,0,0,0-.47.54,6.93,6.93,0,0,1-1.42-2.29,9.5,9.5,0,0,1-.58-2.62H235a10.09,10.09,0,0,1-1,4.87,1.59,1.59,0,0,0-.54-.33,5,5,0,0,0,.61-1.5,23.3,23.3,0,0,0,.36-5,12.28,12.28,0,0,0,0-1.36,7.21,7.21,0,0,0,1.06,0h1.59a6.66,6.66,0,0,0,1,0,7.78,7.78,0,0,0,0,1v1.31a8.1,8.1,0,0,0,0,1,6.72,6.72,0,0,0-.93,0Zm.84-.53V330.8h-2.45v.48c0,.45,0,.45,0,1.77Z"/><path d="M246.1,338.56a5.31,5.31,0,0,1-1.11-1.72,5.15,5.15,0,0,1,0-3.93,5.21,5.21,0,0,1,1.11-1.72h.71a5,5,0,0,0-1.21,1.65,4.93,4.93,0,0,0,0,4.07,5.11,5.11,0,0,0,1.21,1.65Z"/><path d="M247.93,332h1.17a3.63,3.63,0,0,1,2.5.77,2.86,2.86,0,0,1,.86,2.24,2.92,2.92,0,0,1-.88,2.27,3.39,3.39,0,0,1-2.43.82h-1.22Zm.57.49v5.08h.69a2.75,2.75,0,0,0,2-.66,2.5,2.5,0,0,0,.69-1.88,2.53,2.53,0,0,0-.66-1.89,2.66,2.66,0,0,0-1.94-.65Z"/><path d="M253,332h4.13v.53h-1.78v5.57h-.56v-5.57H253Z"/><path d="M259.64,331.9a1.64,1.64,0,0,1,1.48.81,5.72,5.72,0,0,1,0,4.7,1.74,1.74,0,0,1-2.94,0,4.45,4.45,0,0,1-.51-2.36,4.39,4.39,0,0,1,.51-2.34A1.64,1.64,0,0,1,259.64,331.9Zm0,.48a1.09,1.09,0,0,0-1,.69,5.78,5.78,0,0,0,0,4,1.09,1.09,0,0,0,2,0,5.75,5.75,0,0,0,0-3.95A1.1,1.1,0,0,0,259.64,332.38Z"/><path d="M263.3,337.58h2.93v.53h-3.61v-.53a25.7,25.7,0,0,0,2.26-2.63,2.7,2.7,0,0,0,.58-1.43.93.93,0,0,0-.32-.75,1.17,1.17,0,0,0-.84-.3,2.21,2.21,0,0,0-.71.12,2.31,2.31,0,0,0-.65.32l-.12-.59a4.51,4.51,0,0,1,.82-.29,2.89,2.89,0,0,1,.76-.1,1.71,1.71,0,0,1,1.22.42,1.51,1.51,0,0,1,.45,1.16,2.8,2.8,0,0,1-.55,1.5A22,22,0,0,1,263.3,337.58Z"/><path d="M267.34,338.56a5,5,0,0,0,1.21-1.65,5,5,0,0,0,0-4.07,4.9,4.9,0,0,0-1.21-1.65h.71a5.21,5.21,0,0,1,1.11,1.72,5.27,5.27,0,0,1,0,3.93,5.31,5.31,0,0,1-1.11,1.72Z"/><path class="cls-6" d="M61.88,153v73.71l5.24.13v7.82H92.56v-9.92l12,.27V156.66s-14.93-.31-21.35-.66C76.6,155.64,61.88,153,61.88,153Z"/><path class="cls-2" d="M77.89,196.86v-8.64h0l-1.44,1.1-3.3-2.52v13l3.3,2.46,3.3-2.46v-1.36l-1.67-1.2A.47.47,0,0,1,77.89,196.86Z"/><path class="cls-2" d="M89.61,189.32l-1.44-1.1h0v8.64a.44.44,0,0,1-.19.37h0l-1.67,1.21v1.36l3.3,2.46,3.3-2.46v-13Z"/><polygon class="cls-2" points="87.66 187.83 87.66 187.57 87.66 187.51 87.66 187.44 87.66 187.19 87.66 183.74 83.03 186.97 78.4 183.74 78.4 187.18 78.4 187.44 78.4 187.5 78.4 187.57 78.4 187.83 78.4 196.84 79.75 197.81 79.75 197.81 80.01 197.99 80.26 198.18 80.26 198.18 83.03 200.17 85.8 198.18 85.8 198.18 85.97 198.05 86.06 197.99 86.11 197.95 86.11 197.95 86.16 197.92 87.66 196.84 87.66 187.83"/><path class="cls-9" d="M93.69,184.39c-.15-.19-.31-.36-.46-.54s-.32-.34-.48-.51v-.06l.86-.86h.06c.18.19.36.37.53.56s.34.38.5.58v.07l-1,.76Z"/><path class="cls-10" d="M91.64,203.66c.19-.15.36-.31.54-.46s.34-.32.51-.48h.06l.86.86v.06l-.56.53c-.19.16-.38.34-.58.5h-.07l-.76-.95Z"/><path class="cls-9" d="M88.59,205.53c.21-.1.43-.2.63-.31l.32-.16.3-.17h.06l.61,1.06,0,0-.34.19-.34.18q-.34.18-.69.33h-.06l-.5-1.12Z"/><path class="cls-11" d="M85.16,206.54l.69-.13.68-.16.06,0,.31,1.17,0,.05c-.24.07-.49.12-.74.18l-.76.14,0,0-.19-1.21Z"/><path class="cls-12" d="M81.58,206.63l.7.05.7,0,0,0V208l0,0-.77,0-.76-.06,0,0,.13-1.21Z"/><path class="cls-2" d="M78.1,205.79c.44.17.89.31,1.34.44l0,.05-.31,1.17-.06,0a14.66,14.66,0,0,1-1.46-.48l0-.06.44-1.13Z"/><path class="cls-10" d="M75,204.08l.58.4c.2.12.39.25.6.36l0,.06L75.55,206h-.06c-.23-.12-.44-.26-.66-.4s-.42-.29-.63-.44l0-.05.72-1Z"/><path class="cls-11" d="M72.37,201.61c.14.19.31.36.46.54s.32.34.48.51v.06l-.86.86h-.06c-.18-.19-.36-.37-.53-.56s-.34-.38-.5-.58v-.07l1-.76Z"/><path class="cls-9" d="M70.5,198.56c.1.21.2.43.31.63l.16.32c0,.1.11.2.17.3v.06l-1.06.61,0,0-.2-.34-.17-.34q-.18-.34-.33-.69V199l1.12-.5Z"/><path class="cls-12" d="M69.49,195.13c0,.23.08.46.13.69s.1.46.16.68l0,.06-1.17.31,0,0c-.07-.24-.12-.49-.18-.74s-.09-.51-.14-.76l0-.05,1.21-.19Z"/><path class="cls-10" d="M69.4,191.55c0,.24,0,.47-.05.7s0,.47,0,.7l0,.05H68.07l0-.05c0-.26,0-.51,0-.77l.06-.76,0,0,1.21.13Z"/><path class="cls-9" d="M70.24,188.08c-.17.43-.31.88-.44,1.33l0,0-1.17-.31,0-.06c.14-.49.29-1,.48-1.46l0,0,1.14.44Z"/><path class="cls-11" d="M72,184.93c-.13.2-.27.38-.4.58s-.25.39-.36.6l-.06,0-1.06-.61v-.06c.13-.23.27-.44.41-.66s.29-.42.43-.63l.06,0,1,.73Z"/><path class="cls-12" d="M74.42,182.34c-.19.15-.36.31-.54.46s-.34.32-.51.48h-.06l-.86-.86v-.06l.56-.53c.19-.16.38-.34.58-.5h.07l.76.95Z"/><path class="cls-9" d="M77.47,180.47c-.21.1-.43.2-.63.31l-.32.16-.3.17h-.06L75.55,180l0,0,.34-.19.34-.18c.22-.12.46-.23.69-.33H77l.5,1.12Z"/><path class="cls-11" d="M80.9,179.46l-.69.13-.68.16-.06,0-.31-1.17,0-.05.75-.18.76-.14,0,0,.19,1.21Z"/><path class="cls-2" d="M84.48,179.37l-.7-.05-.71,0,0,0V178l0,0,.77,0,.76.06,0,0-.13,1.21Z"/><path class="cls-11" d="M88,180.21c-.43-.17-.88-.31-1.33-.44l0-.05.31-1.17.06,0c.49.14,1,.29,1.46.48l0,.06L88,180.19Z"/><path class="cls-12" d="M91.09,181.92c-.19-.13-.37-.27-.57-.4l-.6-.36,0-.06.61-1.06h.06c.23.12.44.26.66.4s.42.29.63.44l0,.05-.73,1Z"/><path class="cls-11" d="M95.55,187.44c-.09-.21-.19-.43-.3-.63l-.16-.32c0-.1-.11-.2-.17-.3v-.06l1.06-.61.05,0a3.72,3.72,0,0,1,.19.34l.18.34q.18.34.33.69V187l-1.12.5Z"/><path class="cls-9" d="M96.57,190.87c0-.23-.08-.46-.13-.69s-.1-.46-.16-.68l0-.06,1.18-.31,0,0c.07.24.12.49.18.74s.09.51.14.76l0,.05-1.21.19Z"/><path class="cls-9" d="M94.11,201.07c.13-.2.27-.38.4-.58s.25-.39.36-.6l.06,0,1.06.61v.06c-.12.23-.26.44-.4.66s-.29.42-.44.63l-.06,0-1-.73Z"/><path class="cls-12" d="M95.82,197.92c.17-.43.31-.88.44-1.33l0,0,1.18.31,0,.06c-.14.49-.3,1-.48,1.46l-.06,0L95.84,198Z"/><path class="cls-9" d="M96.66,194.45c0-.23,0-.47,0-.7s0-.47,0-.7l0-.05H98l0,.05c0,.26,0,.51,0,.77l-.06.76,0,0-1.21-.13Z"/><rect class="cls-7" x="132.86" y="260.13" width="36.33" height="19.61" transform="translate(99.46 -35.05) rotate(19.63)"/></g></svg>
