<svg xmlns="http://www.w3.org/2000/svg" viewBox="0 0 112.74 112.29"><defs><style>.cls-1{opacity:0.5;}.cls-2,.cls-3,.cls-4,.cls-5{fill:#fff;}.cls-2{opacity:0.6;}.cls-3{opacity:0.8;}.cls-4{opacity:0.75;}.cls-6{fill:none;}</style></defs><title>アセット 18</title><g id="レイヤー_2" data-name="レイヤー 2"><g id="レイヤー_1-2" data-name="レイヤー 1"><g class="cls-1"><path class="cls-2" d="M59.07,99.56a39.58,39.58,0,0,0,5.32-.62,19.18,19.18,0,0,0,2.6-.59c.86-.23,1.74-.42,2.59-.68l.44.24,3.71,11.41-.31.52c-1.1.33-2.23.59-3.34.89a28.36,28.36,0,0,1-3.38.75,51.29,51.29,0,0,1-6.87.81l-.46-.36-.62-12Z"/><path class="cls-3" d="M14.34,45.21c-.2.87-.5,1.72-.62,2.6l-.4,2.65c-.07.44-.15.88-.2,1.32l-.06,1.34-.14,2.68-.4.34H.52L.16,55.7l.17-3.45.09-1.73c.07-.57.17-1.14.25-1.71l.52-3.42c.18-1.15.54-2.25.8-3.37l.48-.34,11.59,3.1Z"/><path class="cls-4" d="M28.78,22.51a45.76,45.76,0,0,0-7.32,7.79l-.52.06-9.7-7.06,0-.58a58.17,58.17,0,0,1,9.47-10l.59,0L28.82,22Z"/><path class="cls-2" d="M53.82,12.73a39.62,39.62,0,0,0-5.31.62,19.67,19.67,0,0,0-2.61.59c-.86.23-1.73.42-2.58.68l-.44-.24L39.17,3l.3-.51c1.11-.33,2.24-.59,3.35-.89A27.93,27.93,0,0,1,46.2.81,51.14,51.14,0,0,1,53.06,0l.47.36.62,12Z"/><path class="cls-3" d="M79.85,19.46l-2.28-1.39c-.77-.46-1.6-.79-2.4-1.19L74,16.29l-.6-.29-.63-.22-2.51-.92L70,14.38,73.73,3l.53-.2L77.52,4l.81.3.78.37,1.56.75c1,.52,2.1,1,3.1,1.55l3,1.8.17.55L80.36,19.32Z"/><path class="cls-5" d="M97,40.23c-.16-.42-.28-.85-.47-1.25l-.59-1.2-1.16-2.41-1.39-2.29-.69-1.15c-.24-.37-.53-.71-.8-1.07l.1-.5,9.7-7.06.58.13c.33.47.7.92,1,1.4l.91,1.48,1.79,3,1.51,3.12L108.2,34c.25.52.41,1.07.62,1.61l-.2.56-11.2,4.3Z"/><path class="cls-3" d="M98.55,67.08c.2-.87.5-1.72.63-2.6l.4-2.65c.06-.44.15-.88.2-1.32l.06-1.34.14-2.68.4-.35h12l.36.45L112.57,60l-.1,1.73c-.06.57-.16,1.14-.24,1.71l-.53,3.42c-.17,1.14-.53,2.25-.8,3.37l-.47.34-11.6-3.1Z"/><path class="cls-4" d="M84.12,89.78A45.76,45.76,0,0,0,91.44,82l.51-.06,9.7,7.06,0,.58a58.11,58.11,0,0,1-9.46,10.05l-.59,0-7.56-9.33Z"/><path class="cls-3" d="M33,92.83l2.29,1.39c.76.46,1.6.79,2.39,1.19l1.21.59.6.29.63.22,2.51.92.21.48-3.71,11.41-.54.21-3.25-1.19-.81-.3-.78-.37-1.57-.75c-1-.52-2.1-1-3.09-1.55l-3-1.8L26,103l6.54-10Z"/><path class="cls-2" d="M15.94,72.06c.17.41.28.85.48,1.25l.59,1.2,1.15,2.41,1.4,2.29.69,1.14c.24.38.53.72.79,1.08l-.1.5L11.24,89l-.57-.13c-.34-.47-.7-.92-1-1.4L8.75,86,7,83,5.45,79.9,4.7,78.34c-.25-.52-.42-1.07-.63-1.61l.2-.56,11.2-4.3Z"/><path class="cls-6" d="M12.76,56.14a44.42,44.42,0,0,0,2.93,15.65L3.79,76.36A56.88,56.88,0,0,1,0,56.14Z"/></g><rect class="cls-5" x="28.95" y="53.64" width="55" height="5" rx="1" ry="1"/><rect class="cls-5" x="29.45" y="71.14" width="55" height="5" rx="1" ry="1"/><rect class="cls-5" x="29.45" y="36.14" width="55" height="5" rx="1" ry="1"/></g></g></svg>
