<svg xmlns="http://www.w3.org/2000/svg" viewBox="0 0 86.78 86.56"><defs><style>.cls-1,.cls-4,.cls-7{fill:#333;}.cls-1{opacity:0.6;}.cls-2,.cls-5{fill:#666;}.cls-2,.cls-4,.cls-6{opacity:0.8;}.cls-3{opacity:0.75;}</style></defs><title>アセット 22</title><g id="レイヤー_2" data-name="レイヤー 2"><g id="レイヤー_1-2" data-name="レイヤー 1"><path class="cls-1" d="M41.37,9.9a29.48,29.48,0,0,0-4.08.48,15.36,15.36,0,0,0-2,.45c-.66.18-1.33.32-2,.52L33,11.16,30.07,2.29l.24-.4c.85-.26,1.72-.46,2.58-.69a22.74,22.74,0,0,1,2.6-.58A39.33,39.33,0,0,1,40.78,0l.36.28.48,9.32Z"/><path class="cls-2" d="M75.76,51.68a33.67,33.67,0,0,0,1.1-8.13l.31-.27H86.5l.28.34a44.15,44.15,0,0,1-1.41,10.55l-.37.26L76,52Z"/><path class="cls-3" d="M64.67,69.14a35,35,0,0,0,5.62-6l.4,0,7.55,5.49,0,.45A44.6,44.6,0,0,1,71,76.79l-.46,0-5.87-7.25C64.65,69.37,64.65,69.29,64.67,69.14Z"/><path class="cls-1" d="M45.41,76.66a29.3,29.3,0,0,0,4.08-.48,15.36,15.36,0,0,0,2-.45c.66-.18,1.33-.32,2-.52l.34.19,2.88,8.87-.24.4c-.85.26-1.71.46-2.57.69a23.39,23.39,0,0,1-2.61.58,39.33,39.33,0,0,1-5.29.62l-.36-.28L45.16,77Z"/><path class="cls-4" d="M25.4,71.48l1.75,1.07c.59.36,1.23.61,1.84.92A28.68,28.68,0,0,0,32.8,75l.15.38-2.88,8.87-.41.17a37.35,37.35,0,0,1-4.94-2c-.8-.4-1.62-.74-2.39-1.19l-2.28-1.39-.13-.42L25,71.59Z"/><path class="cls-5" d="M12.25,55.52a12,12,0,0,0,.82,1.88L14,59.26,15,61l.53.88c.18.29.41.56.61.83l-.08.39L8.55,68.6l-.45-.1c-.26-.36-.54-.71-.78-1.08l-.7-1.14L5.24,64,4.07,61.6A20.29,20.29,0,0,1,3,59.15l.15-.43,8.71-3.35Z"/><path class="cls-4" d="M11,34.88A33.67,33.67,0,0,0,9.92,43l-.31.27H.28L0,42.94A44.15,44.15,0,0,1,1.41,32.39l.37-.26,9,2.41Z"/><path class="cls-3" d="M22.12,17.42a35.08,35.08,0,0,0-5.63,6l-.4,0L8.55,18l0-.45a45,45,0,0,1,7.3-7.74l.46,0L22.14,17Z"/><path class="cls-6" d="M61.38,15.08,59.63,14c-.59-.36-1.23-.61-1.84-.92A28.68,28.68,0,0,0,54,11.54l-.15-.38,2.88-8.87.41-.16a37.3,37.3,0,0,1,4.94,2c.8.4,1.62.74,2.39,1.2l2.28,1.38.13.43L61.77,15Z"/><path class="cls-1" d="M74.53,31a13,13,0,0,0-.81-1.88l-.89-1.86-1.08-1.75-.53-.88c-.18-.29-.41-.55-.61-.83l.08-.39L78.24,18l.44.1c.26.36.54.71.78,1.08l.7,1.14,1.38,2.28L82.71,25a20.29,20.29,0,0,1,1.05,2.45l-.15.43L74.9,31.19Z"/><rect class="cls-7" x="23.39" y="41.28" width="40" height="4" rx="0.87" ry="0.87"/><rect class="cls-7" x="23.39" y="41.28" width="40" height="4" rx="0.87" ry="0.87" transform="translate(86.67 -0.11) rotate(90)"/></g></g></svg>
