<?xml version="1.0" encoding="utf-8"?>
<!-- Generator: Adobe Illustrator 22.0.1, SVG Export Plug-In . SVG Version: 6.00 Build 0)  -->
<svg version="1.1" id="レイヤー_1" xmlns="http://www.w3.org/2000/svg" xmlns:xlink="http://www.w3.org/1999/xlink" x="0px"
	 y="0px" viewBox="0 0 708.66 113.39" style="enable-background:new 0 0 708.66 113.39;" xml:space="preserve">
<style type="text/css">
	.st0{fill:#D83935;}
	.st1{fill:#FFFFFF;}
</style>
<g>
	<rect x="0" y="0" class="st0" width="708.66" height="113.39"/>
	<g>
		<path class="st1" d="M220.94,78.11c-1.13,3.75-3.6,9.75-7.35,14.1l-6.67-5.47c3.23-3.6,5.4-8.18,6.38-12L220.94,78.11z
			 M210.14,23.58h25.27v50.48h-25.27V23.58z M218.54,31.83v6h8.77v-6H218.54z M218.54,45.03v6.52h8.77v-6.52H218.54z M218.54,58.91
			v6.83h8.77v-6.83H218.54z M244.04,84.41c-1.42,3.45-2.7,5.55-4.05,7.73l-6.83-4.8l-3.38,1.65c-1.27-3.83-3.67-7.88-6.08-11.18
			l6.98-2.92c1.35,1.57,2.7,3.38,4.65,6.75c4.05-8.33,5.1-18.38,5.1-27.52V23.58h37.8v8.78h-28.95v9.15h26.48
			c0.07,7.13,0.3,19.65-8.18,33.38c4.2,4.42,8.18,6.9,11.7,8.92l-4.65,8.18c-3-1.73-7.73-4.5-12.6-9.98
			c-5.33,5.63-10.42,8.17-13.73,9.75L244.04,84.41z M256.57,74.66c-1.57-2.55-5.02-8.48-7.27-19.8c0,9.75-1.42,19.5-4.88,28.65
			C251.24,79.98,255.22,76.01,256.57,74.66z M249.29,49.91v3.3l7.65-1.88c1.58,8.7,3.45,12.75,5.18,15.98
			c3.82-6.82,4.57-13.27,5.02-17.4H249.29z"/>
		<path class="st1" d="M312.14,61.68c-0.6,20.33-9.52,27.38-25.95,30.83l-4.13-9.38c13.8-3.08,20.33-6.3,20.4-21.45H312.14z
			 M282.89,26.43h30.6v-5.1h9.6v5.1h30.6v8.63h-30.6v4.73h26.78v7.88h-63v-7.88h26.63v-4.73h-30.6V26.43z M284.39,51.18h67.8v15.6
			h-9.67v-7.58h-48.45v7.5h-9.67V51.18z M353.99,74.73c-0.68,8.47-1.35,16.35-8.33,16.35h-16.58c-4.13,0-6.97-2.02-6.97-6.52V61.68
			h9.45v18.52c0,1.5,0.38,1.95,1.73,1.95h8.63c1.65,0,2.17-1.42,2.63-9.52L353.99,74.73z"/>
		<path class="st1" d="M366.74,65.88c-0.3,13.88-1.13,17.77-2.33,21.82l-6.98-3.82c2.33-6.98,2.55-15.83,2.55-18.15L366.74,65.88z
			 M385.72,61.38l-3.9,1.42c-0.23-0.9-0.52-2.25-0.75-3.23c-1.05,0.15-1.88,0.3-4.05,0.6v31.88h-8.02V60.93
			c-3.23,0.23-6,0.45-10.2,0.6l-0.67-8.1h4.42l4.2-5.92c-1.28-1.35-4.28-4.35-9.08-8.1l3.3-7.73c0.68,0.45,1.43,0.98,1.95,1.35
			c2.4-3.75,4.58-7.88,6.45-11.92l7.88,2.17c-2.55,5.33-4.8,8.92-8.55,14.33c0.83,0.67,1.43,1.27,3,2.7
			c3.83-5.92,5.63-9.23,6.9-11.48l7.5,2.55c-5.17,9.3-14.4,21.15-14.92,21.82c4.58-0.15,5.63-0.22,7.8-0.45
			c-0.75-2.18-0.97-2.85-1.72-4.65l6.22-2.33c2.48,4.88,4.13,9.67,4.43,10.73c5.62-1.88,8.85-3.68,11.62-5.4
			c-2.02-2.03-3.97-4.05-6.83-8.48c-1.72,1.5-2.7,2.32-4.5,3.52l-5.32-6.45c5.17-4.05,10.88-9.45,14.4-19.05l9.67,1.13
			c-0.45,1.58-0.9,2.85-2.17,5.33h20.4v8.02c-1.13,2.7-3.45,8.63-11.4,15.98c6.9,3.75,12.3,5.1,16.05,6.07l-4.42,9.15
			c-2.92-0.97-11.02-3.82-18.97-9.45c-5.63,4.05-11.85,6.98-18.3,9.38L385.72,61.38z M385.27,65.06c0.45,1.8,2.17,9.9,2.48,16.35
			l-7.2,1.2c-0.08-3.3-0.23-8.55-1.65-16.73L385.27,65.06z M391.19,75.41c16.12,2.77,24.75,5.77,31.73,8.63l-4.5,8.7
			c-12.38-4.95-21.23-7.28-30.23-8.93L391.19,75.41z M400.49,61.31c5.4,2.02,12.82,5.7,16.88,8.33l-4.8,7.35
			c-5.47-3.68-10.27-5.93-16.8-8.7L400.49,61.31z M399.59,35.13c-0.67,0.9-1.13,1.42-1.65,2.02c2.78,4.42,6.3,7.42,8.33,9
			c5.1-4.5,7.58-8.4,9.3-11.02H399.59z"/>
		<path class="st1" d="M433.87,23.88h67.88v9.38c-6.23,7.05-16.2,13.8-28.43,18.38v32.7c0,3.3-0.07,7.65-8.25,7.65h-14.77l-1.95-9.6
			h12.6c1.95,0,2.55-0.75,2.55-2.33V42.48h7.57c2.55-0.9,10.28-3.75,15.6-9.23h-52.8V23.88z"/>
	</g>
</g>
<g>
</g>
<g>
</g>
<g>
</g>
<g>
</g>
<g>
</g>
<g>
</g>
</svg>
