<?xml version="1.0" encoding="utf-8"?>
<!-- Generator: Adobe Illustrator 22.0.1, SVG Export Plug-In . SVG Version: 6.00 Build 0)  -->
<svg version="1.1" id="レイヤー_1" xmlns="http://www.w3.org/2000/svg" xmlns:xlink="http://www.w3.org/1999/xlink" x="0px"
	 y="0px" viewBox="0 0 708.66 113.39" style="enable-background:new 0 0 708.66 113.39;" xml:space="preserve">
<style type="text/css">
	.st0{fill:#FDD000;}
	.st1{fill:#3C3C3C;}
</style>
<g>
	<rect class="st0" width="708.66" height="113.39"/>
	<g>
		<path class="st1" d="M252.19,88.61h-10.88V35.65l-9.28,6.38V31.05l9.94-7.13h10.22V88.61z"/>
		<path class="st1" d="M285.84,58.99H276V23.93h35.06v10.22h-24.47v13.69c1.97-1.97,4.97-3.75,9.94-3.75
			c10.78,0,17.06,8.34,17.06,23.34c0,14.16-6.75,22.03-19.69,22.03c-10.5,0-18.75-6.56-19.69-16.88h10.69
			c1.13,4.69,4.13,7.41,8.81,7.41c5.53,0,9-3.66,9-12.19c0-8.91-2.63-13.59-9-13.59C289.87,54.21,287.43,56.27,285.84,58.99z"/>
		<path class="st1" d="M339.93,61.96c-1.95,1.7-3.15,2.55-4.4,3.4l-4.1-5.5c7.65-5.15,11.65-10.4,14.4-17.65l6.15,1.25
			c-2.45,6.6-5,11.05-9.7,16.15h27.45c-4.7-5.3-7.9-10.55-9.95-15.8l6.15-1.65c3.35,7.95,7.65,13.1,14,17.6l-4.1,5.3
			c-1.25-0.85-2.35-1.6-4.5-3.75c0.15,7.9-0.7,20.35-2.4,24.3c-1.6,3.65-4.65,3.75-6.35,3.75h-8.15l-1.2-6.25h7.45
			c2.05,0,2.55-1.3,2.75-1.85c1.1-3,1.25-7.55,1.6-15.7h-10.35c-1.4,14.25-9.85,20.2-18.35,23.8l-3.7-5.75
			c10.7-4.3,15.1-9.4,15.75-18.05h-8.45V61.96z"/>
		<path class="st1" d="M381.03,52.16c4.55-3.15,6.6-5.55,9.2-10.3l5.7,2c-3.3,7.1-8.45,11.55-12.4,14.2L381.03,52.16z M396.08,56.96
			c-0.5,1.2-1.5,3.85-3.85,7.3v25.1h-6.05v-18.1c-0.85,0.75-1.4,1.2-2.7,2.25l-2.05-6.75c4.7-4.1,7.45-7.65,9.85-13.55l5.3,2.4
			c-0.1,0.15-0.4,1.05-0.45,1.25h12.95v-4.95h-10.9v-5.7h10.9v-3.9h6.1v3.9h12v5.7h-12v4.95h13.95v5.8h-5.9v4.25h5.5v5.8h-5.5v11.45
			c0,4.9-3.3,5.2-5.75,5.2h-8l-1.05-6.15h6.15c2.45,0,2.45-0.25,2.45-1.9v-8.6h-14.9c4.25,3.1,6.8,6.5,7.45,7.4l-4.8,4.15
			c-1.1-1.55-4.3-5.65-7-7.75l4.3-3.8h-5.4v-5.8h20.35v-4.25h-20.95V56.96z"/>
		<path class="st1" d="M451.78,44.21c-0.2,2.4-0.3,3.95-0.55,5.75h25.4v6.05h-26.1c-0.5,4.1-0.95,5.85-1.5,8
			c1.8-1.05,5.7-3.25,11.9-3.25c13.15,0,14.25,9.75,14.25,12.6c0,12.95-13.9,13.9-22,13.9c-4.2,0-8.1-0.3-9.95-0.45l-1.15-6.3
			c2.5,0.3,6.25,0.75,10.75,0.75c7.75,0,15.35-1.2,15.35-8.05c0-5.05-4.55-6.55-7.85-6.55c-4.75,0-9.4,1.75-12.85,5.05
			c-0.2,0.8-0.25,1.05-0.45,1.8l-6.85-1.6c1.05-3.15,2.5-7.75,3.45-15.9h-9.5v-6.05h10.15c0.2-2.85,0.25-3.5,0.4-5.95L451.78,44.21z
			"/>
	</g>
</g>
<g>
</g>
<g>
</g>
<g>
</g>
<g>
</g>
<g>
</g>
<g>
</g>
</svg>
