<?xml version="1.0" encoding="utf-8"?>
<!-- Generator: Adobe Illustrator 22.0.1, SVG Export Plug-In . SVG Version: 6.00 Build 0)  -->
<svg version="1.1" id="レイヤー_1" xmlns="http://www.w3.org/2000/svg" xmlns:xlink="http://www.w3.org/1999/xlink" x="0px"
	 y="0px" viewBox="0 0 708.66 113.39" style="enable-background:new 0 0 708.66 113.39;" xml:space="preserve">
<style type="text/css">
	.st0{fill:#0075C2;}
	.st1{fill:#FFFFFF;}
</style>
<g>
	<rect class="st0" width="708.66" height="113.39"/>
	<g>
		<path class="st1" d="M138.45,58.96h-9.84V23.9h35.06v10.22H139.2v13.69c1.97-1.97,4.97-3.75,9.94-3.75
			c10.78,0,17.06,8.34,17.06,23.34c0,14.16-6.75,22.03-19.69,22.03c-10.5,0-18.75-6.56-19.69-16.88h10.69
			c1.13,4.69,4.13,7.41,8.81,7.41c5.53,0,9-3.66,9-12.19c0-8.91-2.63-13.59-9-13.59C142.48,54.18,140.04,56.24,138.45,58.96z"/>
		<path class="st1" d="M192.54,61.94c-1.95,1.7-3.15,2.55-4.4,3.4l-4.1-5.5c7.65-5.15,11.65-10.4,14.4-17.65l6.15,1.25
			c-2.45,6.6-5,11.05-9.7,16.15h27.45c-4.7-5.3-7.9-10.55-9.95-15.8l6.15-1.65c3.35,7.95,7.65,13.1,14,17.6l-4.1,5.3
			c-1.25-0.85-2.35-1.6-4.5-3.75c0.15,7.9-0.7,20.35-2.4,24.3c-1.6,3.65-4.65,3.75-6.35,3.75h-8.15l-1.2-6.25h7.45
			c2.05,0,2.55-1.3,2.75-1.85c1.1-3,1.25-7.55,1.6-15.7h-10.35c-1.4,14.25-9.85,20.2-18.35,23.8l-3.7-5.75
			c10.7-4.3,15.1-9.4,15.75-18.05h-8.45V61.94z"/>
		<path class="st1" d="M234.49,79.04c1.3-0.35,2.05-0.55,4.65-1.4l-0.25-34.45l6.5-0.1l0.15,32.2c8.45-3.2,9.4-3.55,12.4-4.95
			l1.15,5.6c-5.1,2.6-18.25,7.8-23.4,9.5L234.49,79.04z M254.69,44.69c3.3,3.15,7.3,7.55,10.7,12.95l-5.6,4.25
			c-1.7-2.9-4.35-7.15-10-13.35L254.69,44.69z M278.04,54.54c-0.05,3.75-0.2,11.65-4.15,19.4c5.8,5.8,7.35,7.95,8.65,9.75
			l-4.95,5.65c-0.85-1.55-2.2-4-7.25-10.1c-6.2,7.1-13.35,9.3-16.25,10.25l-3.55-6.1c20.2-5.05,20.65-20.85,20.8-29.6l0.15-10.45
			l6.75,0.05L278.04,54.54z"/>
		<path class="st1" d="M293.34,72.34v17h-6.25V49.09h18.1v-6.85h6.35v6.85h17.95v35.75c0,1.3-0.4,4.5-4.45,4.5h-9.15l-1.05-6.35h7.1
			c0.75,0,1.3-0.2,1.3-1.2v-9.4l-3.45,4.9c-6.05-4.45-9.25-8.75-11.4-14.8c-2.55,7.25-8.05,12.45-11.65,14.75L293.34,72.34z
			 M293.34,55.09v16.45c5.85-3.7,10-9.65,11.35-16.45H293.34z M323.24,55.09h-11.4c0.6,3.75,2.2,10.3,11.4,16.55V55.09z"/>
		<path class="st1" d="M379.89,52.59c-1.15,0-4.4-0.1-6.25-0.05c-3.95,0.15-8,1.35-12.55,4.8c-2.85,2.2-8.3,7.45-8.3,13.7
			c0,3.85,1.65,9.7,22.45,9l-0.95,7.15c-10.95-0.05-16.05-1.1-20.65-3.35c-4.75-2.35-7.75-7.1-7.75-11.9
			c0-3.25,0.9-11.55,12.8-19.15c-3.5,0.3-18.95,1.6-22.1,1.9l-0.25-7c3.35,0,7.35-0.25,11.05-0.45c4.3-0.25,27.2-1.1,32.3-1.3
			L379.89,52.59z M369.79,67.74c-0.5-0.9-2.2-4.4-4.5-7.5l3.9-2.05c1.75,2.15,3.35,4.75,4.6,7.3L369.79,67.74z M376.44,64.44
			c-2.05-3.6-3-5.1-4.6-7.1l3.95-2.05c1.4,1.6,3.55,4.65,4.55,6.75L376.44,64.44z"/>
		<path class="st1" d="M408.99,71.09c-0.15,1.4-0.35,3-0.85,5.35c1.95,3.8,3.85,4.75,4.75,5.2v-13.1h-11.6v1.1
			c-1.7,0.65-3.3,1.25-5,1.8v12.5c0,4.95-2.3,5.4-5.55,5.4h-5.1l-0.8-6.3h4.1c1.2,0,1.4-0.25,1.4-1.4v-8.45
			c-0.9,0.25-2.1,0.55-5.35,1.3l-0.8-6.4c1.7-0.25,3.75-0.6,6.15-1.15v-10.3h-5.75v-5.9h5.75v-8.45h5.9v8.45h4.4v5.9h-4.35v8.8
			c1.2-0.35,2.25-0.7,4.55-1.5v-0.75h30.95v5.35h-12.95v4.2h10.95v4.85h-10.95v5.35h13.6l-1.3,5.85h-12.1c-3,0-9.15-0.5-12.7-6.45
			c-1.7,3.9-3.35,5.55-4.75,7l-4.65-4.1c1.75-1.6,5.25-5.2,6.3-15L408.99,71.09z M429.64,43.54v17.2h-27.75v-17.2H429.64z
			 M407.79,48.09v2.3h16v-2.3H407.79z M407.79,53.94v2.55h16v-2.55H407.79z"/>
		<path class="st1" d="M438.99,66.74c-1.15,1.55-1.6,2.05-2.75,3.25l-2.3-8.2c3.45-4.45,6.5-9.85,7.95-19.7l6.2,0.65
			c-0.3,2.2-0.9,6.05-3.05,12.05v34.6h-6.05V66.74z M461.54,76.94c-3.3,5.85-7.6,9.8-11.5,12.5l-4.15-4.95
			c5.65-3.25,9-7.7,10.5-9.95L461.54,76.94z M453.79,42.19h6.15v8.55h8.65v-8.55h6.15v8.55h6.25v6.05h-6.25v10.5h7.1v6.05h-34.7
			v-6.05h6.65v-10.5h-5.9v-6.05h5.9V42.19z M459.94,56.79v10.5h8.65v-10.5H459.94z M478.14,89.49c-5.5-4.15-9.35-9.85-10.9-12.3
			l5.05-2.85c2.6,4.1,7.05,8,10.2,10.35L478.14,89.49z"/>
		<path class="st1" d="M519.39,49.94h-34.5v-6.15h46.8v6.15h-5.95v34.8c0,3.25-1.9,4.6-5.15,4.6h-10.75l-1.25-6.4h9.45
			c1.05,0,1.35-0.8,1.35-1.6V49.94z M513.09,54.19v22.7h-18.3v2.85h-6.05V54.19H513.09z M494.79,59.79v11.45h12.2V59.79H494.79z"/>
		<path class="st1" d="M553.99,57.59c-0.3-0.8-0.5-1.45-1.15-2.85c-5.75,0.8-12.1,1.5-17.9,1.75l-0.5-5.4h3.15
			c0.45-0.95,2.4-5.2,3.3-8.85l6.15,0.65c-0.55,1.6-1.1,3.05-3.65,8.05c0.8-0.05,6.05-0.55,7.25-0.65
			c-1.05-1.95-1.75-2.95-2.45-4.05l4.9-2.25c2.75,3.9,4.65,6.85,6.4,11.15L553.99,57.59z M536.64,58.59h19.8v26.7
			c0,3.45-2.9,4.05-3.65,4.05h-6.6l-1-5.65h4.55c0.6,0,0.95-0.4,0.95-0.95v-3.3h-8.25v9.9h-5.8V58.59z M542.44,63.54v3.5h8.25v-3.5
			H542.44z M542.44,71.29v3.7h8.25v-3.7H542.44z M566.74,42.24v6.2c2.8-0.8,8.3-3.25,10.95-5l3.4,4.55c-3.55,2.15-9.2,4.2-14.35,5.5
			v4.1c0,1.05,0.65,1.2,1.3,1.2h5.85c1.2,0,2,0,2.1-5.65l5.85,1.6c-0.25,6.7-1.5,9.6-5.45,9.6h-11.25c-4.45,0-4.7-3.55-4.7-4.1v-18
			H566.74z M560.59,65.74h6.15v5.85c3.15-1.15,6.75-2.7,10.4-5.25l3.65,4.65c-5.4,3.25-12.15,5.25-14.05,5.8v5.05
			c0,0.7,0.25,1.5,1.4,1.5h5.65c1.5,0,1.75-0.4,2.15-6.55l5.9,1.55c-0.7,7.95-1.45,10.6-6.15,10.6h-10.9c-2.6,0-4.2-1.55-4.2-4.3
			V65.74z"/>
	</g>
</g>
<g>
</g>
<g>
</g>
<g>
</g>
<g>
</g>
<g>
</g>
<g>
</g>
</svg>
