<?xml version="1.0" standalone="no"?>
<!DOCTYPE svg PUBLIC "-//W3C//DTD SVG 20010904//EN"
 "http://www.w3.org/TR/2001/REC-SVG-20010904/DTD/svg10.dtd">
<svg version="1.0" xmlns="http://www.w3.org/2000/svg"
 width="512.000000pt" height="512.000000pt" viewBox="0 0 512.000000 512.000000"
 preserveAspectRatio="xMidYMid meet">
<metadata>
Created by potrace 1.11, written by Peter Selinger 2001-2013
</metadata>
<g transform="translate(0.000000,512.000000) scale(0.100000,-0.100000)"
fill="#000000" stroke="none">
<path d="M1765 3023 l0 -1127 155 -112 c85 -62 161 -113 168 -113 6 -1 12 -5
12 -10 0 -5 17 -20 38 -32 20 -13 44 -29 52 -36 55 -45 167 -123 178 -123 6 0
12 -4 12 -9 0 -4 19 -21 43 -37 23 -16 45 -32 48 -37 3 -4 14 -5 25 -1 14 4
16 3 5 -4 -11 -8 -9 -12 10 -22 13 -7 27 -17 30 -23 10 -14 49 2 50 21 0 9 3
12 5 5 5 -11 135 79 142 98 2 5 8 7 12 4 5 -3 16 5 25 17 8 13 17 21 19 18 6
-9 55 34 49 43 -3 6 -1 7 6 3 6 -4 24 3 40 16 16 13 86 63 155 112 69 49 122
94 119 99 -3 6 -1 7 6 3 6 -4 25 4 42 18 17 14 34 26 37 26 4 0 19 10 34 23
15 13 38 32 52 42 l25 19 0 1123 c0 618 -2 1123 -5 1123 -11 0 -397 -271 -402
-282 -2 -5 -8 -8 -13 -8 -11 0 -113 -71 -117 -82 -2 -5 -8 -8 -13 -8 -16 0
-104 -71 -101 -82 1 -5 -2 -7 -8 -3 -15 9 -142 -84 -134 -98 3 -7 -4 0 -16 16
-12 15 -28 27 -35 27 -7 0 -15 4 -17 8 -3 9 -118 88 -130 91 -5 0 -17 9 -27
19 -36 32 -50 42 -60 42 -5 0 -11 3 -13 8 -4 11 -177 132 -187 132 -5 0 -11 4
-13 8 -3 8 -274 201 -292 208 -9 3 -12 -274 -11 -1123z m40 476 c-3 -12 -7
-24 -10 -27 -3 -3 -3 5 -1 19 6 30 5 29 10 29 3 0 3 -10 1 -21z m40 1 c3 -5 1
-10 -4 -10 -6 0 -11 5 -11 10 0 6 2 10 4 10 3 0 8 -4 11 -10z m45 -14 c0 -2
-7 -7 -16 -10 -8 -3 -12 -2 -9 4 6 10 25 14 25 6z m595 -94 c-3 -3 -11 0 -18
7 -9 10 -8 11 6 5 10 -3 15 -9 12 -12z m-317 -197 c-3 -3 -9 2 -12 12 -6 14
-5 15 5 6 7 -7 10 -15 7 -18z m357 -1154 c3 -5 2 -12 -3 -15 -5 -3 -9 1 -9 9
0 17 3 19 12 6z m245 -199 c0 -5 -7 -9 -15 -9 -8 0 -12 4 -9 9 3 4 9 8 15 8 5
0 9 -4 9 -8z m-40 -281 c0 -6 -4 -12 -8 -15 -5 -3 -9 1 -9 9 0 8 4 15 9 15 4
0 8 -4 8 -9z"/>
<path d="M861 2507 l0 -1122 283 -211 283 -211 59 44 c32 24 70 52 84 63 249
187 407 303 417 307 12 5 16 232 4 251 -3 5 -69 54 -147 110 -77 55 -146 107
-152 115 -8 10 -12 146 -13 490 -1 315 -5 474 -12 470 -6 -4 -7 -1 -1 8 11 18
13 559 2 559 -5 0 -11 -7 -14 -15 -4 -8 -11 -15 -16 -15 -6 0 -31 -17 -57 -38
-25 -21 -59 -46 -74 -55 -15 -10 -25 -23 -21 -29 4 -6 3 -8 -3 -5 -6 4 -21 -2
-33 -13 -13 -11 -26 -17 -29 -12 -3 5 -51 42 -106 83 -55 41 -111 84 -125 97
-14 12 -32 20 -40 17 -8 -4 -11 -3 -8 1 8 8 -62 73 -79 74 -6 0 -13 3 -15 8
-1 4 -45 40 -95 79 l-93 73 1 -1123z m222 878 c-3 -9 -8 -14 -10 -11 -3 3 -2
9 2 15 9 16 15 13 8 -4z m120 -140 c-3 -9 -8 -14 -10 -11 -3 3 -2 9 2 15 9 16
15 13 8 -4z m362 -4 c3 -5 2 -12 -3 -15 -5 -3 -9 1 -9 9 0 17 3 19 12 6z m-75
-241 c0 -5 -2 -10 -4 -10 -3 0 -8 5 -11 10 -3 6 -1 10 4 10 6 0 11 -4 11 -10z
m35 -39 c3 -5 2 -12 -3 -15 -5 -3 -9 1 -9 9 0 17 3 19 12 6z m76 -8 c13 -16
12 -17 -3 -4 -10 7 -18 15 -18 17 0 8 8 3 21 -13z m-114 -38 c0 -8 -4 -12 -9
-9 -5 3 -6 10 -3 15 9 13 12 11 12 -6z"/>
<path d="M3995 3429 c-143 -111 -270 -208 -282 -216 -21 -14 -28 -10 -141 76
-66 50 -123 91 -126 91 -4 0 -6 -341 -5 -757 l1 -757 -35 -30 c-46 -42 -68
-58 -164 -123 -46 -31 -83 -60 -83 -65 0 -4 -7 -8 -15 -8 -18 0 -17 9 -20
-133 l-2 -117 41 -30 c23 -16 46 -33 51 -37 80 -64 146 -113 150 -113 3 0 13
-7 23 -16 9 -8 53 -42 97 -75 44 -33 87 -66 95 -72 9 -7 37 -28 64 -46 54 -38
55 -37 127 22 37 30 101 78 289 216 69 51 139 103 155 116 17 14 33 25 38 25
4 0 7 506 7 1125 0 619 -1 1125 -3 1124 -1 0 -119 -90 -262 -200z m-641 -1987
c3 -5 -1 -9 -9 -9 -8 0 -12 4 -9 9 3 4 7 8 9 8 2 0 6 -4 9 -8z"/>
</g>
</svg>
