<?xml version="1.0" encoding="utf-8"?>
<!-- Generator: Adobe Illustrator 22.0.1, SVG Export Plug-In . SVG Version: 6.00 Build 0)  -->
<svg version="1.1" id="レイヤー_1" xmlns="http://www.w3.org/2000/svg" xmlns:xlink="http://www.w3.org/1999/xlink" x="0px"
	 y="0px" viewBox="0 0 708.66 113.39" style="enable-background:new 0 0 708.66 113.39;" xml:space="preserve">
<style type="text/css">
	.st0{fill:#F08300;}
	.st1{fill:#FFFFFF;}
</style>
<g>
	<rect class="st0" width="708.66" height="113.39"/>
	<g>
		<path class="st1" d="M18.46,76.19c1.52-0.3,3.32-0.75,6.41-1.88V57.14h-5.01v-8.7h5.01V34.19h-5.74v-8.85h18v8.85h-5.63v14.25
			h4.73v8.7h-4.73v14.55c3.32-1.43,4.44-2.1,5.63-2.7l0.9,8.48c-5.12,3.08-12.82,6.38-18.28,7.95L18.46,76.19z M39.33,24.07h31.33
			v43.27h-9.34v13.2c0,1.88,0.06,2.47,1.8,2.47h1.74c1.29,0,2.02,0,2.08-9.82l5.91,1.57c-0.51,15.75-1.46,17.18-6.24,17.18h-6.58
			c-3.49,0-5.4-0.52-5.4-7.13V67.34h-3.21c-1.07,14.17-7.37,20.92-17.44,25.65l-3.54-8.77c6.24-2.17,13.61-6.75,14.46-16.88h-5.57
			V24.07z M46.02,31.94v4.88h17.83v-4.88H46.02z M46.02,43.42v4.88h17.83v-4.88H46.02z M46.02,54.82v4.95h17.83v-4.95H46.02z"/>
		<path class="st1" d="M83.04,65.24c-2.36,2.77-3.77,3.98-5.23,5.33l-3.15-9.52c2.76-2.33,9-7.5,14.68-22.05H75.72v-9h16.43
			c0.9-3.45,1.29-5.85,1.74-8.55h7.93c-0.51,2.48-0.84,4.35-1.97,8.55h28.63v9H97.16c-2.02,5.63-4.27,11.02-6.92,15.68v37.95h-7.2
			V65.24z M126.91,53.39v8.93h-12.94v19.2h14.51v9H92.37v-9h14.57v-19.2H94.12v-8.93h12.82V41.47h7.03v11.92H126.91z"/>
		<path class="st1" d="M148.57,24.89h7.14v7.95h12.26v9.23h-12.26v7.73c1.52-0.38,4.16-1.05,8.1-1.05c8.1,0,11.59,3.3,13.28,5.18
			c4.22,4.88,4.89,11.55,4.89,15.22c0,16.73-11.36,20.7-22.84,20.48l-1.52-8.77c6.58,0,16.82,0.08,16.82-12.3
			c0-11.1-8.94-11.1-11.31-11.1c-3.71,0-5.74,0.6-7.42,1.13v19.73c0,2.77,0,9.75-8.94,9.75c-9.23,0-12.43-9.15-12.43-14.63
			c0-3.83,0.84-14.4,14.23-21.3V42.07h-12.99v-9.23h12.99V24.89z M148.57,61.19c-2.02,1.42-7.2,5.17-7.2,11.85
			c0,4.42,2.87,5.85,4.72,5.85c2.48,0,2.48-1.35,2.48-2.85V61.19z M172.14,23.99c6.58,6.83,9.79,13.27,12.43,20.25l-6.64,4.95
			c-2.59-7.65-7.31-15.45-11.36-19.58L172.14,23.99z"/>
		<path class="st1" d="M201.84,34.27c-0.68-2.1-2.03-6.3-3.88-10.42l7.09-2.63c2.53,6.08,4.39,12.52,4.56,13.05h9.68
			c2.64-5.17,4.39-11.32,4.84-13.05l7.54,2.55c-1.29,4.88-3.38,9.3-3.94,10.5h12.26v9.3h-15.47v36.6h16.65v9.3h-53.1v-9.3h16.65
			v-36.6h-15.47v-9.3H201.84z M196.66,48.89c1.97,5.1,3.99,11.25,6.13,22.95l-6.86,3c-1.07-8.1-3.54-17.02-5.74-23.02L196.66,48.89z
			 M211.57,43.57v36.6h6.02v-36.6H211.57z M238.85,51.59c-1.35,8.17-3.71,16.27-6.41,23.33l-6.24-3.45
			c2.81-7.73,4.44-15.3,5.74-22.65L238.85,51.59z"/>
		<path class="st1" d="M265.57,28.72v8.77c-9.23,10.05-10.46,21.52-10.46,26.93c0,6.15,2.53,14.63,11.53,14.63
			c3.88,0,7.03-1.05,9.11-3.83c2.53-3.45,3.6-9.08,3.6-14.1c0-14.85-4.89-28.05-7.2-34.13l7.59-2.85
			c2.31,8.33,3.15,10.88,5.46,14.18c2.92,4.13,6.75,7.05,10.74,9l-2.48,10.73c-3.82-2.48-6.3-4.88-8.83-8.93
			c0.96,3.75,1.63,8.33,1.63,13.13c0,7.27-1.07,14.63-4.73,19.88c-3.54,5.1-9.11,6.75-13.95,6.75c-7.09,0-11.31-2.32-13.89-5.48
			c-4.27-5.17-5.51-12.97-5.51-18.52c0-11.77,4.33-21.07,8.1-26.92l-8.83,0.3v-9.52H265.57z M286.21,35.24
			c-1.01-4.27-2.19-8.02-3.83-11.92l4.5-1.73c0.73,1.65,2.19,5.02,3.77,11.85L286.21,35.24z M293.13,33.52
			c-0.62-2.85-2.08-8.32-3.43-11.47l4.5-1.65c1.41,3.15,2.76,7.95,3.43,11.33L293.13,33.52z"/>
		<path class="st1" d="M311.64,29.02c-0.39,3.08-1.35,11.18-1.35,20.4c0,8.1,0.68,27.38,5.96,27.38c1.86,0,3.04-1.88,4.16-4.2
			c0.56-1.2,2.19-4.73,3.71-10.42l6.24,4.57c-1.46,5.4-5.91,21.3-14.79,21.3c-12.32,0-12.83-29.25-12.83-38.18
			c0-9.38,0.62-17.85,0.84-21.75L311.64,29.02z M344.04,80.77c0-18-0.51-32.77-9.79-45.6l6.02-5.63
			c11.81,14.85,12.09,35.17,12.04,50.63L344.04,80.77z"/>
		<path class="st1" d="M376.77,25.04c-0.23,2.63-0.45,4.95-0.84,8.63h13.89v9.22h-14.96c-1.63,13.58-5.23,35.63-8.89,46.73
			l-7.26-3.3c5.34-15.08,8.44-39.75,8.89-43.43h-7.54v-9.22h8.49c0.34-3.53,0.45-6.38,0.56-8.7L376.77,25.04z M388.19,66.52
			c-2.76,3.83-3.04,6.45-3.04,7.65c0,5.7,6.64,5.7,10.29,5.7c1.29,0,7.26,0,11.92-0.75v9.68c-2.25,0.22-3.26,0.3-9.56,0.3
			c-6.24,0-19.58,0-19.58-13.8c0-6.45,3.21-11.25,4.73-13.43L388.19,66.52z M406.7,53.09c-1.52-0.08-3.09-0.23-5.46-0.23
			c-9.79,0-13.84,2.1-16.26,3.3l-2.25-8.18c4.28-2.48,9.56-4.95,23.91-4.65L406.7,53.09z"/>
		<path class="st1" d="M433.02,25.04c-0.06,0.97-0.62,7.13-0.79,8.63h13.84v9.22h-14.91c-2.31,16.8-4.5,31.88-8.89,46.5l-7.2-2.55
			c4.22-14.17,6.98-28.95,8.83-43.95h-7.59v-9.22h8.55c0.39-5.7,0.45-6.53,0.56-9L433.02,25.04z M444.44,66.67
			c-2.42,3.45-3.04,5.85-3.04,7.5c0,5.77,6.69,5.77,10.24,5.77c5.46,0,8.33-0.3,11.98-0.75l0.28,9.6c-2.02,0.15-3.77,0.38-9.39,0.38
			c-9.11,0-12.04-0.98-14.46-2.55c-3.09-2.02-5.63-5.85-5.63-10.88c0-4.13,1.18-8.55,4.78-13.73L444.44,66.67z M462.95,53.17
			c-1.58-0.08-3.15-0.23-5.51-0.23c-8.16,0-12.88,1.8-16.26,3.3l-2.19-8.25c8.49-4.13,15.86-4.88,23.91-4.57L462.95,53.17z
			 M453.22,38.32c-0.56-3.15-1.8-8.63-3.32-12.23l4.61-1.95c1.52,3.53,2.87,8.55,3.54,11.85L453.22,38.32z M460.76,35.54
			c-1.24-5.18-2.03-7.8-3.54-11.55l4.61-2.02c0.84,1.95,3.04,7.73,3.83,11.4L460.76,35.54z"/>
		<path class="st1" d="M482.07,25.79c-0.51,4.42-2.08,16.65-2.08,32.92c0,5.48,0.17,18.08,2.08,28.73l-7.48,1.35
			c-0.56-4.2-1.8-13.73-1.8-29.33c0-15,1.13-27.6,1.8-34.5L482.07,25.79z M503.51,39.59c-0.06-2.33-0.17-12.67-0.23-14.77h7.59
			c0,5.17,0,9,0.06,14.77h9.39v9.15h-9.22c0.34,22.5,0.51,36.15-22.22,41.4l-2.98-9.07c17.83-3.08,18.06-11.1,17.72-32.25h-17.83
			v-9.23H503.51z"/>
		<path class="st1" d="M549.63,31.12v-6.52h7.48v6.52h17.55v8.93h-17.55v6.67h16.43v8.7h-16.43v9.07c6.92,3.98,12.6,9.38,16.31,13.8
			l-4.89,8.7c-3.54-4.35-7.42-8.85-11.42-12.15v1.42c0,3.38,0,13.2-12.43,13.2c-10.91,0-14.06-7.73-14.06-13.88
			c0-9.9,7.09-14.33,14.51-14.33c2.53,0,3.49,0.3,4.5,0.6v-6.45h-19.46v-8.7h19.46v-6.67H529.1v-8.93H549.63z M549.74,70.72
			c-1.35-0.6-2.87-1.27-5.12-1.27c-2.87,0-6.97,1.27-6.97,5.92c0,4.5,3.88,5.33,6.47,5.33c5.23,0,5.63-3.23,5.63-6.3V70.72z"/>
		<path class="st1" d="M624.22,24.22c0.34,3.98,0.51,8.33,0.51,14.55l8.44-0.22l0.11,9.15l-8.55,0.3
			c-0.28,16.58-0.56,24.45-10.13,24.45c-1.58,0-4.73-0.23-7.14-0.83l-0.39-9c2.53,0.6,5.63,0.98,6.92,0.98
			c2.19,0,2.59-1.35,2.98-4.2c0.39-2.7,0.51-6.97,0.51-11.17l-18.06,0.52l-0.11,17.55c-0.06,12.52,0.28,13.2,14.01,13.2
			c10.13,0,13.72-0.6,15.52-0.9v9.67c-1.86,0.23-4.56,0.53-13.84,0.53c-12.88,0-19.07-1.35-21.77-9.3
			c-0.79-2.32-1.13-7.57-1.13-12.82v-17.7l-8.38,0.23l-0.22-9.15l8.61-0.23V25.49h7.48l-0.11,14.02l17.78-0.52
			c-0.06-2.32-0.28-12-0.39-14.63L624.22,24.22z"/>
		<path class="st1" d="M662.36,26.32c-1.35,4.95-6.75,25.13-7.26,27.3c1.29-1.13,3.21-2.85,6.58-2.85c9.34,0,9.34,11.63,9.34,16.95
			v3.98c0,1.88,0,7.73,4.11,7.73c3.88,0,6.69-4.73,7.82-22.88l7.26,2.77c-1.41,19.88-5.68,29.92-15.58,29.92
			c-8.1,0-11.08-6.98-11.08-16.65v-3.08c0-5.7,0-9.15-3.66-9.15c-6.08,0-8.83,9.75-9.79,13.13c-0.17,1.05-2.53,13.73-3.04,16.43
			l-7.76-3.15c6.86-29.85,7.65-33.15,10.86-46.65c1.8-7.65,2.92-12.3,3.71-15.75L662.36,26.32z"/>
	</g>
</g>
<g>
</g>
<g>
</g>
<g>
</g>
<g>
</g>
<g>
</g>
<g>
</g>
</svg>
