<?xml version="1.0" encoding="utf-8"?>
<!-- Generator: Adobe Illustrator 22.0.1, SVG Export Plug-In . SVG Version: 6.00 Build 0)  -->
<svg version="1.1" id="レイヤー_1" xmlns="http://www.w3.org/2000/svg" xmlns:xlink="http://www.w3.org/1999/xlink" x="0px"
	 y="0px" viewBox="0 0 708.66 113.39" style="enable-background:new 0 0 708.66 113.39;" xml:space="preserve">
<style type="text/css">
	.st0{fill:#3C3C3C;}
	.st1{fill:#FFFFFF;}
</style>
<g>
	<rect x="0" y="-0.19" class="st0" width="708.66" height="113.39"/>
	<g>
		<path class="st1" d="M130.91,54.78c2.02-5.93,2.4-12.15,2.32-18.53l6.08,0.15c0.07,8.25-0.45,16.27-2.25,22.35L130.91,54.78z
			 M152.43,44.2c-0.75-2.4-0.98-3-2.4-6.52v54.3h-9.08v-70.8h9.08v12.67l3.9-1.88c1.65,3,3,6.15,4.27,9.38L152.43,44.2z
			 M174.33,21.18h9.23v3.98h18.15v6.82h-18.15v3.45h16.73v5.85h-16.73v3.52h19.65v6.9h-48.38v-6.9h19.5v-3.52h-16.05v-5.85h16.05
			v-3.45h-18.08v-6.82h18.08V21.18z M199.83,54.63v29.4c0,5.7-0.83,7.95-7.8,7.95h-9.23l-1.65-7.57h7.88c1.8,0,1.8-0.83,1.8-2.25
			V79.6h-23.85v12.38h-8.77V54.63H199.83z M166.98,61.15v3.52h23.85v-3.52H166.98z M166.98,70.3v3.6h23.85v-3.6H166.98z"/>
		<path class="st1" d="M220.68,21.4h9.07v4.88h11.33v8.25h-11.33v5.63h13.58v8.17h-4.05c-0.83,3.98-0.98,5.02-1.88,8.48h5.55v8.32
			h-13.2v6.23h11.48v8.55h-11.48v11.85h-9.07V79.9h-11.4v-8.55h11.4v-6.23h-12.68V56.8h5.48c-0.3-2.25-0.9-5.77-1.8-8.48h-4.13
			v-8.17h13.13v-5.63h-11.4v-8.25h11.4V21.4z M220.01,48.33c0.98,4.27,1.35,6.67,1.65,8.48h7.42c0.67-2.77,1.05-5.55,1.35-8.48
			H220.01z M253.31,84.78v6.97h-8.77V23.5h31.27c0,2.78-0.3,16.5-1.73,20.25c-0.38,1.13-1.58,4.2-6.08,4.2h-9.9l-1.5-7.88h7.05
			c2.25,0,3,0,3.3-8.02h-13.65v18.9h23.25c-0.52,6.75-1.95,17.77-5.93,25.42c2.55,2.63,4.95,4.58,8.4,7.05l-4.65,8.4
			c-2.17-1.35-4.5-2.85-8.7-7.65c-2.25,3.07-4.5,5.25-7.27,7.8L253.31,84.78z M261.03,60.4c0.9,2.25,1.95,4.65,3.97,8.4
			c2.03-5.02,2.33-7.35,2.63-9.83h-14.32v25.65c2.1-1.8,4.2-3.52,7.13-7.65c-4.43-7.2-5.7-12.15-6.38-14.77L261.03,60.4z"/>
		<path class="st1" d="M318.63,64.45c-0.22,2.1-0.52,4.5-1.27,8.02c2.93,5.7,5.77,7.13,7.13,7.8V60.63h-17.4v1.65
			c-2.55,0.97-4.95,1.88-7.5,2.7v18.75c0,7.43-3.45,8.1-8.33,8.1h-7.65l-1.2-9.45h6.15c1.8,0,2.1-0.38,2.1-2.1V67.6
			c-1.35,0.38-3.15,0.83-8.03,1.95l-1.2-9.6c2.55-0.38,5.63-0.9,9.23-1.73V42.78h-8.63v-8.85h8.63V21.25h8.85v12.68h6.6v8.85h-6.52
			v13.2c1.8-0.52,3.38-1.05,6.83-2.25V52.6h46.42v8.02h-19.42v6.3h16.42v7.27h-16.42v8.02h20.4L351.86,91h-18.15
			c-4.5,0-13.73-0.75-19.05-9.67c-2.55,5.85-5.03,8.33-7.13,10.5l-6.98-6.15c2.63-2.4,7.88-7.8,9.45-22.5L318.63,64.45z
			 M349.61,23.13v25.8h-41.63v-25.8H349.61z M316.83,29.95v3.45h24v-3.45H316.83z M316.83,38.73v3.83h24v-3.83H316.83z"/>
		<path class="st1" d="M363.63,57.93c-1.72,2.32-2.4,3.07-4.13,4.88l-3.45-12.3c5.17-6.67,9.75-14.77,11.92-29.55l9.3,0.98
			c-0.45,3.3-1.35,9.07-4.58,18.07v51.9h-9.08V57.93z M397.46,73.23c-4.95,8.77-11.4,14.7-17.25,18.75l-6.23-7.42
			c8.48-4.88,13.5-11.55,15.75-14.93L397.46,73.23z M385.83,21.1h9.22v12.83h12.98V21.1h9.22v12.83h9.38V43h-9.38v15.75h10.65v9.08
			h-52.05v-9.08h9.98V43h-8.85v-9.07h8.85V21.1z M395.06,43v15.75h12.98V43H395.06z M422.36,92.05
			c-8.25-6.23-14.02-14.77-16.35-18.45l7.58-4.27c3.9,6.15,10.58,12,15.3,15.52L422.36,92.05z"/>
		<path class="st1" d="M438.86,57.18c-2.03,2.63-3.08,3.67-4.73,5.17l-3-12.3c6.15-7.27,10.58-16.2,12.38-28.95l9.53,0.9
			c-0.53,3.83-1.5,10.2-5.03,18.75v51.23h-9.15V57.18z M448.68,74.35c9-8.55,15.9-18.98,20.63-30.52h-17.17v-9.08h20.03V21.18h9.3
			v13.57h21.3v9.08h-18.75c1.35,3.38,6.83,17.85,20.03,30l-5.92,9.52c-4.28-4.13-10.5-10.65-16.65-26.02v34.65h-9.3V56.13
			c-6.45,14.78-13.2,22.43-17.4,27L448.68,74.35z"/>
		<path class="st1" d="M550.31,21.33v21.9h24.08v9.45h-24.08v27.3h27.45v9.45h-70.35v-9.45h9.75V33.55h9.6v46.42h13.95V21.33H550.31
			z"/>
	</g>
</g>
<g>
</g>
<g>
</g>
<g>
</g>
<g>
</g>
<g>
</g>
<g>
</g>
</svg>
