<?xml version="1.0" encoding="utf-8"?>
<!-- Generator: Adobe Illustrator 22.0.1, SVG Export Plug-In . SVG Version: 6.00 Build 0)  -->
<svg version="1.1" id="レイヤー_1" xmlns="http://www.w3.org/2000/svg" xmlns:xlink="http://www.w3.org/1999/xlink" x="0px"
	 y="0px" viewBox="0 0 708.66 113.39" style="enable-background:new 0 0 708.66 113.39;" xml:space="preserve">
<style type="text/css">
	.st0{fill:#F08300;}
	.st1{fill:#FFFFFF;}
</style>
<g>
	<rect class="st0" width="708.66" height="113.39"/>
	<g>
		<path class="st1" d="M145.08,77.96c-1.13,3.75-3.6,9.75-7.35,14.1l-6.67-5.47c3.23-3.6,5.4-8.18,6.38-12L145.08,77.96z
			 M134.28,23.43h25.27v50.48h-25.27V23.43z M142.68,31.68v6h8.77v-6H142.68z M142.68,44.88v6.52h8.77v-6.52H142.68z M142.68,58.76
			v6.83h8.77v-6.83H142.68z M168.18,84.26c-1.42,3.45-2.7,5.55-4.05,7.73l-6.83-4.8l-3.38,1.65c-1.27-3.83-3.67-7.88-6.08-11.18
			l6.98-2.92c1.35,1.57,2.7,3.38,4.65,6.75c4.05-8.33,5.1-18.38,5.1-27.52V23.43h37.8v8.78h-28.95v9.15h26.48
			c0.07,7.13,0.3,19.65-8.18,33.38c4.2,4.42,8.18,6.9,11.7,8.92l-4.65,8.18c-3-1.73-7.73-4.5-12.6-9.98
			c-5.33,5.63-10.42,8.17-13.73,9.75L168.18,84.26z M180.71,74.51c-1.57-2.55-5.02-8.48-7.27-19.8c0,9.75-1.42,19.5-4.88,28.65
			C175.38,79.83,179.36,75.86,180.71,74.51z M173.43,49.76v3.3l7.65-1.88c1.58,8.7,3.45,12.75,5.18,15.98
			c3.82-6.82,4.57-13.27,5.02-17.4H173.43z"/>
		<path class="st1" d="M236.28,61.53c-0.6,20.33-9.52,27.38-25.95,30.83l-4.13-9.38c13.8-3.08,20.33-6.3,20.4-21.45H236.28z
			 M207.03,26.28h30.6v-5.1h9.6v5.1h30.6v8.63h-30.6v4.73h26.78v7.88h-63v-7.88h26.63v-4.73h-30.6V26.28z M208.53,51.03h67.8v15.6
			h-9.67v-7.58h-48.45v7.5h-9.67V51.03z M278.13,74.58c-0.68,8.47-1.35,16.35-8.33,16.35h-16.58c-4.13,0-6.97-2.02-6.97-6.52V61.53
			h9.45v18.52c0,1.5,0.38,1.95,1.73,1.95h8.63c1.65,0,2.17-1.42,2.63-9.52L278.13,74.58z"/>
		<path class="st1" d="M282.86,50.73h69.15v9.9h-69.15V50.73z"/>
		<path class="st1" d="M358.83,24.03h24.23v57.68h-15.75v5.55h-8.48V24.03z M367.31,32.88v15.45h7.5V32.88H367.31z M367.31,56.43
			v16.58h7.5V56.43H367.31z M385.53,57.86h25.95v-6.23h-26.63v-8.77h16.72v-7.2h-14.32v-8.63h14.32v-5.92h9.23v5.92h14.77v8.63
			h-14.77v7.2h16.95v8.77h-6.98v6.23h6.38v8.85h-6.38v17.25c0,2.17,0,7.72-7.2,7.72h-12.9l-1.65-9.15h10.8c0.75,0,1.65,0,1.65-1.57
			V66.71h-25.95V57.86z M393.71,67.08c5.25,5.7,7.43,9.07,9.53,12.67l-8.1,5.02c-2.48-4.88-4.65-7.88-9-13.13L393.71,67.08z"/>
		<path class="st1" d="M438.71,57.11c-2.03,2.63-3.08,3.67-4.73,5.17l-3-12.3c6.15-7.27,10.58-16.2,12.38-28.95l9.53,0.9
			c-0.53,3.83-1.5,10.2-5.03,18.75v51.23h-9.15V57.11z M448.53,74.28c9-8.55,15.9-18.98,20.63-30.52h-17.17v-9.08h20.03V21.11h9.3
			v13.57h21.3v9.08h-18.75c1.35,3.38,6.83,17.85,20.03,30l-5.92,9.52c-4.28-4.13-10.5-10.65-16.65-26.02v34.65h-9.3V56.06
			c-6.45,14.78-13.2,22.43-17.4,27L448.53,74.28z"/>
		<path class="st1" d="M550.16,21.26v21.9h24.08v9.45h-24.08v27.3h27.45v9.45h-70.35v-9.45h9.75V33.48h9.6v46.42h13.95V21.26H550.16
			z"/>
	</g>
</g>
<g>
</g>
<g>
</g>
<g>
</g>
<g>
</g>
<g>
</g>
<g>
</g>
</svg>
