<?xml version="1.0" encoding="utf-8"?>
<!-- Generator: Adobe Illustrator 22.0.1, SVG Export Plug-In . SVG Version: 6.00 Build 0)  -->
<svg version="1.1" id="レイヤー_1" xmlns="http://www.w3.org/2000/svg" xmlns:xlink="http://www.w3.org/1999/xlink" x="0px"
	 y="0px" viewBox="0 0 708.66 113.39" style="enable-background:new 0 0 708.66 113.39;" xml:space="preserve">
<style type="text/css">
	.st0{fill:#F08300;}
	.st1{fill:#FFFFFF;}
</style>
<g>
	<rect class="st0" width="708.66" height="113.39"/>
	<g>
		<path class="st1" d="M251.86,61.57c-1.88,1.03-4.13,1.31-6.19,1.31c-10.13,0-17.44-8.16-17.44-19.22
			c0-13.03,8.81-20.16,20.34-20.16c11.63,0,20.44,7.03,20.44,19.97c0,4.78-2.34,10.59-5.25,16.97l-13.13,28.59h-11.81L251.86,61.57z
			 M248.58,32.97c-5.91,0-9.47,4.13-9.47,10.41c0,6.19,3.56,10.41,9.47,10.41c6.09,0,9.56-4.22,9.56-10.41
			C258.14,37.1,254.67,32.97,248.58,32.97z"/>
		<path class="st1" d="M297.51,89.88c-10.78,0-20.34-6.38-20.34-19.78V43.38c0-13.78,9.56-19.88,20.34-19.88s20.34,6.09,20.34,19.78
			V70.1C317.86,83.51,308.29,89.88,297.51,89.88z M297.51,32.97c-5.91,0-9.56,4.03-9.56,10.97v25.5c0,6.94,3.66,10.97,9.56,10.97
			c5.81,0,9.47-4.03,9.47-10.97v-25.5C306.98,37.01,303.32,32.97,297.51,32.97z"/>
		<path class="st1" d="M343.73,62.39c-1.95,1.7-3.15,2.55-4.4,3.4l-4.1-5.5c7.65-5.15,11.65-10.4,14.4-17.65l6.15,1.25
			c-2.45,6.6-5,11.05-9.7,16.15h27.45c-4.7-5.3-7.9-10.55-9.95-15.8l6.15-1.65c3.35,7.95,7.65,13.1,14,17.6l-4.1,5.3
			c-1.25-0.85-2.35-1.6-4.5-3.75c0.15,7.9-0.7,20.35-2.4,24.3c-1.6,3.65-4.65,3.75-6.35,3.75h-8.15l-1.2-6.25h7.45
			c2.05,0,2.55-1.3,2.75-1.85c1.1-3,1.25-7.55,1.6-15.7h-10.35c-1.4,14.25-9.85,20.2-18.35,23.8l-3.7-5.75
			c10.7-4.3,15.1-9.4,15.75-18.05h-8.45V62.39z"/>
		<path class="st1" d="M384.83,52.59c4.55-3.15,6.6-5.55,9.2-10.3l5.7,2c-3.3,7.1-8.45,11.55-12.4,14.2L384.83,52.59z M399.88,57.39
			c-0.5,1.2-1.5,3.85-3.85,7.3v25.1h-6.05v-18.1c-0.85,0.75-1.4,1.2-2.7,2.25l-2.05-6.75c4.7-4.1,7.45-7.65,9.85-13.55l5.3,2.4
			c-0.1,0.15-0.4,1.05-0.45,1.25h12.95v-4.95h-10.9v-5.7h10.9v-3.9h6.1v3.9h12v5.7h-12v4.95h13.95v5.8h-5.9v4.25h5.5v5.8h-5.5v11.45
			c0,4.9-3.3,5.2-5.75,5.2h-8l-1.05-6.15h6.15c2.45,0,2.45-0.25,2.45-1.9v-8.6h-14.9c4.25,3.1,6.8,6.5,7.45,7.4l-4.8,4.15
			c-1.1-1.55-4.3-5.65-7-7.75l4.3-3.8h-5.4v-5.8h20.35v-4.25h-20.95V57.39z"/>
		<path class="st1" d="M455.58,44.64c-0.2,2.4-0.3,3.95-0.55,5.75h25.4v6.05h-26.1c-0.5,4.1-0.95,5.85-1.5,8
			c1.8-1.05,5.7-3.25,11.9-3.25c13.15,0,14.25,9.75,14.25,12.6c0,12.95-13.9,13.9-22,13.9c-4.2,0-8.1-0.3-9.95-0.45l-1.15-6.3
			c2.5,0.3,6.25,0.75,10.75,0.75c7.75,0,15.35-1.2,15.35-8.05c0-5.05-4.55-6.55-7.85-6.55c-4.75,0-9.4,1.75-12.85,5.05
			c-0.2,0.8-0.25,1.05-0.45,1.8l-6.85-1.6c1.05-3.15,2.5-7.75,3.45-15.9h-9.5v-6.05h10.15c0.2-2.85,0.25-3.5,0.4-5.95L455.58,44.64z
			"/>
	</g>
</g>
<g>
</g>
<g>
</g>
<g>
</g>
<g>
</g>
<g>
</g>
<g>
</g>
</svg>
