<?xml version="1.0" encoding="utf-8"?>
<!-- Generator: Adobe Illustrator 22.0.1, SVG Export Plug-In . SVG Version: 6.00 Build 0)  -->
<svg version="1.1" id="レイヤー_1" xmlns="http://www.w3.org/2000/svg" xmlns:xlink="http://www.w3.org/1999/xlink" x="0px"
	 y="0px" viewBox="0 0 708.66 113.39" style="enable-background:new 0 0 708.66 113.39;" xml:space="preserve">
<style type="text/css">
	.st0{fill:#F08300;}
	.st1{fill:#FFFFFF;}
</style>
<g>
	<rect class="st0" width="708.66" height="113.39"/>
	<g>
		<path class="st1" d="M119.47,52.56c4.55-3.15,6.6-5.55,9.2-10.3l5.7,2c-3.3,7.1-8.45,11.55-12.4,14.2L119.47,52.56z M134.52,57.36
			c-0.5,1.2-1.5,3.85-3.85,7.3v25.1h-6.05v-18.1c-0.85,0.75-1.4,1.2-2.7,2.25l-2.05-6.75c4.7-4.1,7.45-7.65,9.85-13.55l5.3,2.4
			c-0.1,0.15-0.4,1.05-0.45,1.25h12.95v-4.95h-10.9v-5.7h10.9v-3.9h6.1v3.9h12v5.7h-12v4.95h13.95v5.8h-5.9v4.25h5.5v5.8h-5.5v11.45
			c0,4.9-3.3,5.2-5.75,5.2h-8l-1.05-6.15h6.15c2.45,0,2.45-0.25,2.45-1.9v-8.6h-14.9c4.25,3.1,6.8,6.5,7.45,7.4l-4.8,4.15
			c-1.1-1.55-4.3-5.65-7-7.75l4.3-3.8h-5.4v-5.8h20.35v-4.25h-20.95V57.36z"/>
		<path class="st1" d="M190.22,44.61c-0.2,2.4-0.3,3.95-0.55,5.75h25.4v6.05h-26.1c-0.5,4.1-0.95,5.85-1.5,8
			c1.8-1.05,5.7-3.25,11.9-3.25c13.15,0,14.25,9.75,14.25,12.6c0,12.95-13.9,13.9-22,13.9c-4.2,0-8.1-0.3-9.95-0.45l-1.15-6.3
			c2.5,0.3,6.25,0.75,10.75,0.75c7.75,0,15.35-1.2,15.35-8.05c0-5.05-4.55-6.55-7.85-6.55c-4.75,0-9.4,1.75-12.85,5.05
			c-0.2,0.8-0.25,1.05-0.45,1.8l-6.85-1.6c1.05-3.15,2.5-7.75,3.45-15.9h-9.5v-6.05h10.15c0.2-2.85,0.25-3.5,0.4-5.95L190.22,44.61z
			"/>
		<path class="st1" d="M221.72,44.61h16.15v38.45h-10.5v3.7h-5.65V44.61z M227.37,50.51v10.3h5v-10.3H227.37z M227.37,66.21v11.05h5
			V66.21H227.37z M239.52,67.16h17.3v-4.15h-17.75v-5.85h11.15v-4.8h-9.55v-5.75h9.55v-3.95h6.15v3.95h9.85v5.75h-9.85v4.8h11.3
			v5.85h-4.65v4.15h4.25v5.9h-4.25v11.5c0,1.45,0,5.15-4.8,5.15h-8.6l-1.1-6.1h7.2c0.5,0,1.1,0,1.1-1.05v-9.5h-17.3V67.16z
			 M244.97,73.31c3.5,3.8,4.95,6.05,6.35,8.45l-5.4,3.35c-1.65-3.25-3.1-5.25-6-8.75L244.97,73.31z"/>
		<path class="st1" d="M272.22,44.51h19.7v18.75h-13.8v26.55h-5.9V44.51z M278.12,49.11v2.85h8v-2.85H278.12z M278.12,55.76v2.9h8
			v-2.9H278.12z M305.47,83.86h3.4c1.2,0,1.25-0.75,1.25-1.45V63.26h-14.4V44.51h20.3v40.3c0,1.8-0.5,5-3.8,5h-8.55l-0.8-4.85
			h-20.25v-19h22.85V83.86z M288.22,70.51v2.95h11.6v-2.95H288.22z M288.22,77.16v3.1h11.6v-3.1H288.22z M301.47,49.11v2.85h8.65
			v-2.85H301.47z M301.47,55.76v2.9h8.65v-2.9H301.47z"/>
		<path class="st1" d="M351.56,51.79c1.88-0.94,4.13-1.22,6.19-1.22c10.13,0,17.44,8.16,17.44,19.13c0,13.03-8.72,20.16-20.34,20.16
			c-11.53,0-20.44-7.03-20.44-19.97c0-4.78,2.34-10.59,5.25-16.97l13.22-28.59h11.81L351.56,51.79z M354.84,80.38
			c5.91,0,9.47-4.13,9.47-10.41c0-6.19-3.56-10.41-9.47-10.41c-6,0-9.56,4.22-9.56,10.41C345.28,76.26,348.84,80.38,354.84,80.38z"
			/>
		<path class="st1" d="M403.77,89.85c-10.78,0-20.34-6.38-20.34-19.78V43.35c0-13.78,9.56-19.88,20.34-19.88s20.34,6.09,20.34,19.78
			v26.81C424.12,83.48,414.56,89.85,403.77,89.85z M403.77,32.95c-5.91,0-9.56,4.03-9.56,10.97v25.5c0,6.94,3.66,10.97,9.56,10.97
			c5.81,0,9.47-4.03,9.47-10.97v-25.5C413.24,36.98,409.59,32.95,403.77,32.95z"/>
		<path class="st1" d="M449.99,62.36c-1.95,1.7-3.15,2.55-4.4,3.4l-4.1-5.5c7.65-5.15,11.65-10.4,14.4-17.65l6.15,1.25
			c-2.45,6.6-5,11.05-9.7,16.15h27.45c-4.7-5.3-7.9-10.55-9.95-15.8l6.15-1.65c3.35,7.95,7.65,13.1,14,17.6l-4.1,5.3
			c-1.25-0.85-2.35-1.6-4.5-3.75c0.15,7.9-0.7,20.35-2.4,24.3c-1.6,3.65-4.65,3.75-6.35,3.75h-8.15l-1.2-6.25h7.45
			c2.05,0,2.55-1.3,2.75-1.85c1.1-3,1.25-7.55,1.6-15.7h-10.35c-1.4,14.25-9.85,20.2-18.35,23.8l-3.7-5.75
			c10.7-4.3,15.1-9.4,15.75-18.05h-8.45V62.36z"/>
		<path class="st1" d="M491.94,79.46c1.3-0.35,2.05-0.55,4.65-1.4l-0.25-34.45l6.5-0.1l0.15,32.2c8.45-3.2,9.4-3.55,12.4-4.95
			l1.15,5.6c-5.1,2.6-18.25,7.8-23.4,9.5L491.94,79.46z M512.14,45.11c3.3,3.15,7.3,7.55,10.7,12.95l-5.6,4.25
			c-1.7-2.9-4.35-7.15-10-13.35L512.14,45.11z M535.49,54.96c-0.05,3.75-0.2,11.65-4.15,19.4c5.8,5.8,7.35,7.95,8.65,9.75
			l-4.95,5.65c-0.85-1.55-2.2-4-7.25-10.1c-6.2,7.1-13.35,9.3-16.25,10.25l-3.55-6.1c20.2-5.05,20.65-20.85,20.8-29.6l0.15-10.45
			l6.75,0.05L535.49,54.96z"/>
		<path class="st1" d="M567.94,42.76v14.1h18.3v6.45h-18.3v18.5h21.25v6.4h-46.95v-6.4h19.15V42.76H567.94z"/>
	</g>
</g>
<g>
</g>
<g>
</g>
<g>
</g>
<g>
</g>
<g>
</g>
<g>
</g>
</svg>
