<?xml version="1.0" encoding="utf-8"?>
<!-- Generator: Adobe Illustrator 22.0.1, SVG Export Plug-In . SVG Version: 6.00 Build 0)  -->
<svg version="1.1" id="レイヤー_1" xmlns="http://www.w3.org/2000/svg" xmlns:xlink="http://www.w3.org/1999/xlink" x="0px"
	 y="0px" viewBox="0 0 623.6 141.7" style="enable-background:new 0 0 623.6 141.7;" xml:space="preserve">
<style type="text/css">
	.st0{fill:#0075C2;}
	.st1{fill:#D83935;}
	.st2{fill:#F08300;}
	.st3{fill:#2E7839;}
	.st4{fill:#753186;}
	.st5{fill:#3C3C3C;}
	.st6{fill:none;}
	.st7{fill:#FFFFFF;}
	.st8{font-family:'ATC-65b030b444422b44494e3230313444656d69-90ms-RKSJ-H';}
	.st9{font-size:100px;}
</style>
<path class="st0" d="M607.1,141.7H16.5c-9.1,0-16.5-7.4-16.5-16.5L0,16.5C0,7.4,7.4,0,16.5,0l590.7,0c9.1,0,16.5,7.4,16.5,16.5
	v108.8C623.6,134.3,616.2,141.7,607.1,141.7z"/>
<g>
	<rect x="497.9" y="217.9" class="st1" width="93" height="148.7"/>
	<rect x="404.8" y="217.9" class="st0" width="93" height="148.7"/>
	<rect x="311.8" y="217.9" class="st2" width="93" height="148.7"/>
	<rect x="218.8" y="217.9" class="st3" width="93" height="148.7"/>
	<rect x="125.8" y="217.9" class="st4" width="93" height="148.7"/>
	<rect x="32.7" y="217.9" class="st5" width="93" height="148.7"/>
</g>
<rect x="-60.3" y="217.9" width="93" height="148.7"/>
<rect y="0" class="st6" width="623.6" height="141.7"/>
<text transform="matrix(1.1875 0 0 1.25 25.6862 113.0004)" class="st7 st8 st9">Blue</text>
<text transform="matrix(0.95 0 0 1 250.9498 108.0004)" class="st7 st8 st9">館</text>
<text transform="matrix(1.1875 0 0 1.25 345.9498 113.0004)" class="st7 st8 st9">1</text>
<text transform="matrix(0.95 0 0 1 407.9357 108.0004)" class="st7 st8 st9">階</text>
<text transform="matrix(0.95 0 0 1 502.9362 108.0004)" class="st7 st8 st9">東</text>
</svg>
