<svg id="レイヤー_3" data-name="レイヤー 3" xmlns="http://www.w3.org/2000/svg" xmlns:xlink="http://www.w3.org/1999/xlink" viewBox="0 0 405.15 277.98"><defs><style>.cls-1,.cls-19,.cls-20,.cls-24,.cls-25,.cls-26,.cls-27,.cls-28,.cls-3,.cls-5,.cls-6,.cls-7,.cls-8,.cls-9{fill:none;}.cls-2{clip-path:url(#clip-path);}.cls-3{stroke:#94c31f;}.cls-16,.cls-17,.cls-18,.cls-20,.cls-21,.cls-22,.cls-23,.cls-24,.cls-25,.cls-26,.cls-27,.cls-28,.cls-29,.cls-3,.cls-30,.cls-31,.cls-32,.cls-5,.cls-6,.cls-7,.cls-8,.cls-9{stroke-linecap:round;stroke-linejoin:round;}.cls-3,.cls-5,.cls-8{stroke-width:7.5px;}.cls-4{clip-path:url(#clip-path-2);}.cls-5{stroke:#034080;}.cls-6{stroke:#127cbf;}.cls-16,.cls-17,.cls-18,.cls-20,.cls-21,.cls-22,.cls-23,.cls-24,.cls-25,.cls-26,.cls-27,.cls-28,.cls-6,.cls-7,.cls-9{stroke-width:5px;}.cls-7{stroke:#b9126e;}.cls-8{stroke:#299c83;}.cls-9{stroke:#e55927;}.cls-10{fill:#a5a7a9;}.cls-11{fill:#c61e78;}.cls-12{fill:#c76ca7;}.cls-13{fill:#100f0f;}.cls-14{fill:#0e0f0e;}.cls-15,.cls-16,.cls-17,.cls-18,.cls-21,.cls-22,.cls-23,.cls-29,.cls-30,.cls-31,.cls-32{fill:#fff;}.cls-16{stroke:#f1c11f;}.cls-17{stroke:#e88844;}.cls-18{stroke:#cc1324;}.cls-19{stroke:#a5a7a9;stroke-miterlimit:10;stroke-width:1.5px;}.cls-20{stroke:#1392c4;}.cls-21{stroke:#9d539d;}.cls-22{stroke:#ed8f25;}.cls-23{stroke:#15923b;}.cls-24{stroke:#b56433;}.cls-25{stroke:#d71618;}.cls-26{stroke:#6ab259;}.cls-27{stroke:#13a4a0;}.cls-28{stroke:#0c72b5;}.cls-29,.cls-30,.cls-31,.cls-32{stroke:#040000;}.cls-29{stroke-width:0.47px;}.cls-30{stroke-width:0.28px;}.cls-31{stroke-width:0.28px;}.cls-32{stroke-width:0.47px;}</style><clipPath id="clip-path"><rect class="cls-1" x="-623.89" y="141.64" width="405.33" height="278.69"/></clipPath><clipPath id="clip-path-2"><rect class="cls-1" width="405.33" height="278.69"/></clipPath></defs><title>アートボード 2</title><g class="cls-2"><circle class="cls-3" cx="-122.26" cy="161.22" r="201.04"/></g><g class="cls-4"><line class="cls-5" x1="507.29" y1="171.48" x2="86.84" y2="64.28"/><line class="cls-6" x1="300.58" y1="19.57" x2="-136.33" y2="111.69"/><line class="cls-7" x1="300.58" y1="19.57" x2="-136.33" y2="62.73"/><line class="cls-8" x1="331.12" y1="126.78" x2="13.53" y2="328.79"/><line class="cls-9" x1="300.58" y1="19.57" x2="-136.33" y2="19.57"/><path id="path18" class="cls-10" d="M72.55,143.47a.77.77,0,0,1-.74-.71.78.78,0,0,1,.67-.87l17-1.82,21.9-2.28c.19,0,4.46-.46,6.1-.55s2.15-.11,3-.09,1.85.06,3.16.21c.32,0,1,.15,1.88.31,2,.35,5.36,1,8.11,1.18a.79.79,0,0,1,.69.86.77.77,0,0,1-.81.72c-2.82-.24-6.21-.84-8.24-1.2-.85-.15-1.51-.27-1.79-.3-1.26-.14-2.28-.18-3-.19s-1.27,0-2.94.08-6,.54-6,.54l-21.9,2.29-17,1.81h-.08"/><path id="path20" class="cls-10" d="M252.78,145.25a.62.62,0,0,1-.29-.07,15.17,15.17,0,0,0-2.14-.72c-1.2-.22-6.06-.85-7.21-1s-7.28-.24-8.72-.2-8.83.57-9.14.59-8,.77-9.54.8-8.07-.15-9.53-.27a20.38,20.38,0,0,1-2.56-.38c-.15,0-3.94-.88-5.06-1.23a46.7,46.7,0,0,1-4.93-2.3c-.34-.18-.82-.47-1.33-.78-.78-.47-1.66-1-2.2-1.25a51.94,51.94,0,0,0-6.14-2,34.2,34.2,0,0,0-5.49-.2c-1.33.08-8.46.91-8.53.92a.75.75,0,0,1-.83-.7.78.78,0,0,1,.66-.87c.3,0,7.25-.85,8.61-.93a35.37,35.37,0,0,1,5.84.22,52.4,52.4,0,0,1,6.48,2.13c.61.28,1.53.84,2.34,1.32.5.3,1,.59,1.28.75a44.81,44.81,0,0,0,4.67,2.19c1.06.33,4.92,1.2,4.95,1.2a15.57,15.57,0,0,0,2.35.35c1.29.11,7.79.29,9.4.26s9.35-.78,9.43-.78h0c.32,0,7.77-.55,9.21-.59s7.65.07,8.9.2,6.15.76,7.34,1h0a14.27,14.27,0,0,1,2.41.82.79.79,0,0,1,.4,1,.76.76,0,0,1-.69.49"/><path id="path22" class="cls-10" d="M208.27,196.18a.76.76,0,0,1-.72-.55,26.32,26.32,0,0,1-.87-3.68,25.62,25.62,0,0,1,.25-4.06c.08-.8.18-1.78.17-2-.09-.47-1.11-3.08-2.06-5.36a.81.81,0,0,1,.39-1,.74.74,0,0,1,1,.41,51,51,0,0,1,2.18,5.83,19.61,19.61,0,0,1-.18,2.34,32.53,32.53,0,0,0-.25,3.73,23.64,23.64,0,0,0,.82,3.36.81.81,0,0,1-.49,1,.93.93,0,0,1-.23,0"/><path id="path24" class="cls-10" d="M207.42,192.66h-.11a8.73,8.73,0,0,1-3.79-1.68,15.28,15.28,0,0,1-2.71-3.36.82.82,0,0,1,.25-1.09.73.73,0,0,1,1,.26,14,14,0,0,0,2.38,3,7.09,7.09,0,0,0,3.07,1.33.8.8,0,0,1,.63.91.77.77,0,0,1-.75.67"/><path id="path26" class="cls-10" d="M161.38,188.65a.69.69,0,0,1-.59-.73.75.75,0,0,1,.55-.85l12.91-1.3c.33,0,.61.29.64.73a.77.77,0,0,1-.55.85l-12.92,1.3h0"/><path id="path28" class="cls-10" d="M146,122.37a.76.76,0,0,1-.75-.73.78.78,0,0,1,.68-.85l10.11-.89,8.6-1.92a.75.75,0,0,1,.89.61.79.79,0,0,1-.58.94l-8.64,1.93-.1,0-10.15.89H146"/><path id="path30" class="cls-10" d="M156.19,113.24l-.17,0-10.16-2.54a.79.79,0,0,1-.55-1,.74.74,0,0,1,.9-.58l10.15,2.54a.78.78,0,0,1,.56.95.76.76,0,0,1-.73.61"/><path id="path32" class="cls-10" d="M170,84.39a.44.44,0,0,1-.16,0L140.37,77.5a.79.79,0,0,1-.57-.94.75.75,0,0,1,.9-.6l29.42,6.87a.79.79,0,0,1,.58.94.77.77,0,0,1-.74.62"/><path id="path34" class="cls-10" d="M168.48,92.23a.73.73,0,0,1-.55-.25c-1.93-2.17-4.14-4.56-4.63-5-1-.27-9.19-1.71-14.64-2.65l-.79,2.22a.75.75,0,0,1-1,.46.8.8,0,0,1-.44-1l1-2.82a.75.75,0,0,1,.83-.5s3.79.64,7.55,1.31c7.73,1.36,8,1.49,8.13,1.58A60.52,60.52,0,0,1,169,90.9.83.83,0,0,1,169,92a.75.75,0,0,1-.52.21"/><path id="path36" class="cls-10" d="M154.58,85.44h-.05a.78.78,0,0,1-.7-.84L154.1,80a.76.76,0,0,1,.8-.74.78.78,0,0,1,.7.84l-.27,4.57a.78.78,0,0,1-.75.75"/><path id="path38" class="cls-10" d="M159.57,92.34a.73.73,0,0,1-.47-.18.82.82,0,0,1-.11-1.11l4.07-5.25a.72.72,0,0,1,1.05-.12.82.82,0,0,1,.11,1.12l-4.06,5.25a.75.75,0,0,1-.59.29"/><path id="path40" class="cls-10" d="M196.14,212.89a.52.52,0,0,1-.17,0c-.64-.15-15.86-3.82-20.8-6.2a.82.82,0,0,1-.37-1,.75.75,0,0,1,1-.39c4.8,2.32,20.35,6.06,20.51,6.1a.8.8,0,0,1,.57.95.77.77,0,0,1-.74.61"/><path id="path42" class="cls-11" d="M210.93,201.13a.74.74,0,0,1-.66-.4l-2.4-4.48-4.32.64h-.05c-.22,0-5.36.4-7.43.27s-9.71-2-10-2.13A35.36,35.36,0,0,1,179,192.6a17.34,17.34,0,0,1-4.88-4.85c-.23-.31-.45-.6-.67-.87a13.61,13.61,0,0,1-2.16-3.54c-.18-.79-1.43-31.76-2-46l-12,1.66c-.17,0-4.22.6-5.17.69s-12.29.86-16.3.87c-.64,0-1.4,0-2.25-.11a.79.79,0,0,1,.12-1.58c.81.07,1.52.11,2.13.11,3.87,0,15.13-.77,16.17-.86s5.06-.69,5.1-.69l12.85-1.77a.73.73,0,0,1,.58.18.84.84,0,0,1,.27.58c.49,12.47,1.8,45,2,46.58a12,12,0,0,0,1.84,2.87h0l.69.9a15.8,15.8,0,0,0,4.41,4.44,34.1,34.1,0,0,0,6.7,2.3c.09,0,7.83,2,9.79,2.09s6.8-.24,7.2-.27l4.8-.72a.76.76,0,0,1,.77.4l2.65,4.95a.81.81,0,0,1-.29,1.08.68.68,0,0,1-.36.1"/><path id="path44" class="cls-11" d="M157.13,139a.76.76,0,0,1-.75-.74c0-.68-.92-16.54-.94-17.53,0-.79-.09-7.48,0-8.35s2.86-17.67,3.35-20.68l-3.2-6.36a.82.82,0,0,1,.31-1.07.74.74,0,0,1,1,.33l3.32,6.6a.78.78,0,0,1,.07.5C159,99.76,157,112,156.94,112.53s0,7,0,8.14.93,17.31.94,17.48a.77.77,0,0,1-.71.83h0"/><path id="path46" class="cls-11" d="M185.75,221.17l-2.05-3.31c21.12-14.48,22.06-15,22.42-15.2.87-.49,4.12-2,5.47-2.67l1.54,3.61c-2.67,1.26-4.73,2.26-5.25,2.55s-3.91,2.54-22.13,15"/><path id="path48" class="cls-12" d="M163.37,94.6l-3-.46.28-2,3,.46-.27,2"/><path id="path50" class="cls-12" d="M155,110.9l-2.95-.64.38-1.94,2.95.64L155,110.9"/><path id="path52" class="cls-12" d="M199.21,206.69l-1.71-2.6L199,203l1.71,2.6-1.54,1.13"/><path id="path54" class="cls-12" d="M185.66,192.46l10.62,2.6,9.92-.75-.09-1.64-10,.67L186,190.73l-.38,1.73"/><path id="path56" class="cls-13" d="M147.86,140.47a1.51,1.51,0,1,1-1.51-1.59,1.55,1.55,0,0,1,1.51,1.59"/><path id="path58" class="cls-13" d="M151.8,137.7a1.51,1.51,0,1,1-1.5-1.58,1.54,1.54,0,0,1,1.5,1.58"/><path id="path60" class="cls-11" d="M121.24,139.35V176.4l2.63.06v3.93h12.79v-5l6,.13V141.19s-7.51-.15-10.74-.33-10.7-1.51-10.7-1.51"/><path id="path62" class="cls-13" d="M180.39,90l-24.84-6,.63-2.89,24.84,6-.63,2.9"/><path id="path66" class="cls-13" d="M188.67,220.31,167,235l-3.26-5.34L185.41,215l3.26,5.34"/><path id="path70" class="cls-14" d="M167.89,95h-2.53v2.17h2.53Zm-2.53,2.52v.34H165V94.68h3.32V97.9h-.4v-.34h-2.53"/><path id="path72" class="cls-14" d="M169.8,96.49h3.63v-.37H169.8Z"/><path id="path74" class="cls-14" d="M175.54,97.63a3,3,0,0,0,1.73-1,4.23,4.23,0,0,0,.77-2.06l.44.15s.11,0,.11.08-.07.07-.15.1A4,4,0,0,1,177,97.45a5.14,5.14,0,0,1-1.1.56l-.36-.38Zm-.22-2.76a6.55,6.55,0,0,1,.67.95l-.38.24a6.79,6.79,0,0,0-.63-1l.34-.24"/><path id="path76" class="cls-14" d="M181.05,95.54a6.13,6.13,0,0,0-.83-.86l.29-.28a5.94,5.94,0,0,1,.88.88l-.34.26Zm2.64.41a7.25,7.25,0,0,1-3.29,1.94s-.06.13-.09.13-.07-.06-.1-.12l-.17-.41a5.49,5.49,0,0,0,2-.72,5.14,5.14,0,0,0,1.51-1.18l.17.36"/><path id="path90" class="cls-14" d="M138,104.9v.36h-1a3.77,3.77,0,0,1-.28,1.54,1.74,1.74,0,0,1-1.07,1l-.35-.28a1.57,1.57,0,0,0,1.08-.87,3.46,3.46,0,0,0,.25-1.38h-1.11v1.22h-.38v-1.22H134v-.36h1.1v-1.05l.41.05s.09,0,.09,0,0,0-.12.1v.85h1.1c0-.43,0-.85,0-1.14l.38,0c.06,0,.14,0,.14.07s-.06.07-.11.11v.93h1"/><path id="path92" class="cls-14" d="M140.34,105.09a6.67,6.67,0,0,0-.82-.86l.29-.29a8,8,0,0,1,.87.88Zm2.65.41a7.47,7.47,0,0,1-3.3,1.94s-.06.13-.09.13-.06-.06-.09-.12l-.18-.42a5.23,5.23,0,0,0,2-.71,5.38,5.38,0,0,0,1.52-1.18l.17.36"/><path id="path94" class="cls-14" d="M147.38,104.35a.52.52,0,0,0,.18,0l.24.28c-.2.16-.22.21-.26.3a4.9,4.9,0,0,1-1.27,2.13,4.23,4.23,0,0,1-1,.74l-.37-.3a4.05,4.05,0,0,0,1.52-1.16,3.6,3.6,0,0,0,.76-1.63h-1.52a5.77,5.77,0,0,1-1,1.07l-.33-.24a3.83,3.83,0,0,0,.93-.93,2.8,2.8,0,0,0,.47-.87l.36.13c.1,0,.1.08.1.09s-.06.06-.16.07a3.59,3.59,0,0,1-.17.34h1.53"/><path id="path96" class="cls-14" d="M152.47,104.34c-.22.14-.23.15-.29.23a6.39,6.39,0,0,1-.7,1.22,6.74,6.74,0,0,1,1.36,1.44l-.34.29a3.79,3.79,0,0,0-.64-.86,4.73,4.73,0,0,0-.62-.56,4.64,4.64,0,0,1-1.83,1.31l-.3-.34a3.74,3.74,0,0,0,1.61-1,4.19,4.19,0,0,0,1.06-1.63h-2.09v-.35h2.23a.48.48,0,0,0,.24-.11l.31.33"/><path id="path128" class="cls-14" d="M178.72,81.49h-.44v.88h.44Zm-2.63,1.89a4.59,4.59,0,0,0-.12-.79l.35,0a2.31,2.31,0,0,1,.13.8Zm0-2h-.34v.35h.34Zm0-.83h-.34v.32h.34Zm0-.78h-.34v.32h.34Zm-.61,3.86a4.27,4.27,0,0,0,0-.51,2.89,2.89,0,0,0,0-.51l.35,0a6.29,6.29,0,0,1,.07,1Zm4.39.21c-.19.34-.47.38-1.1.38l-.34-.75a3.15,3.15,0,0,0,.44,0c.21,0,.31,0,.39-.15a3.43,3.43,0,0,0,.31-1.81c0-.43,0-.78-.05-1.15h-1.47a4.75,4.75,0,0,1-.19.46h1.43v2h-1v.54h-.61V81.33l-.46-.28v.37h-.51v.35h.82a11.16,11.16,0,0,1-.15,1.61c-.15.75-.42.85-1.08.86l-.27-.61h.5c.19-.05.23-.29.27-.56l-.22,0a1.77,1.77,0,0,0-.17-.56l.32-.08a2.24,2.24,0,0,1,.12.29c0-.27,0-.35,0-.46h-1.08v.18h-.64V79.28h2.3v.53h-.73v.32h.49v.46h-.49v.32h.45a3.6,3.6,0,0,0,.54-1.75l.61.06c.08,0,.16,0,.16.07s-.06.1-.11.17-.07.3-.08.32h1.9c0,1,0,1.27,0,1.59a7.5,7.5,0,0,1-.32,2.51Zm-4.53-1a5.6,5.6,0,0,1-.1,1.08l-.46,0a5,5,0,0,0,.16-1.26l.38,0c.06,0,.13,0,.13.08s0,.06-.11.09"/><path id="path130" class="cls-14" d="M185.35,82.59a3.62,3.62,0,0,1-.69,1,1.44,1.44,0,0,0,.32,0,.3.3,0,0,0,.32-.17,2.28,2.28,0,0,0,.2-.92Zm-.18-2.15h-1.28v.26h1.28Zm0-.68h-1.28V80h1.28Zm-1.86,1.39v-1.9h2.44v1.9Zm.74.72a2.26,2.26,0,0,1-.11.22h2.19a4.5,4.5,0,0,1-.33,1.83c-.18.28-.47.37-1,.37l-.24-.59a3.36,3.36,0,0,1-.74.63l-.45-.3a3.82,3.82,0,0,0,1.37-1.44h-.3a3.15,3.15,0,0,1-.59.79,6,6,0,0,1-.94.74l-.47-.33a3.78,3.78,0,0,0,1.43-1.2h-.28a4.54,4.54,0,0,1-.8.76l-.48-.32a3.17,3.17,0,0,0,.53-.4c-.41.16-1.07.38-1.25.43s-.25.06-.28.1-.09.09-.12.09,0,0,0,0l-.11-.67.67-.16V81h-.58v-.62h.58v-1.2l.7,0s.08,0,.08.07,0,.06-.07.09-.07,0-.07.09v.9H183V81h-.62v1.23a5.27,5.27,0,0,0,.6-.2v.5a2.16,2.16,0,0,0,.44-.64h-.57v-.49h3.35v.49h-2.16"/><path id="path132" class="cls-14" d="M191,81.74h-.9V82h.9Zm0-.76h-.9v.28h.9Zm-1.62.76h-.88V82h.88Zm0-.76h-.88v.28h.88Zm2.45,3.23a5.24,5.24,0,0,1-1.73-1.28v1.4h-.72V82.9a5.47,5.47,0,0,1-1.76,1.34l-.53-.49a4.1,4.1,0,0,0,1.82-1.23h-1.1v-2h1.57v-.32h-2.2v-.57h2.2v-.5l.73,0c.08,0,.09,0,.09.06a.13.13,0,0,1,0,0c-.06,0-.07,0-.07.08v.26h2.2v.57h-2.2v.32h1.59v2h-1.17a5.41,5.41,0,0,0,1.79,1.17l-.48.52"/><path id="path134" class="cls-14" d="M197.8,84.37a4.37,4.37,0,0,1-2.06-2.24,4.19,4.19,0,0,1-2.17,2.28l-.59-.53a3.35,3.35,0,0,0,2.25-2.63h-2.09V80.6h2.16a6.3,6.3,0,0,0,0-.66c0-.35,0-.61,0-.8l.8,0c.05,0,.11,0,.11.07s-.06.1-.12.15a2.39,2.39,0,0,0,0,.35c0,.06,0,.57,0,.85h2.26v.65h-2.2a3.66,3.66,0,0,0,2.31,2.54l-.63.58"/><path id="path136" class="cls-14" d="M204.14,80.9a.29.29,0,0,0-.08.11v2.6c0,.59-.27.66-1,.67l-.32-.68a2.1,2.1,0,0,0,.36,0c.21,0,.27,0,.27-.21v-2.7l.75.06a.07.07,0,0,1,.07,0,.12.12,0,0,1,0,.07Zm-1.26.09c-.09.06-.1.07-.1.09v2.17h-.65V80.82l.72,0s.08,0,.08.06,0,.06-.05.07ZM201,82.22h-.89v.33H201Zm0-.86h-.89v.33H201Zm-.31,3-.25-.69a2.52,2.52,0,0,0,.39,0c.12,0,.17,0,.17-.15v-.44h-.89V84.3h-.64V80.83h2.18v2.83C201.68,84.24,201.24,84.32,200.72,84.32Zm-1.55-3.87V79.9h1.28a4.11,4.11,0,0,0-.37-.49l.66-.29a7.48,7.48,0,0,1,.49.67l-.22.11h1.18a3.77,3.77,0,0,0,.41-.75l.77.22a.08.08,0,0,1,0,.06s0,0,0,.06l-.11,0s-.2.32-.24.38h1.37v.55h-5.21"/><path id="path138" class="cls-14" d="M209.62,79.91h-1.11v1.27h1.11Zm.29,4.29a4.3,4.3,0,0,1-1.21-2.43h-.19a5.78,5.78,0,0,1-.63,2.54l-.59-.31a4.51,4.51,0,0,0,.6-2.49V79.32h2.39v2.45h-1a4,4,0,0,0,1.15,2l-.5.4Zm-3.63-.94a4.51,4.51,0,0,0-.05-.65l.25,0a4.44,4.44,0,0,1,.08.65l-.28.05Zm0-1.75H206v.33h.37Zm0-.82H206V81h.37Zm0-.81H206v.31h.37Zm-.22,3.62h-.3a2.91,2.91,0,0,0,0-.5c0-.17,0-.27,0-.37h.28a2.12,2.12,0,0,1,0,.42,2.56,2.56,0,0,1,0,.45Zm.82-3.62v.31h.48v.5h-.48V81h.48v.5h-.48v.33h.66c0,1.53-.37,2-.55,2.2a1.36,1.36,0,0,1-.79.26l-.23-.52c.65,0,.79-.14.91-.68l-.2.05c0-.23-.07-.38-.11-.58l.24-.08a1.86,1.86,0,0,1,.12.38c0-.17,0-.33,0-.49H206v.15h-.61V79.34h2.27v.54Zm-1.27,3a5.72,5.72,0,0,1-.09.91l-.38,0a5.42,5.42,0,0,0,.11-1.08l.36,0c.09,0,.12,0,.12.08s0,.06-.12.09"/><path id="path140" class="cls-14" d="M185.85,231.33l-.36-.68h.29a.21.21,0,0,0,.22-.23v-1.28l-.59.22v1.81h-.7v-1.56l-.45.17v1.72c0,.25.09.34.29.34H186c.17,0,.25-.07.27-.57A1.51,1.51,0,0,1,185.85,231.33Zm.42,1.16h-2a.62.62,0,0,1-.68-.65V230l-.53.2-.26-.61.79-.3v-1.68l.74.08s.12,0,.12.06-.08.11-.16.15v1.14l.45-.17v-1.54l.72.07s.13,0,.13.06-.08.1-.15.16v1l.94-.34.35.18v2.13a.64.64,0,0,1-.2.5.82.82,0,0,1-.25.15l.71.34c0,.59-.34.88-.69.88Zm-3.61-4a3.6,3.6,0,0,0-.87-.56l.42-.53a3.18,3.18,0,0,1,.84.59Zm-.41,3.61c-.12.21-.15.25-.15.33s0,.11,0,.13,0,0-.05,0a.69.69,0,0,1-.2-.11l-.5-.42a7.12,7.12,0,0,0,1-1.76l.57.39a14.35,14.35,0,0,1-.68,1.4Zm.15-2.26a3.53,3.53,0,0,0-1-.46l.3-.61a6.55,6.55,0,0,1,1,.48l-.3.59"/><path id="path142" class="cls-14" d="M191.75,228.05h-3v.52h3Zm.59,4.45h-.67c-.24,0-.43-.12-.43-.34v-1.75h-.65a2.45,2.45,0,0,1-1.57,2.18l-.5-.59a1.78,1.78,0,0,0,1.39-1.59H189v-.66H190c0-.18,0-.53,0-.63h-1.18a5.84,5.84,0,0,1-.73,3.45l-.66-.32a4.49,4.49,0,0,0,.71-2.95c0-.81,0-1.42-.08-1.81h4.44v1.63h-1.8c0,.1,0,.39,0,.63h1.29v1.93c0,.1.07.15.2.15s.24-.08.22-.44l.6.23c-.09.51-.15.88-.59.88"/><path id="path144" class="cls-14" d="M198.31,232.63a4.37,4.37,0,0,1-2.06-2.24,4.24,4.24,0,0,1-2.18,2.28l-.59-.53a3.33,3.33,0,0,0,2.25-2.63h-2.09v-.65h2.17c0-.26,0-.57,0-.66,0-.35,0-.61,0-.8l.8,0s.1,0,.1.07-.06.1-.11.15a1.21,1.21,0,0,0,0,.35c0,.06,0,.57,0,.85h2.27v.65h-2.21a3.7,3.7,0,0,0,2.31,2.54l-.62.58"/><path id="path146" class="cls-14" d="M203.45,231.57h-.55v.26h.55Zm.18-2h-1V230h1Zm-.4-.78h-.32l-.27.36h.89Zm.74,3.78-.17-.46h-.9v.14h-.42v-1h1.35v.87c.31,0,.34,0,.34-.16v-1h-2v1.54h-.59v-2h3.21v1.63C204.74,232.59,204.24,232.6,204,232.61Zm.61-2.63a3.07,3.07,0,0,1-.43-.26v.64h-2v-.69a4.29,4.29,0,0,1-.45.33l-.42-.42a2.38,2.38,0,0,0,.94-.75h-.77V229H201v.44a3.14,3.14,0,0,0,.65.86l-.37.42a2.61,2.61,0,0,1-.28-.35v2.23h-.62v-2a2.54,2.54,0,0,1-.37.64l-.51-.35a3.4,3.4,0,0,0,.81-1.89h-.59v-.58h.66v-1l.56,0c.16,0,.16,0,.16.06s0,0-.05.07l0,0v.76h.5v-.06h1.08a1.67,1.67,0,0,0,.07-.24c-.24,0-.39,0-.73,0l-.25-.48a8.39,8.39,0,0,0,2.49-.25l.29.37s.07.08.07.13,0,0,0,0l-.18,0-.39.08c-.24,0-.46.06-.57.07a1.78,1.78,0,0,1-.12.29h1.69v.49h-.94a2.88,2.88,0,0,0,1,.7l-.35.45"/><path id="path148" class="cls-14" d="M210.13,228.17H209v1.27h1.12Zm.28,4.29A4.33,4.33,0,0,1,209.2,230H209a5.65,5.65,0,0,1-.63,2.55l-.59-.31a4.51,4.51,0,0,0,.6-2.49v-2.19h2.39V230h-1a4,4,0,0,0,1.15,2Zm-3.63-.94a4.51,4.51,0,0,0-.05-.65l.25-.05a4.28,4.28,0,0,1,.08.65Zm0-1.75h-.37v.33h.37Zm0-.82h-.37v.31h.37Zm0-.81h-.37v.31h.37Zm-.21,3.61h-.31a2.46,2.46,0,0,0,0-.49c0-.17,0-.27,0-.37h.29a3.87,3.87,0,0,1,0,.42,4.33,4.33,0,0,1,0,.44Zm.81-3.61v.31h.48v.5h-.48v.31h.48v.51h-.48v.33h.66c0,1.53-.36,2-.55,2.2a1.32,1.32,0,0,1-.78.26l-.23-.52c.64,0,.78-.14.9-.68l-.2,0a4.44,4.44,0,0,0-.11-.57l.24-.08a1.12,1.12,0,0,1,.12.38c0-.17,0-.33.05-.49h-1.07v.15h-.61V227.6h2.27v.54Zm-1.27,3a7.14,7.14,0,0,1-.08.91l-.39,0a5.42,5.42,0,0,0,.11-1.08l.37,0c.09,0,.12,0,.12.08s0,.06-.13.09"/><path id="path150" class="cls-14" d="M128.68,131.3h-.81v1h.81Zm-.81,1.4v.3h-.39V131h1.59v1.75Zm1.92.46c-.12.67-.28.94-.9.94l-.42,0-.08-.47a2.12,2.12,0,0,0,.47.07c.41,0,.5-.25.56-.86s.08-1.76.08-2,0-.49,0-.68h-1.67a5.5,5.5,0,0,1-.6,1.09l-.38-.27a4.88,4.88,0,0,0,.94-2.15l.47.13s.11,0,.11.09,0,.06-.2.09c0,.11-.15.49-.2.65h1.94c0,.22,0,.42,0,.79a22.82,22.82,0,0,1-.11,2.65Zm-3.93.05c0-.16-.06-.21-.2-.63l.21-.1a2.05,2.05,0,0,1,.26.63Zm-.49.34a3,3,0,0,0-.09-.85l.25-.09a2.92,2.92,0,0,1,.19.81Zm.49-2.33h-.58v.58h.58Zm0-.92h-.58v.58h.58Zm0-.91h-.58V130h.58Zm.39,0V130h.55v.35h-.55v.58h.55v.34h-.55v.58h.69a9.76,9.76,0,0,1-.14,1.77c-.11.62-.45.62-.61.62l-.36,0-.11-.44a2.26,2.26,0,0,0,.38,0c.18,0,.36-.05.42-.87l-.28.08a2.88,2.88,0,0,0-.18-.58l.22-.1a3.76,3.76,0,0,1,.25.52c0-.46,0-.5,0-.67h-1.27v.23h-.39V129H127v.35Zm-1.17,4.47-.42,0a6.05,6.05,0,0,0,.2-1.14l.3.08a5.73,5.73,0,0,1-.08,1.1"/><path id="path152" class="cls-14" d="M135.13,130.05h-1.66v.42h1.66Zm0-.74h-1.66v.4h1.66Zm-2.07,1.54V129h2.48v1.9Zm1,.72a4.3,4.3,0,0,1-.26.39H136a7.46,7.46,0,0,1-.23,1.86c-.15.3-.43.3-.68.3h-.32l-.12-.5a2,2,0,0,0,.48.08c.1,0,.26,0,.32-.29a6,6,0,0,0,.11-1.07h-.29a3.45,3.45,0,0,1-1.32,1.88l-.44-.22a2.89,2.89,0,0,0,1.33-1.66h-.39a2.68,2.68,0,0,1-.64.92,3.74,3.74,0,0,1-1.12.76l-.35-.3a2.91,2.91,0,0,0,1.67-1.38h-.46a7.89,7.89,0,0,1-1,.91l-.39-.27a4.08,4.08,0,0,0,1.51-1.41h-1.13v-.35h3.64v.35Zm-2.16-.93v1.57c.39-.15.51-.19.68-.27v.44c-.53.22-1.06.44-1.61.62,0,.08,0,.14-.1.14s-.08-.08-.1-.15l-.11-.42a2.74,2.74,0,0,0,.8-.21v-1.72h-.72v-.39h.72v-1.37l.43.05s.14,0,.14.08,0,.06-.13.12v1.12h.7v.39h-.7"/><path id="path154" class="cls-14" d="M141.9,129.59a5.06,5.06,0,0,0-.6-.54l.28-.28a7.23,7.23,0,0,1,.59.54Zm-.65.42a4,4,0,0,0-.6-.53l.29-.28a6,6,0,0,1,.58.53Zm-.91-.18a7.91,7.91,0,0,1,1,1.58,7.3,7.3,0,0,1,.55,1.45l-.5.25a9.18,9.18,0,0,0-.7-1.87,5.48,5.48,0,0,0-.78-1.15l.42-.26Zm-3.48,3.25a4.57,4.57,0,0,0,.93-1.57,7.33,7.33,0,0,0,.42-1.76l.52.15s.14,0,.14.11-.1.09-.2.12a8.12,8.12,0,0,1-.78,2.37,4.4,4.4,0,0,1-.56.86l-.47-.28"/><path id="path156" class="cls-14" d="M147.24,129.81c-.27.17-.28.19-.35.28a8.91,8.91,0,0,1-.84,1.46,8.51,8.51,0,0,1,1.63,1.73l-.41.34a5,5,0,0,0-.77-1,6.16,6.16,0,0,0-.74-.66,5.7,5.7,0,0,1-2.2,1.57l-.36-.41a4.55,4.55,0,0,0,1.94-1.17,5.13,5.13,0,0,0,1.27-1.95h-2.52v-.43h2.69a.55.55,0,0,0,.28-.12l.38.39"/><path id="path158" class="cls-14" d="M153.24,130.42h-2v.43h2Zm-.72,2.31v1.07c0,.4-.39.4-.9.39l-.17-.46a1.85,1.85,0,0,0,.34,0c.22,0,.31,0,.31-.22v-.82H151v-.36h2.45v.36Zm-1.65-1.54v-1.1h2.78v1.1Zm-.46-1.47v-.36H152v-.62l.48,0c.11,0,.13,0,.13.06s0,.05-.16.13v.41h1.62v.36Zm3.26,2.92v-.74h-2.93v.8h-.42v-1.15h3.78v1.09Zm-3.39-3.56a7.76,7.76,0,0,1-.46.9c.05,0,.12.05.12.11s0,0-.08.12v4h-.42v-3.59a5.48,5.48,0,0,1-.55.72l-.36-.28a7,7,0,0,0,1.44-2.36l.41.2s.09,0,.09.1,0,.06-.19.09"/><path id="path160" class="cls-14" d="M214.6,80.72a1.78,1.78,0,0,0-.36.48,2.86,2.86,0,0,0-.34,1.3,2.89,2.89,0,0,0,.34,1.3,2.15,2.15,0,0,0,.36.48l-.16.15a2.19,2.19,0,0,1-.38-.51,2.84,2.84,0,0,1,0-2.84,2.19,2.19,0,0,1,.38-.51l.16.14"/><path id="path162" class="cls-14" d="M215.17,84h.37V81.09h-.37Z"/><path id="path164" class="cls-14" d="M218.23,84l-1.65-2.4V84h-.36V81.09h.36l1.65,2.4v-2.4h.36V84h-.36"/><path id="path166" class="cls-14" d="M220.19,81.31c-.57,0-.73.59-.73,1.25s.17,1.24.73,1.24.74-.56.74-1.24S220.76,81.31,220.19,81.31Zm0,2.8c-.9,0-1.11-.81-1.11-1.55s.21-1.55,1.11-1.55,1.11.82,1.11,1.55-.21,1.55-1.11,1.55"/><path id="path168" class="cls-14" d="M222.72,84.11a1.08,1.08,0,0,1-.92-.4,1.06,1.06,0,0,1-.18-.59H222a.67.67,0,0,0,.75.68c.5,0,.75-.28.75-.64s-.36-.56-.67-.56h-.31v-.27h.26c.23,0,.63-.12.63-.51,0-.22-.13-.51-.62-.51a.66.66,0,0,0-.52.2.69.69,0,0,0-.15.41h-.36a.93.93,0,0,1,1-.91c.59,0,1,.32,1,.77a.65.65,0,0,1-.51.66.71.71,0,0,1,.6.73,1,1,0,0,1-1.12.94"/><path id="path170" class="cls-14" d="M224.23,84.28a2.51,2.51,0,0,0,.36-.48,2.89,2.89,0,0,0,.34-1.3,2.86,2.86,0,0,0-.34-1.3,2,2,0,0,0-.36-.48l.16-.15a2.19,2.19,0,0,1,.38.51,2.84,2.84,0,0,1,0,2.84,2.19,2.19,0,0,1-.38.51l-.16-.15"/><path id="path172" class="cls-14" d="M150.16,86.69h-.47v.68h.47Zm.29,1.68c0,.16,0,.16.14.16h.17c.14,0,.15,0,.21-.31l.25.1c-.08.44-.18.49-.39.49h-.35c-.27,0-.32-.06-.32-.32v-.84h-.47c0,.78-.12,1.07-.74,1.33l-.23-.23c.53-.19.68-.35.68-1.1h-.72v1.63h2.65V87.65h-.88v.72Zm-1.77,1.44h-.3V87.37h1v-.68h-1.15V86.4h3.51v.29h-1.31v.68h1.18V89.8h-.3v-.23h-2.65v.24"/><path id="path174" class="cls-14" d="M155.23,86.92h-2.42V89h2.42Zm0,2.66v-.27h-2.42v.31h-.31v-3h3.05v2.94h-.32"/><path id="path190" class="cls-14" d="M215.1,229a2.3,2.3,0,0,0-.36.49,2.86,2.86,0,0,0-.34,1.3,2.89,2.89,0,0,0,.34,1.3,2.51,2.51,0,0,0,.36.48l-.16.15a2.42,2.42,0,0,1-.38-.51,3,3,0,0,1-.38-1.42,3,3,0,0,1,.38-1.42,2,2,0,0,1,.38-.51l.16.14"/><path id="path192" class="cls-14" d="M216.93,229.66H216V232h.89a.79.79,0,0,0,.56-.23,1.47,1.47,0,0,0,.27-.93c0-.48-.15-1.16-.83-1.16Zm.77,2.38a1.24,1.24,0,0,1-.76.24h-1.26v-2.93h1.26c.81,0,1.2.6,1.2,1.48a1.61,1.61,0,0,1-.44,1.21"/><path id="path194" class="cls-14" d="M219.84,229.66v2.62h-.37v-2.62h-1v-.31h2.31v.31h-1"/><path id="path196" class="cls-14" d="M222.19,229.57c-.58,0-.73.59-.73,1.25s.17,1.24.73,1.24.73-.56.73-1.24S222.76,229.57,222.19,229.57Zm0,2.8c-.9,0-1.11-.81-1.11-1.55s.21-1.55,1.11-1.55,1.11.82,1.11,1.55-.21,1.55-1.11,1.55"/><path id="path198" class="cls-14" d="M223.56,232.28c.06-.69.49-1,1.23-1.41.43-.24.63-.35.63-.72a.57.57,0,0,0-.65-.58.69.69,0,0,0-.73.74h-.38a1.09,1.09,0,0,1,.26-.71,1.19,1.19,0,0,1,.84-.33.9.9,0,0,1,1,.86c0,.51-.3.74-.84,1-.74.4-.84.65-.92.83h1.76v.3h-2.22"/><path id="path200" class="cls-14" d="M226.22,232.54a1.89,1.89,0,0,0,.36-.48,2.77,2.77,0,0,0,.34-1.3,2.74,2.74,0,0,0-.34-1.3,1.78,1.78,0,0,0-.36-.49l.17-.14a2.26,2.26,0,0,1,.38.51,3,3,0,0,1,.37,1.42,3,3,0,0,1-.37,1.42,2.82,2.82,0,0,1-.38.51l-.17-.15"/><path id="path202" class="cls-14" d="M183.44,211.93l-.09,0a6.81,6.81,0,0,1-1.08.66v1.29c0,.14,0,.19.21.19h.33c.26,0,.3-.08.35-.48l.27.16c-.09.55-.27.59-.55.59h-.52c-.26,0-.38,0-.38-.34v-3.06l.3,0s.08,0,.08,0,0,0-.09.07v1.19a4.67,4.67,0,0,0,.93-.63l.23.21s0,0,0,.07,0,0,0,0Zm-2.1-.86v3.38h-.29v-1.09a8.13,8.13,0,0,1-.9.42c0,.05,0,.1-.07.1s0,0-.05-.08l-.11-.32a6.32,6.32,0,0,0,1.13-.44v-.95H180v-.28h1.1v-.9l.27,0c.05,0,.1,0,.1,0s0,0-.08.09"/><path id="path204" class="cls-14" d="M186.9,211.56h-2.42v2.1h2.42Zm0,2.66V214h-2.42v.31h-.32v-3h3.05v2.95h-.31"/><path id="path206" class="cls-14" d="M165.49,201.42s.14-.11.17-.13l.34.34a.61.61,0,0,0-.16.14,5.4,5.4,0,0,1-.86,1.29l-.33-.18a4.23,4.23,0,0,0,.77-1.11l-1.59.15v1.28c0,.42.17.47.73.47a6.29,6.29,0,0,0,1.24-.1V204c-.35,0-.92.07-1.43.07-.79,0-.93-.27-.93-.61V202l-1.19.12,0-.35,1.22-.11v-1.27l.37,0s.14,0,.14.07,0,0-.13.11v1l1.66-.16"/><path id="path208" class="cls-14" d="M171.18,200.44a3.24,3.24,0,0,0-.37-.48l.25-.19a4,4,0,0,1,.38.47Zm-.72.15a3.88,3.88,0,0,0-.36-.48l.24-.18a4.33,4.33,0,0,1,.38.47Zm-2.94.56v-.35h2.75a.87.87,0,0,0,.22-.11l.38.33a.75.75,0,0,0-.15.16.14.14,0,0,0,0,.06,4,4,0,0,1-1.35,2.37,4.07,4.07,0,0,1-1.1.65l-.35-.36a3.39,3.39,0,0,0,1.48-.84,3.27,3.27,0,0,0,.9-1.91h-2.76"/><path id="path210" class="cls-14" d="M173.51,201.58a6.06,6.06,0,0,0-.83-.85l.3-.29a7.2,7.2,0,0,1,.87.88l-.34.26Zm2.65.42a7.57,7.57,0,0,1-3.3,1.94s-.06.13-.09.13-.06-.06-.09-.13l-.18-.41a5.3,5.3,0,0,0,2-.72,5.38,5.38,0,0,0,1.52-1.18l.17.37"/><path id="path212" class="cls-14" d="M179.06,204.25V201.8a7.33,7.33,0,0,1-1.39.8l-.37-.33a4.73,4.73,0,0,0,1.66-.86,7.64,7.64,0,0,0,1.3-1.22l.34.29a.12.12,0,0,1,.06.09s0,0-.06,0h-.12a10.94,10.94,0,0,1-1,.9v2.75h-.4"/><path id="path214" class="cls-14" d="M182.86,200.56l.42.05c.07,0,.11,0,.11.06s0,0-.13.11v2.76a4.06,4.06,0,0,0,1.57-.75,5.24,5.24,0,0,0,1.18-1.08l.17.41a6,6,0,0,1-1.18,1,6.71,6.71,0,0,1-1.87.89l-.27-.23v-3.25"/><path id="path216" class="cls-14" d="M191.28,200.44a2.7,2.7,0,0,0-.36-.48l.25-.19a4.79,4.79,0,0,1,.37.47Zm-.72.15a3.88,3.88,0,0,0-.36-.48l.24-.18a4.42,4.42,0,0,1,.39.47Zm-2.94.56v-.35h2.75a.87.87,0,0,0,.22-.11l.38.33-.15.16s0,0,0,.06a4,4,0,0,1-1.34,2.37,4.15,4.15,0,0,1-1.11.65l-.35-.36a3.16,3.16,0,0,0,2.38-2.75h-2.76"/><path id="path218" class="cls-14" d="M193.62,201.58a7.41,7.41,0,0,0-.83-.85l.29-.29a6.54,6.54,0,0,1,.87.88Zm2.64.42a7.5,7.5,0,0,1-3.3,1.94s-.06.13-.09.13-.06-.06-.09-.13l-.17-.41a6.44,6.44,0,0,0,3.48-1.9l.17.37"/><path id="path220" class="cls-14" d="M186.39,182.11h-1v.4h1Zm0-.69h-1v.39h1Zm-1.4.69h-1v.4h1Zm0-.69h-1v.39h1Zm2.14,2.89a3.77,3.77,0,0,1-1.77-1.28v1.39H185V183a4.41,4.41,0,0,1-1.76,1.28L183,184a3.9,3.9,0,0,0,1.73-1.22h-1.11v-1.69H185v-.42h-2v-.33h2v-.54l.36,0s.1,0,.1,0,0,.05-.09.08v.38h2v.33h-2v.42h1.39v1.69h-1.19a3.81,3.81,0,0,0,1.8,1.2l-.23.3"/><path id="path222" class="cls-14" d="M191.69,184l-.33,0-.12-.38a2.63,2.63,0,0,0,.48.07.38.38,0,0,0,.4-.43,2.67,2.67,0,0,0-.75-1.42c.32-.69.44-1,.59-1.4h-.9v4h-.35v-4.33h1.59l.14.23c-.26.59-.42.93-.7,1.45a2.5,2.5,0,0,1,.74,1.48.68.68,0,0,1-.79.75Zm-2.37-1.11a2.83,2.83,0,0,1-.41,1,4.68,4.68,0,0,1-.5.6l-.36-.24a2.15,2.15,0,0,0,.9-1.39h-1v-.34h1c0-.22,0-.34,0-.68h-.87v-.34H189v-.63h-1v-.34h1v-.71l.36,0s.13,0,.13.06-.07.08-.13.11v.5h1v.34h-1v.63h.82v.34h-.82c0,.39,0,.55,0,.68h1v.34h-1.06"/><path id="path224" class="cls-14" d="M197.13,184.32a3.59,3.59,0,0,1-1.27-1,3.54,3.54,0,0,1-.62-1.26,3.39,3.39,0,0,1-1.84,2.3l-.34-.31a3,3,0,0,0,1.91-2.42h-1.91v-.35H195c0-.18,0-.31,0-.68s0-.44,0-.69l.4,0s.13,0,.13.06,0,.05-.12.12c0,.47,0,.54,0,1.16h2v.35h-2a3.71,3.71,0,0,0,.61,1.4,3.3,3.3,0,0,0,1.34,1l-.3.33"/><path id="path226" class="cls-14" d="M201.77,180.2a4.13,4.13,0,0,1-.51.57l-.27-.22a2.65,2.65,0,0,0,.61-.76l.3.28s0,.05,0,.07-.08.06-.17.06Zm-1.55.49a3,3,0,0,0-.54-.72l.3-.18a2.88,2.88,0,0,1,.55.7l-.31.2Zm-1.12.09a3.37,3.37,0,0,0-.55-.58l.26-.23a2.88,2.88,0,0,1,.56.59Zm3,1.13v-.73h-3.59v.75h-.37v-1.07h4.32v1Zm-1.62,1.17v.77c0,.4-.11.54-.76.54l-.18-.4h.31c.13,0,.24,0,.24-.17v-.75h-2v-.33h2v-.45l.31,0a6.79,6.79,0,0,0,.56-.41H199v-.31h2.53l.12.22c-.54.4-1,.69-1.18.81v.11h2.08v.33h-2.08"/><path id="path228" class="cls-14" d="M203.59,184.09v.25h-.36V180h4.17v.36h-2.59l.28.14s0,0,0,0,0,.06-.18.09a1.54,1.54,0,0,0-.1.19h2.06v.33H205.7a4.8,4.8,0,0,1-.07.71h1.51v.33h-1.38a2.5,2.5,0,0,0,1.37,1.13l-.21.31a2.86,2.86,0,0,1-1.42-1.22,2.5,2.5,0,0,1-1.17,1.22l-.28-.28a1.87,1.87,0,0,0,1.14-1.16h-1.34v-.33h1.42a3.51,3.51,0,0,0,.08-.71h-.71a4,4,0,0,1-.37.47l-.29-.21a3,3,0,0,0,.69-1.06h-1.08v3.36h3.85v.35h-3.85"/><path id="path230" class="cls-14" d="M211.53,183.43a4.57,4.57,0,0,1,.94.55l-.19.28a3.85,3.85,0,0,0-.93-.59Zm-.28-2.07a1.16,1.16,0,0,0,.37.32,1.42,1.42,0,0,0,.33-.32Zm-.49,0a2.89,2.89,0,0,1-.51.64h1.29a2.25,2.25,0,0,1-.68-.64Zm.87,1.46h-1.56v.28h1.56Zm0-.54h-1.56v.28h1.56Zm-2-.92a5.42,5.42,0,0,1,.46.36,2.11,2.11,0,0,0,.31-.36Zm-.51,2.65a2.92,2.92,0,0,0,1-.6l.22.21s0,0,0,.07-.06,0-.07,0h-.09a4.91,4.91,0,0,1-.88.58Zm1.94,0a.33.33,0,0,1-.39.36h-.27l-.1-.36.28,0c.07,0,.13,0,.13-.14v-.54h-1v-1a3.34,3.34,0,0,1-.46.2l-.18-.27a2.57,2.57,0,0,0,.71-.34,2.14,2.14,0,0,0-.43-.36l.17-.21h-.3v-.31h1.29c0-.12.09-.31.11-.4l.38.08c.07,0,.09.05.09.06s0,0-.15.08a.75.75,0,0,1-.07.18h1.49v.31H212l.16.18s.05.05.05.08-.07,0-.13,0l-.24.21a3.12,3.12,0,0,0,.72.23l-.21.29-.42-.16v1.16h-.91V184Zm-2.54-2.35a3.21,3.21,0,0,0-.51-.53l.23-.25a2.78,2.78,0,0,1,.47.47s0-1,0-1.1h1.64v-.39l.39,0s.09,0,.09,0,0,.05-.1.09v.23h1.81v.33H209c0,.12,0,1,0,1a5.55,5.55,0,0,1-.44,2.66l-.37-.12a3.66,3.66,0,0,0,.44-1.62,2.92,2.92,0,0,1-.41.31c0,.1,0,.16-.07.16s-.06,0-.09-.07l-.21-.31a3.44,3.44,0,0,0,.81-.51c0-.2,0-.25,0-.58l-.19.16"/><path id="path232" class="cls-14" d="M216.75,181.32s.14-.11.17-.14l.34.35c-.1.08-.13.1-.15.14a5.25,5.25,0,0,1-.87,1.28l-.32-.18a4.23,4.23,0,0,0,.76-1.1l-1.59.14v1.29c0,.42.17.47.73.47a5.76,5.76,0,0,0,1.25-.11v.4c-.36,0-.92.06-1.44.06-.78,0-.93-.26-.93-.6v-1.47l-1.19.12,0-.34,1.22-.11v-1.27l.37,0s.14,0,.14.07,0,0-.13.11v1l1.66-.16"/><path id="path234" class="cls-14" d="M219.75,181.48a6.75,6.75,0,0,0-.83-.86l.29-.28a5.94,5.94,0,0,1,.88.88Zm2.64.41a7.25,7.25,0,0,1-3.29,1.94s-.06.13-.09.13-.07-.06-.1-.12l-.17-.42a5.23,5.23,0,0,0,2-.71,5.29,5.29,0,0,0,1.51-1.18l.17.36"/><path id="path236" class="cls-14" d="M227.05,181.18a.67.67,0,0,0-.13.14,6.4,6.4,0,0,1-.66,1.28,3.81,3.81,0,0,1,.5.4l-.26.3a4,4,0,0,0-.46-.4,3.49,3.49,0,0,1-.8.77,3.21,3.21,0,0,1-1.09.51l-.26-.35a3.29,3.29,0,0,0,1-.41,3.82,3.82,0,0,0,.84-.74,6.29,6.29,0,0,0-.88-.47l.24-.3a7.58,7.58,0,0,1,.86.47,5.13,5.13,0,0,0,.56-1.16H225a4.67,4.67,0,0,1-1,1.08l-.34-.26a3.58,3.58,0,0,0,1-1,3.75,3.75,0,0,0,.52-.92l.39.17c.06,0,.08.06.08.08s-.13.08-.17.08a4.6,4.6,0,0,1-.26.47h1.23a2,2,0,0,0,.33-.05l.23.33"/><path id="path238" class="cls-14" d="M228.6,182.43h3.63v-.37H228.6Z"/><path id="path240" class="cls-14" d="M187.08,189.85a3.61,3.61,0,0,1-1.27-1,3.38,3.38,0,0,1-.62-1.26,3.39,3.39,0,0,1-1.84,2.3l-.34-.31a3,3,0,0,0,1.91-2.42H183v-.36h2c0-.17,0-.3,0-.67s0-.44,0-.69l.39,0s.13,0,.13.06,0,.05-.11.12c0,.47,0,.54,0,1.15h2v.36h-1.95a3.71,3.71,0,0,0,.61,1.4,3.3,3.3,0,0,0,1.34,1l-.3.33"/><path id="path242" class="cls-14" d="M191.23,188.78h-.61v.37h.61Zm0-1.66h-.66v.33h.66Zm-.12-.65h-.48c-.14.23-.2.3-.26.39h1a3.22,3.22,0,0,1-.3-.39Zm-.46,2.93v.19h-.35v-1.05h1.28v.86Zm1.41.5-.38,0-.16-.36h.2c.25,0,.25,0,.25-.19v-1.17h-2v1.71h-.35v-2h2.72v1.58c0,.17,0,.39-.26.4Zm.28-2.33a3.51,3.51,0,0,1-.78-.56v.68h-1.32V187a3.24,3.24,0,0,1-.68.62l-.26-.27a2.47,2.47,0,0,0,.95-.88h-.77v-.3h.94a1.71,1.71,0,0,0,.13-.33h-.81l-.18-.3.54,0a6.52,6.52,0,0,0,1.7-.19l.22.17a.12.12,0,0,1,0,.09.06.06,0,0,1-.06.05l-.1,0c-.33.05-.66.11-1,.13a2.07,2.07,0,0,1-.13.37h1.58v.3h-.88a3,3,0,0,0,1.17.85l-.32.25Zm-3.07.44a3.19,3.19,0,0,1-.34-.59v2.52h-.35v-2.11a3.72,3.72,0,0,1-.44.87l-.31-.15a3.94,3.94,0,0,0,.68-1.76H188v-.34h.58v-1.07l.37,0c.06,0,.08,0,.08,0s0,0-.1.11v.89h.46v.34h-.47a2.78,2.78,0,0,0,.6,1l-.25.22"/><path id="path244" class="cls-14" d="M194.58,188.85a1.71,1.71,0,0,0,.91-1.06h-.91Zm0,1.07h-.35v-2.44h1.32a3.24,3.24,0,0,0,0-.52h-1.3v-.31h3V187h-1.31c0,.39,0,.41,0,.52h1.41v1.87c0,.36-.06.53-.5.53h-.38l-.11-.38.43,0c.12,0,.21,0,.21-.19v-1.56h-1a1.92,1.92,0,0,0,1,.94l-.24.29a2.44,2.44,0,0,1-.61-.46,2.7,2.7,0,0,1-.38-.51,1.91,1.91,0,0,1-.89,1l-.24-.23v1.06Zm.61-4.53.37,0c.07,0,.12,0,.12.06s-.07.08-.11.1v.3h1.87v.34h-3.5c0,.2,0,.42,0,.73a6.49,6.49,0,0,1-.51,3l-.31-.18a3.87,3.87,0,0,0,.44-1.51c-.2.16-.27.21-.48.36,0,.07,0,.16-.09.16s-.06,0-.08-.09l-.17-.29c.17-.1.59-.35.84-.54,0-.4,0-.47,0-.61l-.15.17c-.08-.06-.41-.32-.62-.45l.19-.28a2.59,2.59,0,0,1,.58.39c0-.54,0-.8,0-1.15h1.62v-.49"/><path id="path246" class="cls-14" d="M201.78,186.86v.33h-1.67v-.33Zm-1.93.3h-.35v-1.23h1.21v-.52l.37,0c.08,0,.09,0,.09,0s-.06.07-.1.09v.36h1.32v1.17H202v-.87h-2.19v.93Zm1.58,2.09c0,.24.15.24.24.24h.3c.27,0,.3-.05.37-.49l.33.2c-.11.55-.26.62-.55.62h-.59c-.36,0-.46-.15-.46-.43V188.1h-.39a1.73,1.73,0,0,1-1.31,1.82l-.24-.34a1.33,1.33,0,0,0,1.2-1.48h-.74v-.33h2.71v.33h-.87v1.15Zm-1.88-3.53c-.17.49-.32.86-.58,1.52a2.7,2.7,0,0,1,.68,1.54c0,.54-.3.62-.88.61l-.15-.39.38,0c.15,0,.29-.06.29-.3a2.55,2.55,0,0,0-.72-1.45c.22-.53.36-.88.54-1.42h-.62v4.06h-.33v-4.38h1.27l.12.18"/><path id="path248" class="cls-14" d="M209.43,138.26a6.72,6.72,0,0,1-.28.67l-.29-.14a4,4,0,0,0,.32-.78l.32.13s.06,0,.06.05,0,.05-.13.07Zm-.05,2.09a6.21,6.21,0,0,1-.3.57l-.28-.19a2.07,2.07,0,0,0,.36-.67l.29.17s.06,0,.06.07-.09,0-.13,0Zm0,1.45a1.78,1.78,0,0,1-1.11-1.16,1.84,1.84,0,0,1-1.06,1.22l-.26-.25a1.64,1.64,0,0,0,.95-.83,2.69,2.69,0,0,0,.2-1.19l.38,0s.07,0,.07.05,0,.05-.1.08,0,.31,0,.32a2.84,2.84,0,0,0,.17.55,1.55,1.55,0,0,0,1,.87l-.25.29Zm-1.75-1.57a8.06,8.06,0,0,1-.39.73l-.3-.18a3.67,3.67,0,0,0,.47-.84l.31.15s.07,0,.07.07-.07.06-.16.07Zm0-2a5.69,5.69,0,0,1-.41.76l-.3-.13a3.78,3.78,0,0,0,.43-.85l.34.1s.07,0,.07,0S207.75,138.23,207.65,138.23Zm1.78,1.55a1.64,1.64,0,0,1-1.21-1,1.75,1.75,0,0,1-1,1.06l-.25-.28a1.32,1.32,0,0,0,.78-.48,2.1,2.1,0,0,0,.32-1.35l.38.05s.08,0,.08.05-.09.08-.12.08,0,.21,0,.37a1.45,1.45,0,0,0,1.26,1.17l-.17.3Zm-2.94-1.19a3.46,3.46,0,0,0-.6-.43l.19-.26a3,3,0,0,1,.62.44Zm-.38,3a.44.44,0,0,1,0,.1c0,.06,0,.1-.06.1s-.08-.05-.09-.06l-.27-.28a7.49,7.49,0,0,0,.95-1.66l.25.31c-.26.54-.48.95-.8,1.49Zm.1-1.74a3.63,3.63,0,0,0-.65-.43l.2-.27a4.22,4.22,0,0,1,.65.42l-.2.28"/><path id="path250" class="cls-14" d="M213.16,139.3V139l-2,0v.34Zm0-.6v-.34h-2v.34Zm.32-.6v1.45l-2.32,0v.28l2.91,0v.26l-2.91,0v.29l2.86,0c-.09,1.41-.25,1.41-1,1.42l-.15-.36a2.55,2.55,0,0,0,.39,0c.21,0,.26-.07.3-.31a4,4,0,0,0,.07-.51l-2.83,0,0-2.55h.87a2.14,2.14,0,0,0,.27-.45l.29.11s.1,0,.1.07,0,0-.11.06a1.37,1.37,0,0,1-.15.21Zm-1,2.68.3,0s.08,0,.08.05,0,0-.07.07v.59l-2.08,0v.19h-.31v-.92l.29,0c.06,0,.08,0,.08.05s0,0-.06.06v.33h.75v-.56l.29,0s.09,0,.09,0,0,.06-.08.08v.41h.72v-.5"/><path id="path252" class="cls-14" d="M218,139.8h-.72v.37H218Zm0-.61h-.72v.36H218Zm-1,.62h-.69v.37H217Zm0-.61h-.68v.36H217Zm.83,2.05-.19-.34h.23c.18,0,.18-.06.18-.19v-.3h-.72v.77H217v-.77h-.68v.79H216v-2.31h1a2,2,0,0,0-.48-.35l.17-.26c.1.06.11.06.36.23.32-.24.35-.27.51-.4h-1.52v-.27l2,0,.14.19c-.35.29-.53.44-.86.68a1.54,1.54,0,0,1,.19.19h.86l0,1.92c0,.31-.05.39-.53.43Zm-2.47-2.31a6.15,6.15,0,0,0-.58-.93l.27-.2a5.4,5.4,0,0,1,.58.95Zm3.33,2.73h-2c-.72,0-1-.15-1.21-.52-.09.08-.25.24-.5.44,0,.06,0,.13-.06.13s0,0-.07,0l-.19-.29a3.48,3.48,0,0,0,.65-.48v-1h-.55v-.31h.86v1.19a.58.58,0,0,0,.39.51,2.43,2.43,0,0,0,.88.08,12.34,12.34,0,0,0,1.94-.14l-.14.41"/><path id="path254" class="cls-14" d="M222.35,138c0,.11,0,.16,0,.31,0,.64.06.73.06.95a3.36,3.36,0,0,1-.4,1.7,2.58,2.58,0,0,1-.49.6l-.32-.21a2,2,0,0,0,.65-.79,2.88,2.88,0,0,0,.23-1.24,5.81,5.81,0,0,0-.14-1.3l.4,0Zm-1.86.12a5,5,0,0,0-.18,1.4.42.42,0,0,0,0,.2c.11-.22.22-.45.32-.7l.2.2c-.09.28-.13.39-.5,1.35l-.2,0a3,3,0,0,1-.19-1.11,7.48,7.48,0,0,1,.17-1.49l.34.13"/><path id="path256" class="cls-14" d="M242.47,145.39a4.11,4.11,0,0,1,.57,1.05l-.26.1a3.89,3.89,0,0,0-.2-.48c-.93,0-1.13,0-2,0,0,0-.08.11-.12.1s0-.05-.05-.13l0-.28c.13,0,.27,0,.55.06a3.82,3.82,0,0,0,.54-.66l-1.12-.18,0-.24,3,.48,0,.24-1.56-.25a5.31,5.31,0,0,1-.56.64,11.45,11.45,0,0,0,1.23,0,3.77,3.77,0,0,0-.22-.33l.22-.12Zm-2.58,1.91,1.44.23.09-.57-1.16-.19,0-.23,1.17.18.1-.61.27.06c.06,0,.11,0,.1.06s-.05.05-.13.06l-.08.47,1.09.17,0,.24-1.09-.17-.09.57,1.45.23,0,.23-3.15-.49,0-.24"/><path id="path258" class="cls-14" d="M246.72,147.65a2.46,2.46,0,0,0,.59-.4l.16.22s0,0,0,.06-.08,0-.11,0a4.18,4.18,0,0,1-.52.31l-.14-.2Zm0,.42a7.38,7.38,0,0,1,.75.57l-.18.22a4.13,4.13,0,0,0-.71-.6l.14-.19Zm-.77-1a3.37,3.37,0,0,1,.49.51l-.19.17a3,3,0,0,0-.47-.48Zm.84-1.52.27.08s.05,0,.05.05-.07,0-.09.05l-.07.41.78.12,0,.24-.78-.13-.08.47,1,.15,0,.23-2.31-.36,0-.24.48.08.13-.84.24.08s.06,0,.05,0-.05,0-.07,0l-.11.71.38.06.2-1.25Zm-.42,2.66-.78.33s0,.07-.07.07a.11.11,0,0,1,0-.05l-.09-.25a7.53,7.53,0,0,0,.94-.34Zm-1.1-2.86a4.14,4.14,0,0,1,.44.5l-.19.16a3.53,3.53,0,0,0-.44-.48Zm-.43.93a3.43,3.43,0,0,1,.47.42l-.18.2a2.38,2.38,0,0,0-.46-.41l.17-.21Zm.63,1c-.26.46-.43.72-.64,1a.38.38,0,0,1,0,.1s0,.06,0,.05l-.06,0-.2-.2a6.39,6.39,0,0,0,.77-1.15l.17.21"/><path id="path260" class="cls-14" d="M251.11,147.05a3.86,3.86,0,0,1-.86-.71l.19-.18a3.27,3.27,0,0,0,.85.68l-.18.21Zm-.77,1.16L249,148l-.1.65,1.29.21Zm-.17,1.09,0-.2-1.3-.2,0,.2-.26,0,.21-1.35,1.82.29-.21,1.34Zm-.53-3.07a2.56,2.56,0,0,1-.92.44l-.18-.24a2.17,2.17,0,0,0,1-.45l.17.2,0,0s-.08,0-.12,0Zm1.55,1.83a4.34,4.34,0,0,1-.76-.5,3,3,0,0,1-.58-.61,4.19,4.19,0,0,1-1.53.72l-.15-.25a3,3,0,0,0,1.73-.86l.23.22s0,0,0,.05,0,0-.05,0a2.8,2.8,0,0,0,1.26,1l-.17.21"/><path id="path262" class="cls-14" d="M92.33,138.23l1.45-.14-.06-.57-1.17.11,0-.24,1.18-.11-.06-.62h.28c.07,0,.11,0,.11,0s0,.05-.11.09l0,.47,1.1-.1,0,.23-1.09.11.05.58,1.46-.15,0,.24-3.18.31,0-.24Zm2-2.5a4,4,0,0,1,.82.88l-.23.16a4.32,4.32,0,0,0-.31-.41c-.9.23-1.1.28-1.94.46,0,0,0,.12-.09.12s0,0-.08-.11l-.11-.26.55-.08a3.55,3.55,0,0,0,.36-.78l-1.13.11,0-.24,3-.29,0,.24-1.57.15a5.22,5.22,0,0,1-.38.76c.53-.09.87-.18,1.19-.26a3.63,3.63,0,0,0-.28-.27l.17-.18"/><path id="path264" class="cls-14" d="M99.49,136.89,98,137l.06.62,1.46-.14Zm-1.41-.83a2.78,2.78,0,0,0,.17-.51l.25.07s.06,0,.06,0,0,.05-.09.07-.09.26-.1.3l1.57-.15,0,.23-1.7.16a3.78,3.78,0,0,1-.3.51l1.76-.17.12,1.23-.26,0v-.14l-1.46.14,0,.19-.26,0-.1-1a3.65,3.65,0,0,1-.59.56l-.23-.18a2.7,2.7,0,0,0,1-1.12l-1,.1,0-.23,1.16-.11Zm.66-.67-.78.08,0,.37-.25,0,0-.37-.87.09,0-.23.88-.09,0-.32h.26s.07,0,.07,0,0,0-.07.06l0,.2.77-.08,0-.3h.26s.07,0,.07,0,0,.06-.07.09l0,.17.92-.09,0,.23-.93.09,0,.37-.25,0,0-.38"/><path id="path266" class="cls-14" d="M102.82,135.48a2.77,2.77,0,0,0,.35.6,2.5,2.5,0,0,0,.54.53l-.19.22a3,3,0,0,1-.72-.9l.16,1.65-.25,0-.15-1.6a3,3,0,0,1-.62,1.2l-.25-.15a3,3,0,0,0,.75-1.54l-.4,0,0-.24.48-.05-.08-.8h.27s.07,0,.07,0,0,.06-.08.08l.07.67.69-.07,0,.24-.63.07Zm-1.51.15a1.48,1.48,0,0,0,.51.6l-.14.22a1.14,1.14,0,0,1-.38-.42l.16,1.69-.24,0-.16-1.62a3.15,3.15,0,0,1-.4,1l-.24-.15a3.4,3.4,0,0,0,.51-1.35l-.54.05,0-.25.63-.06-.07-.77h.26s.07,0,.07,0,0,.06-.07.08l.06.64.53,0,0,.25-.48,0"/><path id="path268" class="cls-14" d="M110.37,184.94h-.81c0,.21,0,.26,0,.56l.36-.24a6.64,6.64,0,0,1,.46.66v-1Zm1.46,2.45c-.11.45-.27.53-.9.53-.46,0-.56-.09-.56-.55v-.91l-.4.27a4.22,4.22,0,0,0-.44-.75,2.77,2.77,0,0,1-.88,1.94l-.64-.39a2.19,2.19,0,0,0,.89-2.12c0-.32,0-.66,0-1.13H111v2.62c0,.2,0,.23.1.23s.12,0,.18-.29a2.46,2.46,0,0,0,.06-.36l.56.27A4.43,4.43,0,0,1,111.83,187.39Zm-3.9-2.32v1.34l.67-.23,0,.66c-.28.11-1.36.51-1.78.65a.42.42,0,0,0-.22.13c-.07.09-.08.09-.12.09s-.1-.11-.1-.15l0-.73.84-.2v-1.56h-.7v-.65h2.2v.65Zm2.61-1.73a2.83,2.83,0,0,1,.24.64l-.66.14a2.74,2.74,0,0,0-.29-.78h-.16a7.49,7.49,0,0,1-.64.9l-.59-.45a3,3,0,0,0,.4-.47h-.62a2.43,2.43,0,0,1,.2.79l-.68.1a2.76,2.76,0,0,0-.24-.89h-.19a3.81,3.81,0,0,1-.54.81l-.68-.32a4.21,4.21,0,0,0,.87-1.61l.75.15c.06,0,.11.05.11.1s0,0-.09.08a.26.26,0,0,0-.13.14H109v.39a3.27,3.27,0,0,0,.37-.87l.79.13c.06,0,.13,0,.13.09s-.07.09-.12.1-.1,0-.15.17h1.69v.66h-1.18"/><path id="path270" class="cls-14" d="M116.4,185.24a2,2,0,0,0,.35.85,2.55,2.55,0,0,0,.45-.85Zm-.16-1.54h-.69c0,.54,0,.69,0,.89h.68Zm-.58,1.54h-.12a5.64,5.64,0,0,1-.53,2.07,3.17,3.17,0,0,0,1.27-.73,3.86,3.86,0,0,1-.62-1.34ZM118,188a4.06,4.06,0,0,1-1.29-.88,3.34,3.34,0,0,1-1.32.82l-.43-.62a2.87,2.87,0,0,1-.36.55l-.7-.32a4.09,4.09,0,0,0,.9-2.88c0-.5,0-1.08,0-1.63h1.45v-.83l.61.05c.05,0,.29,0,.29.12a.09.09,0,0,1,0,.06c-.09.06-.11.06-.11.11v.49h1.29l.28.25c-.17.43-.35.83-.49,1.17l-.69-.23a5.44,5.44,0,0,0,.23-.54H117v.89h.91l.28.26a5.64,5.64,0,0,1-1,1.76,3.42,3.42,0,0,0,1.43.79L118,188Zm-3.89-4.58a4.7,4.7,0,0,0-1-.63l.44-.61a4.07,4.07,0,0,1,1,.67Zm-.58,3.95a.42.42,0,0,0-.08.31c0,.06,0,.15-.07.15a.5.5,0,0,1-.21-.09l-.57-.42a7.48,7.48,0,0,0,1.15-2l.58.44A13.67,13.67,0,0,1,113.57,187.38Zm.13-2.53a5.4,5.4,0,0,0-1.11-.52l.33-.66a5.27,5.27,0,0,1,1.12.54l-.34.64"/><path id="path272" class="cls-14" d="M124.35,187.93a4.79,4.79,0,0,1-2.23-2.43,4.54,4.54,0,0,1-2.36,2.47l-.64-.57a3.63,3.63,0,0,0,2.44-2.85H119.3v-.71h2.34c0-.28,0-.62,0-.71,0-.38,0-.66,0-.87l.87,0s.11,0,.11.08-.06.11-.12.16a1.44,1.44,0,0,0,0,.38c0,.06,0,.62,0,.92h2.45v.71h-2.39A4,4,0,0,0,125,187.3l-.68.63"/><path id="path274" class="cls-14" d="M128.48,183.45a4,4,0,0,0-.61-.94l.6-.36a4.43,4.43,0,0,1,.64,1Zm-1.48.13a4.41,4.41,0,0,0-.56-.87l.6-.37a4.59,4.59,0,0,1,.58.84Zm2.05,2.84v1c0,.45-.38.56-.78.56h-.41l-.29-.69.53,0c.11,0,.15-.1.15-.2v-.7H126v-.64h2.25v-.41l.32.06a1.73,1.73,0,0,0,.25-.28h-1.75v-.61h3l.18.29c-.29.27-.81.69-1.16.95h2.22v.64Zm1.53-1.39v-.79H126.7v.82H126v-1.42h3.24a5.53,5.53,0,0,0,.8-1.23l.64.21s.11.06.11.11,0,0,0,0-.16.06-.19.08a5.7,5.7,0,0,1-.51.79h1.23V185h-.72"/><path id="path276" class="cls-14" d="M137.45,184.35v3a.48.48,0,0,1-.39.52,1.92,1.92,0,0,1-.66.09l-.31-.81a2.87,2.87,0,0,0,.36,0c.27,0,.27-.11.27-.34v-2.45h-1.1v-.72h1.1v-1.37l.58,0c.32,0,.32.05.32.09s-.06.1-.1.13a.14.14,0,0,0-.07.1v1H138v.72Zm-1.56,1.71a3.57,3.57,0,0,0-.44-1.1l.62-.32a5.12,5.12,0,0,1,.47,1.1Zm-2.59-1.78.38-1.17h-.51v2.79c.38,0,.65,0,.65-.43A2.11,2.11,0,0,0,133.3,184.28Zm2.53-1.58c-.13,0-.14.06-.15.11-.13.32-.19.45-.32.75.15.1.17.1.17.15s0,0,0,0-.08.15-.08.19v3.89h-.75v-3.17l-.13.15-.42-.36a2,2,0,0,1,.4,1.11,1.11,1.11,0,0,1-1.08,1.08l-.28-.44v1.64h-.71v-5.41h1.88l.29.28-.67,1.51.07.09a5.8,5.8,0,0,0,1.06-2.12l.7.28c.06,0,.16.08.16.14s-.07.08-.12.09"/><path id="path278" class="cls-14" d="M143.82,186.52h-.51c.07.21.15.49.21.73.22,0,.3,0,.3-.15v-.58Zm-1.25,0v.27l.26,0a.76.76,0,0,0-.06-.18l.31-.07Zm.83-1.56h-.83v.39h.83Zm-1.52,0h-.75v.39h.75Zm1.72-2.13h-3.55v.35h3.55Zm-.2,5.13-.19-.61-.27,0a1.42,1.42,0,0,0-.05-.22c-.23,0-.6.1-1.36.19-.17,0-.19,0-.24.08s-.1.11-.13.11-.09-.1-.1-.16l-.06-.5c.14,0,.39,0,.88,0v-.32h-1.06v1.37h-.68V186h1.74v-.2h-1.42v-1.27h1.42v-.17h-1.37l-.21-.51c.35,0,.52,0,.88,0a8.93,8.93,0,0,0,2-.17h-3.1a9.94,9.94,0,0,1-.56,4.06l-.74-.27a7.72,7.72,0,0,0,.59-3.31c0-.72-.05-1.46-.08-1.89h5.05v1.41h-.4l.3.32a.17.17,0,0,1,.06.12s0,.05-.08.05l-.25-.05-.5.08c-.2,0-.47.07-.87.1v.21h1.49v1.27h-1.49v.2h1.93v1.55c0,.38-.54.41-1.1.42"/><path id="path280" class="cls-14" d="M110.21,193.36h-.47v.95h.47Zm-2.85,2a7.09,7.09,0,0,0-.12-.86l.37,0a2.4,2.4,0,0,1,.14.87Zm0-2.12H107v.37h.38Zm0-.9H107v.34h.38Zm0-.85H107v.34h.38Zm-.67,4.18a4.87,4.87,0,0,0,0-.54,3.43,3.43,0,0,0,0-.56l.38,0a7.9,7.9,0,0,1,.08,1Zm4.76.23c-.21.37-.51.41-1.19.41l-.37-.81a3.73,3.73,0,0,0,.48,0c.23,0,.33,0,.42-.17a3.87,3.87,0,0,0,.33-2c0-.47,0-.85-.05-1.24h-1.6a3,3,0,0,1-.2.49h1.55v2.22h-1.11v.59h-.66v-2.33l-.51-.31v.41H108v.37h.89a10.4,10.4,0,0,1-.17,1.74c-.15.83-.45.93-1.16.94l-.3-.66h.55c.2,0,.25-.31.29-.61l-.24,0a1.7,1.7,0,0,0-.19-.6l.35-.08a1.51,1.51,0,0,1,.13.3c0-.29,0-.37,0-.49H107v.19h-.69V191h2.49v.57H108v.34h.54v.51H108v.34h.49a3.82,3.82,0,0,0,.58-1.89l.66.06c.09,0,.18,0,.18.08a.54.54,0,0,1-.12.18s-.08.32-.09.35h2.06c0,1.11,0,1.37,0,1.72a8,8,0,0,1-.35,2.72Zm-4.91-1.14a6,6,0,0,1-.11,1.18l-.5,0a5,5,0,0,0,.17-1.37l.41.06c.07,0,.15,0,.15.09s0,.06-.12.09"/><path id="path282" class="cls-14" d="M117.39,194.54a3.5,3.5,0,0,1-.75,1.14,1.76,1.76,0,0,0,.36,0,.32.32,0,0,0,.34-.18,2.46,2.46,0,0,0,.21-1Zm-.19-2.33h-1.39v.28h1.39Zm0-.74h-1.39v.28h1.39Zm-2,1.51v-2h2.65v2Zm.8.78a1.75,1.75,0,0,1-.11.24h2.37a4.83,4.83,0,0,1-.36,2c-.19.31-.51.4-1,.41l-.27-.64a3.7,3.7,0,0,1-.8.68l-.49-.32a4.33,4.33,0,0,0,1.49-1.57h-.33a3.37,3.37,0,0,1-.64.85,6,6,0,0,1-1,.81l-.51-.36a4,4,0,0,0,1.55-1.3h-.3a5,5,0,0,1-.87.83l-.52-.35a4.2,4.2,0,0,0,.58-.43c-.45.17-1.17.41-1.36.46s-.26.06-.3.11-.09.1-.13.1a0,0,0,0,1,0,0l-.12-.73.72-.17v-1.53h-.63v-.67h.63v-1.3l.76.06s.09,0,.09.07,0,.07-.07.11-.09.05-.09.09v1h.68v.67h-.68v1.34c.23-.07.44-.13.66-.21v.54a2.43,2.43,0,0,0,.48-.7h-.62v-.53h3.62v.53H116"/><path id="path284" class="cls-14" d="M124,192.62h-1.5v1.23H124Zm-2.25,0h-1.49v1.23h1.49Zm2.25,2.2v-.26h-1.5v1.85h-.75v-1.85h-1.49v.29h-.76v-2.94h2.25V190.8l.81.07s.1,0,.1.07a.13.13,0,0,1-.07.1s-.09.05-.09.09v.78h2.25v2.91H124"/><path id="path286" class="cls-14" d="M128.65,194.35a.73.73,0,1,1,.73-.73.74.74,0,0,1-.73.73"/><path id="path288" class="cls-14" d="M135.79,194.9h-1.2v.36h1.2Zm.23-2.33h-1.7v.36H136Zm-1.43,3.18V196h-.66v-1.52h2.52v1.28Zm-1-2.36v-1.3h3.16v1.3Zm3.47,3.12h-.36l-.29-.66h.33c.21,0,.25,0,.25-.21v-1.47h-3.64v2.25h-.74v-2.77h5.12V196C137.72,196.28,137.47,196.51,137.05,196.51Zm-4.65-4.68v-.58h2.38v-.47l.79.07s.16,0,.16.06,0,.06-.07.08-.07,0-.07.08v.18h2.35v.58H132.4"/><path id="path290" class="cls-14" d="M143.4,194v.38h1v.6h-1v.88c0,.42-.07.62-.56.62h-.6l-.31-.71a3.77,3.77,0,0,0,.49,0c.14,0,.2,0,.2-.2v-.63h-2.13a4.86,4.86,0,0,1,.63.91l-.61.35a4.62,4.62,0,0,0-.67-1l.35-.3h-1.14v-.6h3.57V194H138.9v-.57h2.39V193h-2v-.53h2v-.36l.38,0-.3-.23a1.73,1.73,0,0,0,.24-.28h-.8a2.2,2.2,0,0,1,.16.56l-.64.06a2.63,2.63,0,0,0-.13-.62h-.26a2.87,2.87,0,0,1-.51.58l-.6-.32a3.56,3.56,0,0,0,.9-1.28l.66.17a.06.06,0,0,1,.06.06s0,.05-.1.09,0,0-.09.14h1.39v.5a3.2,3.2,0,0,0,.49-.9l.68.15a.06.06,0,0,1,.06.06.11.11,0,0,1,0,0l-.1.05s0,.08,0,.09h1.75v.56h-1.08a3.65,3.65,0,0,1,.13.55l-.65.08a5,5,0,0,0-.15-.63h-.31a4,4,0,0,1-.4.54l.08,0a.05.05,0,0,1,0,0s0,0,0,.07,0,0,0,.14h2.08V193H142v.35h2.5V194H143.4"/><path id="path292" class="cls-14" d="M148.08,192a4.17,4.17,0,0,0-.61-.94l.6-.35a4.43,4.43,0,0,1,.64,1Zm-1.48.13a4.41,4.41,0,0,0-.56-.87l.6-.36a4,4,0,0,1,.58.84l-.62.39Zm2.05,2.84v1c0,.46-.38.57-.78.57h-.41l-.29-.69.53,0c.11,0,.15-.09.15-.19V195H145.6v-.64h2.25v-.4l.32.05a1.77,1.77,0,0,0,.25-.27h-1.75v-.61h3l.18.29c-.29.26-.81.69-1.16.94h2.22V195Zm1.53-1.39v-.78h-3.87v.81h-.71v-1.42h3.24a5.53,5.53,0,0,0,.8-1.23l.64.22s.12.06.12.11,0,0,0,0-.16.05-.19.08a6.33,6.33,0,0,1-.51.78h1.23v1.39h-.72"/><path id="path294" class="cls-14" d="M154.21,192.05v-.63h1.26v-.63l.66,0c.1,0,.15,0,.15.08s0,0,0,.06-.1.07-.1.1v.36h1.46v.63Zm3.08,4.35a4.14,4.14,0,0,1-1.51-1.12,5.27,5.27,0,0,1-1.61,1.12l-.5-.51a4.92,4.92,0,0,0,1.72-1.13,7.59,7.59,0,0,1-.58-1.1,1.5,1.5,0,0,1-.14.19l-.61-.25a5.28,5.28,0,0,0,.77-1.45l.54.21s.13.06.13.11-.05.05-.07.06-.08,0-.09.05a7.3,7.3,0,0,1-.4.86l.4-.22a5.2,5.2,0,0,0,.46,1,3.71,3.71,0,0,0,.45-1.13l.43.1a5,5,0,0,0-.67-.74l.54-.36a7.83,7.83,0,0,1,1.14,1.34l-.63.36c-.1-.19-.18-.32-.22-.39a4.25,4.25,0,0,1-.64,1.37,3.57,3.57,0,0,0,1.6,1l-.51.58Zm-3.56-2.14c-.1-.11-.24-.25-.36-.41v2.6h-.68v-1.91a4.65,4.65,0,0,1-.42.73l-.57-.33a4.72,4.72,0,0,0,1-2.31H152V192h.73v-1.17l.65,0s.15,0,.15.07,0,0-.05.08-.07,0-.07.07V192h.72v.63h-.72a2.67,2.67,0,0,0,.81,1.13l-.45.5"/><path id="path296" class="cls-15" d="M126.18,166.94a.11.11,0,0,0,.1.1h.17c.39,0,.69-.1.69-1.32s-.33-1.32-.62-1.32h-.24a.1.1,0,0,0-.1.1Zm-.58-2.54v-.29h.85c.65,0,1,.28,1,1.61,0,.71,0,1.61-1,1.61h-.86V167h.16a.11.11,0,0,0,.1-.1V164.5a.1.1,0,0,0-.1-.1h-.16"/><path id="path298" class="cls-15" d="M128.86,167h.25a.09.09,0,0,0,.1-.1V165.2a.11.11,0,0,0-.1-.1h-.25v-.29h1v.29h-.26a.09.09,0,0,0-.1.1v1.74a.1.1,0,0,0,.1.1h.26v.29h-1V167"/><path id="path300" class="cls-15" d="M133.18,166.8a1,1,0,0,1-.84.53c-.73,0-1-.68-1-1.3,0-1,.54-1.31.94-1.31a.87.87,0,0,1,.8.54l-.3.15a.57.57,0,0,0-.49-.38c-.51,0-.61.61-.61,1s.09,1,.61,1c.29,0,.44-.18.59-.41l.27.18"/><path id="path302" class="cls-15" d="M134.48,164.81h1.57v.29h-1.14a.1.1,0,0,0-.1.1v.55a.1.1,0,0,0,.1.11h.93v.29h-.93a.09.09,0,0,0-.1.1v.69a.09.09,0,0,0,.09.1h1.15v.29h-1.57v-2.52"/><path id="path304" class="cls-15" d="M137.85,166.61h.45v.72h-.45Zm.06-.28-.08-2.22h.49l-.1,2.22h-.31"/><path id="path306" class="cls-15" d="M125.79,158.32h-1.6V151.2h1.6l-.8-1.38,6.17-3.56a8.54,8.54,0,0,0,0,17L125,159.71l.8-1.39"/><path id="path308" class="cls-15" d="M131.16,163.27c.26,0,.53,0,.8,0s.54,0,.8,0l-.8-1.39-.8,1.39"/><path id="path310" class="cls-15" d="M132.76,146.26a8,8,0,0,0-1.6,0l.8,1.38.8-1.38"/><path id="path312" class="cls-15" d="M138.12,151.2h1.61v7.12h-1.61l.81,1.39-6.17,3.56a8.54,8.54,0,0,0,0-17l6.17,3.56-.81,1.38"/><path id="path314" class="cls-15" d="M131.31,155.14l.65.37.65-.37v-.75L132,154l-.65.37v.75"/><path id="path316" class="cls-15" d="M135.37,156l-2.12-1.22-.64.38v.74l2.11,1.22-.71,1.22h4.11l-2.05-3.56-.7,1.22"/><path id="path318" class="cls-15" d="M128.55,153.54l2.11,1.22.65-.37v-.75l-2.11-1.22.7-1.22h-4.11l2.06,3.56.7-1.22"/><path id="path320" class="cls-15" d="M131.31,155.88v-.74l-.65-.38L128.55,156l-.7-1.22-2.06,3.56h4.11l-.7-1.22,2.11-1.22"/><path id="path322" class="cls-15" d="M132.61,155.88l-.65-.37-.65.37v2.44H129.9l2.06,3.56,2-3.56h-1.4v-2.44"/><path id="path324" class="cls-15" d="M132.61,153.64v.75l.64.37,2.12-1.22.7,1.22,2.05-3.56H134l.71,1.22-2.11,1.22"/><path id="path326" class="cls-15" d="M131.31,151.2v2.44l.65.38.65-.38V151.2H134l-2-3.56-2.06,3.56h1.41"/><line class="cls-16" x1="14.92" y1="49.01" x2="122.56" y2="260.05"/><line class="cls-17" x1="122.56" y1="260.05" x2="574.33" y2="260.05"/><line class="cls-18" x1="331.12" y1="126.78" x2="197.56" y2="330.86"/><line class="cls-19" x1="223.81" y1="143.17" x2="331.12" y2="126.78"/><line class="cls-19" x1="75.43" y1="142.4" x2="-138.1" y2="163.74"/><line class="cls-20" x1="382.61" y1="181.61" x2="216.22" y2="302.34"/><line class="cls-21" x1="497.01" y1="18.34" x2="330.31" y2="124.38"/><line class="cls-22" x1="498.66" y1="23.21" x2="331.96" y2="129.25"/><line class="cls-23" x1="181.79" y1="43.77" x2="498.66" y2="110.9"/><path class="cls-24" d="M331.12,126.78c29.38-46.92,46.12-154,0-213.47"/><line class="cls-25" x1="300.58" y1="19.57" x2="545.75" y2="20.05"/><line class="cls-26" x1="300.58" y1="19.57" x2="460.79" y2="3.75"/><line class="cls-27" x1="381.4" y1="179.4" x2="479.37" y2="108.32"/><line class="cls-28" x1="384.99" y1="182.97" x2="490.6" y2="106.35"/><circle class="cls-3" cx="501.63" cy="19.57" r="201.04"/><path class="cls-5" d="M86.84,64.28C27.75,48.61,18.67,19.57,18.67,19.57"/><circle class="cls-29" cx="43" cy="45.4" r="7.09"/><circle class="cls-30" cx="14.92" cy="48.03" r="4.25"/><circle class="cls-29" cx="86.84" cy="64.28" r="7.09"/><circle class="cls-30" cx="29.09" cy="75.94" r="4.25"/><circle class="cls-29" cx="122.56" cy="260.05" r="7.09"/><circle class="cls-29" cx="243.04" cy="260.05" r="7.09"/><circle class="cls-30" cx="273.75" cy="260.05" r="4.25"/><circle class="cls-29" cx="331.12" cy="126.78" r="7.09"/><circle class="cls-29" cx="300.58" cy="19.57" r="7.09"/><circle class="cls-31" cx="181.79" cy="43.77" r="4.25"/><circle class="cls-29" cx="359.77" cy="16.13" r="7.09"/><circle class="cls-29" cx="389.7" cy="88.47" r="7.09"/><circle class="cls-29" cx="382.61" cy="180.65" r="7.09"/><circle class="cls-32" cx="18.67" cy="20.05" r="7.09"/></g></svg>