<?xml version="1.0" encoding="utf-8"?>
<!-- Generator: Adobe Illustrator 22.0.1, SVG Export Plug-In . SVG Version: 6.00 Build 0)  -->
<svg version="1.1" id="レイヤー_1" xmlns="http://www.w3.org/2000/svg" xmlns:xlink="http://www.w3.org/1999/xlink" x="0px"
	 y="0px" viewBox="0 0 708.1 112.5" style="enable-background:new 0 0 708.1 112.5;" xml:space="preserve">
<style type="text/css">
	.st0{fill:#3C3C3C;}
	.st1{fill:#FFFFFF;}
</style>
<g>
	<rect class="st0" width="708.7" height="113.4"/>
	<g>
		<path class="st1" d="M130.9,55c2-5.9,2.4-12.2,2.3-18.5l6.1,0.2c0.1,8.3-0.5,16.3-2.3,22.3L130.9,55z M152.4,44.4
			c-0.8-2.4-1-3-2.4-6.5v54.3H141V21.4h9.1V34l3.9-1.9c1.6,3,3,6.1,4.3,9.4L152.4,44.4z M174.3,21.4h9.2v4h18.1v6.8h-18.1v3.5h16.7
			v5.9h-16.7V45h19.6v6.9h-48.4V45h19.5v-3.5h-16v-5.9h16v-3.5h-18.1v-6.8h18.1V21.4z M199.8,54.8v29.4c0,5.7-0.8,7.9-7.8,7.9h-9.2
			l-1.6-7.6h7.9c1.8,0,1.8-0.8,1.8-2.3v-2.6H167v12.4h-8.8V54.8H199.8z M167,61.3v3.5h23.9v-3.5H167z M167,70.5v3.6h23.9v-3.6H167z"
			/>
		<path class="st1" d="M220.7,21.6h9.1v4.9h11.3v8.3h-11.3v5.6h13.6v8.2h-4c-0.8,4-1,5-1.9,8.5h5.5v8.3h-13.2v6.2h11.5v8.6h-11.5
			v11.8h-9.1V80.1h-11.4v-8.6h11.4v-6.2H208V57h5.5c-0.3-2.3-0.9-5.8-1.8-8.5h-4.1v-8.2h13.1v-5.6h-11.4v-8.3h11.4V21.6z M220,48.5
			c1,4.3,1.4,6.7,1.7,8.5h7.4c0.7-2.8,1-5.6,1.4-8.5H220z M253.3,85v7h-8.8V23.7h31.3c0,2.8-0.3,16.5-1.7,20.3
			c-0.4,1.1-1.6,4.2-6.1,4.2h-9.9l-1.5-7.9h7.1c2.3,0,3,0,3.3-8h-13.6v18.9h23.3c-0.5,6.8-2,17.8-5.9,25.4c2.6,2.6,5,4.6,8.4,7.1
			l-4.7,8.4c-2.2-1.4-4.5-2.9-8.7-7.6c-2.3,3.1-4.5,5.3-7.3,7.8L253.3,85z M261,60.6c0.9,2.3,1.9,4.6,4,8.4c2-5,2.3-7.4,2.6-9.8
			h-14.3v25.6c2.1-1.8,4.2-3.5,7.1-7.6c-4.4-7.2-5.7-12.1-6.4-14.8L261,60.6z"/>
		<path class="st1" d="M318.6,64.6c-0.2,2.1-0.5,4.5-1.3,8c2.9,5.7,5.8,7.1,7.1,7.8V60.8h-17.4v1.7c-2.5,1-5,1.9-7.5,2.7v18.8
			c0,7.4-3.5,8.1-8.3,8.1h-7.6l-1.2-9.5h6.1c1.8,0,2.1-0.4,2.1-2.1V67.8c-1.4,0.4-3.2,0.8-8,2l-1.2-9.6c2.5-0.4,5.6-0.9,9.2-1.7V43
			H282v-8.9h8.6V21.4h8.8v12.7h6.6V43h-6.5v13.2c1.8-0.5,3.4-1,6.8-2.3v-1.1h46.4v8h-19.4v6.3h16.4v7.3h-16.4v8h20.4l-2,8.8h-18.1
			c-4.5,0-13.7-0.8-19-9.7c-2.6,5.9-5,8.3-7.1,10.5l-7-6.1c2.6-2.4,7.9-7.8,9.4-22.5L318.6,64.6z M349.6,23.3v25.8H308V23.3H349.6z
			 M316.8,30.1v3.5h24v-3.5H316.8z M316.8,38.9v3.8h24v-3.8H316.8z"/>
		<path class="st1" d="M363.6,58.1c-1.7,2.3-2.4,3.1-4.1,4.9l-3.4-12.3c5.2-6.7,9.8-14.8,11.9-29.5l9.3,1c-0.5,3.3-1.4,9.1-4.6,18.1
			v51.9h-9.1V58.1z M397.5,73.4c-5,8.8-11.4,14.7-17.3,18.8l-6.2-7.4c8.5-4.9,13.5-11.6,15.7-14.9L397.5,73.4z M385.8,21.3h9.2v12.8
			h13V21.3h9.2v12.8h9.4v9.1h-9.4v15.8h10.7V68h-52.1v-9.1h10V43.2H377v-9.1h8.9V21.3z M395.1,43.2v15.8h13V43.2H395.1z M422.4,92.2
			c-8.3-6.2-14-14.8-16.3-18.5l7.6-4.3c3.9,6.1,10.6,12,15.3,15.5L422.4,92.2z"/>
		<path class="st1" d="M438.9,57.4c-2,2.6-3.1,3.7-4.7,5.2l-3-12.3c6.2-7.3,10.6-16.2,12.4-29l9.5,0.9c-0.5,3.8-1.5,10.2-5,18.8
			v51.2h-9.1V57.4z M448.7,74.5c9-8.5,15.9-19,20.6-30.5h-17.2v-9.1h20V21.4h9.3v13.6h21.3V44H484c1.4,3.4,6.8,17.9,20,30l-5.9,9.5
			c-4.3-4.1-10.5-10.6-16.7-26v34.6h-9.3V56.3c-6.5,14.8-13.2,22.4-17.4,27L448.7,74.5z"/>
		<path class="st1" d="M550.3,21.5v21.9h24.1v9.5h-24.1v27.3h27.5v9.5h-70.3v-9.5h9.7V33.7h9.6v46.4h14V21.5H550.3z"/>
	</g>
</g>
</svg>
